%TF.GenerationSoftware,KiCad,Pcbnew,7.0.10*%
%TF.CreationDate,2024-02-21T12:35:33+05:00*%
%TF.ProjectId,Circuit for 2nd Milestone,43697263-7569-4742-9066-6f7220326e64,rev?*%
%TF.SameCoordinates,Original*%
%TF.FileFunction,Copper,L2,Bot*%
%TF.FilePolarity,Positive*%
%FSLAX46Y46*%
G04 Gerber Fmt 4.6, Leading zero omitted, Abs format (unit mm)*
G04 Created by KiCad (PCBNEW 7.0.10) date 2024-02-21 12:35:33*
%MOMM*%
%LPD*%
G01*
G04 APERTURE LIST*
%TA.AperFunction,NonConductor*%
%ADD10C,1.000000*%
%TD*%
%ADD11C,0.500000*%
%TA.AperFunction,NonConductor*%
%ADD12C,0.500000*%
%TD*%
%TA.AperFunction,ComponentPad*%
%ADD13R,1.700000X1.700000*%
%TD*%
%TA.AperFunction,ComponentPad*%
%ADD14O,1.700000X1.700000*%
%TD*%
%TA.AperFunction,ComponentPad*%
%ADD15R,2.000000X2.000000*%
%TD*%
%TA.AperFunction,ComponentPad*%
%ADD16C,2.000000*%
%TD*%
%TA.AperFunction,ComponentPad*%
%ADD17C,2.400000*%
%TD*%
%TA.AperFunction,ComponentPad*%
%ADD18O,2.400000X2.400000*%
%TD*%
G04 APERTURE END LIST*
D10*
X108488100Y-113741200D02*
X171488100Y-113741200D01*
X176911000Y-43370500D02*
G75*
G03*
X171145200Y-37966489I-5765800J-373900D01*
G01*
X171208700Y-113690400D02*
G75*
G03*
X176911000Y-107988100I0J5702300D01*
G01*
X102730300Y-108167300D02*
X102730300Y-43167300D01*
X102755701Y-108051600D02*
G75*
G03*
X108497508Y-113804613I5791199J38100D01*
G01*
X177000000Y-43000000D02*
X177000000Y-108000000D01*
X108000000Y-38000000D02*
X171000000Y-38000000D01*
X108000800Y-37985700D02*
G75*
G03*
X102704900Y-43281600I0J-5295900D01*
G01*
D11*
D12*
X132091438Y-106972538D02*
X132091438Y-104972538D01*
X132091438Y-104972538D02*
X131329533Y-104972538D01*
X131329533Y-104972538D02*
X131139057Y-105067776D01*
X131139057Y-105067776D02*
X131043819Y-105163014D01*
X131043819Y-105163014D02*
X130948581Y-105353490D01*
X130948581Y-105353490D02*
X130948581Y-105639204D01*
X130948581Y-105639204D02*
X131043819Y-105829680D01*
X131043819Y-105829680D02*
X131139057Y-105924919D01*
X131139057Y-105924919D02*
X131329533Y-106020157D01*
X131329533Y-106020157D02*
X132091438Y-106020157D01*
X129710486Y-104972538D02*
X129329533Y-104972538D01*
X129329533Y-104972538D02*
X129139057Y-105067776D01*
X129139057Y-105067776D02*
X128948581Y-105258252D01*
X128948581Y-105258252D02*
X128853343Y-105639204D01*
X128853343Y-105639204D02*
X128853343Y-106305871D01*
X128853343Y-106305871D02*
X128948581Y-106686823D01*
X128948581Y-106686823D02*
X129139057Y-106877300D01*
X129139057Y-106877300D02*
X129329533Y-106972538D01*
X129329533Y-106972538D02*
X129710486Y-106972538D01*
X129710486Y-106972538D02*
X129900962Y-106877300D01*
X129900962Y-106877300D02*
X130091438Y-106686823D01*
X130091438Y-106686823D02*
X130186676Y-106305871D01*
X130186676Y-106305871D02*
X130186676Y-105639204D01*
X130186676Y-105639204D02*
X130091438Y-105258252D01*
X130091438Y-105258252D02*
X129900962Y-105067776D01*
X129900962Y-105067776D02*
X129710486Y-104972538D01*
X127996200Y-104972538D02*
X127996200Y-106591585D01*
X127996200Y-106591585D02*
X127900962Y-106782061D01*
X127900962Y-106782061D02*
X127805724Y-106877300D01*
X127805724Y-106877300D02*
X127615248Y-106972538D01*
X127615248Y-106972538D02*
X127234295Y-106972538D01*
X127234295Y-106972538D02*
X127043819Y-106877300D01*
X127043819Y-106877300D02*
X126948581Y-106782061D01*
X126948581Y-106782061D02*
X126853343Y-106591585D01*
X126853343Y-106591585D02*
X126853343Y-104972538D01*
X124948581Y-106972538D02*
X125900962Y-106972538D01*
X125900962Y-106972538D02*
X125900962Y-104972538D01*
X124567628Y-104972538D02*
X123424771Y-104972538D01*
X123996200Y-106972538D02*
X123996200Y-104972538D01*
X121615247Y-106972538D02*
X122281914Y-106020157D01*
X122758104Y-106972538D02*
X122758104Y-104972538D01*
X122758104Y-104972538D02*
X121996199Y-104972538D01*
X121996199Y-104972538D02*
X121805723Y-105067776D01*
X121805723Y-105067776D02*
X121710485Y-105163014D01*
X121710485Y-105163014D02*
X121615247Y-105353490D01*
X121615247Y-105353490D02*
X121615247Y-105639204D01*
X121615247Y-105639204D02*
X121710485Y-105829680D01*
X121710485Y-105829680D02*
X121805723Y-105924919D01*
X121805723Y-105924919D02*
X121996199Y-106020157D01*
X121996199Y-106020157D02*
X122758104Y-106020157D01*
X120377152Y-106020157D02*
X120377152Y-106972538D01*
X121043818Y-104972538D02*
X120377152Y-106020157D01*
X120377152Y-106020157D02*
X119710485Y-104972538D01*
X116853341Y-105924919D02*
X116567627Y-106020157D01*
X116567627Y-106020157D02*
X116472389Y-106115395D01*
X116472389Y-106115395D02*
X116377151Y-106305871D01*
X116377151Y-106305871D02*
X116377151Y-106591585D01*
X116377151Y-106591585D02*
X116472389Y-106782061D01*
X116472389Y-106782061D02*
X116567627Y-106877300D01*
X116567627Y-106877300D02*
X116758103Y-106972538D01*
X116758103Y-106972538D02*
X117520008Y-106972538D01*
X117520008Y-106972538D02*
X117520008Y-104972538D01*
X117520008Y-104972538D02*
X116853341Y-104972538D01*
X116853341Y-104972538D02*
X116662865Y-105067776D01*
X116662865Y-105067776D02*
X116567627Y-105163014D01*
X116567627Y-105163014D02*
X116472389Y-105353490D01*
X116472389Y-105353490D02*
X116472389Y-105543966D01*
X116472389Y-105543966D02*
X116567627Y-105734442D01*
X116567627Y-105734442D02*
X116662865Y-105829680D01*
X116662865Y-105829680D02*
X116853341Y-105924919D01*
X116853341Y-105924919D02*
X117520008Y-105924919D01*
X115139056Y-104972538D02*
X114758103Y-104972538D01*
X114758103Y-104972538D02*
X114567627Y-105067776D01*
X114567627Y-105067776D02*
X114377151Y-105258252D01*
X114377151Y-105258252D02*
X114281913Y-105639204D01*
X114281913Y-105639204D02*
X114281913Y-106305871D01*
X114281913Y-106305871D02*
X114377151Y-106686823D01*
X114377151Y-106686823D02*
X114567627Y-106877300D01*
X114567627Y-106877300D02*
X114758103Y-106972538D01*
X114758103Y-106972538D02*
X115139056Y-106972538D01*
X115139056Y-106972538D02*
X115329532Y-106877300D01*
X115329532Y-106877300D02*
X115520008Y-106686823D01*
X115520008Y-106686823D02*
X115615246Y-106305871D01*
X115615246Y-106305871D02*
X115615246Y-105639204D01*
X115615246Y-105639204D02*
X115520008Y-105258252D01*
X115520008Y-105258252D02*
X115329532Y-105067776D01*
X115329532Y-105067776D02*
X115139056Y-104972538D01*
X113710484Y-104972538D02*
X112567627Y-104972538D01*
X113139056Y-106972538D02*
X113139056Y-104972538D01*
X111900960Y-106782061D02*
X111805722Y-106877300D01*
X111805722Y-106877300D02*
X111900960Y-106972538D01*
X111900960Y-106972538D02*
X111996198Y-106877300D01*
X111996198Y-106877300D02*
X111900960Y-106782061D01*
X111900960Y-106782061D02*
X111900960Y-106972538D01*
X111900960Y-105734442D02*
X111805722Y-105829680D01*
X111805722Y-105829680D02*
X111900960Y-105924919D01*
X111900960Y-105924919D02*
X111996198Y-105829680D01*
X111996198Y-105829680D02*
X111900960Y-105734442D01*
X111900960Y-105734442D02*
X111900960Y-105924919D01*
X135377153Y-110192538D02*
X135377153Y-108192538D01*
X135377153Y-108192538D02*
X134710486Y-109621109D01*
X134710486Y-109621109D02*
X134043820Y-108192538D01*
X134043820Y-108192538D02*
X134043820Y-110192538D01*
X132805725Y-110192538D02*
X132996201Y-110097300D01*
X132996201Y-110097300D02*
X133091439Y-110002061D01*
X133091439Y-110002061D02*
X133186677Y-109811585D01*
X133186677Y-109811585D02*
X133186677Y-109240157D01*
X133186677Y-109240157D02*
X133091439Y-109049680D01*
X133091439Y-109049680D02*
X132996201Y-108954442D01*
X132996201Y-108954442D02*
X132805725Y-108859204D01*
X132805725Y-108859204D02*
X132520010Y-108859204D01*
X132520010Y-108859204D02*
X132329534Y-108954442D01*
X132329534Y-108954442D02*
X132234296Y-109049680D01*
X132234296Y-109049680D02*
X132139058Y-109240157D01*
X132139058Y-109240157D02*
X132139058Y-109811585D01*
X132139058Y-109811585D02*
X132234296Y-110002061D01*
X132234296Y-110002061D02*
X132329534Y-110097300D01*
X132329534Y-110097300D02*
X132520010Y-110192538D01*
X132520010Y-110192538D02*
X132805725Y-110192538D01*
X131281915Y-108859204D02*
X131281915Y-110192538D01*
X131281915Y-109049680D02*
X131186677Y-108954442D01*
X131186677Y-108954442D02*
X130996201Y-108859204D01*
X130996201Y-108859204D02*
X130710486Y-108859204D01*
X130710486Y-108859204D02*
X130520010Y-108954442D01*
X130520010Y-108954442D02*
X130424772Y-109144919D01*
X130424772Y-109144919D02*
X130424772Y-110192538D01*
X129472391Y-110192538D02*
X129472391Y-108859204D01*
X129472391Y-108192538D02*
X129567629Y-108287776D01*
X129567629Y-108287776D02*
X129472391Y-108383014D01*
X129472391Y-108383014D02*
X129377153Y-108287776D01*
X129377153Y-108287776D02*
X129472391Y-108192538D01*
X129472391Y-108192538D02*
X129472391Y-108383014D01*
X128805724Y-108859204D02*
X128043820Y-108859204D01*
X128520010Y-108192538D02*
X128520010Y-109906823D01*
X128520010Y-109906823D02*
X128424772Y-110097300D01*
X128424772Y-110097300D02*
X128234296Y-110192538D01*
X128234296Y-110192538D02*
X128043820Y-110192538D01*
X127091439Y-110192538D02*
X127281915Y-110097300D01*
X127281915Y-110097300D02*
X127377153Y-110002061D01*
X127377153Y-110002061D02*
X127472391Y-109811585D01*
X127472391Y-109811585D02*
X127472391Y-109240157D01*
X127472391Y-109240157D02*
X127377153Y-109049680D01*
X127377153Y-109049680D02*
X127281915Y-108954442D01*
X127281915Y-108954442D02*
X127091439Y-108859204D01*
X127091439Y-108859204D02*
X126805724Y-108859204D01*
X126805724Y-108859204D02*
X126615248Y-108954442D01*
X126615248Y-108954442D02*
X126520010Y-109049680D01*
X126520010Y-109049680D02*
X126424772Y-109240157D01*
X126424772Y-109240157D02*
X126424772Y-109811585D01*
X126424772Y-109811585D02*
X126520010Y-110002061D01*
X126520010Y-110002061D02*
X126615248Y-110097300D01*
X126615248Y-110097300D02*
X126805724Y-110192538D01*
X126805724Y-110192538D02*
X127091439Y-110192538D01*
X125567629Y-110192538D02*
X125567629Y-108859204D01*
X125567629Y-109240157D02*
X125472391Y-109049680D01*
X125472391Y-109049680D02*
X125377153Y-108954442D01*
X125377153Y-108954442D02*
X125186677Y-108859204D01*
X125186677Y-108859204D02*
X124996200Y-108859204D01*
X124329534Y-110192538D02*
X124329534Y-108859204D01*
X124329534Y-108192538D02*
X124424772Y-108287776D01*
X124424772Y-108287776D02*
X124329534Y-108383014D01*
X124329534Y-108383014D02*
X124234296Y-108287776D01*
X124234296Y-108287776D02*
X124329534Y-108192538D01*
X124329534Y-108192538D02*
X124329534Y-108383014D01*
X123377153Y-108859204D02*
X123377153Y-110192538D01*
X123377153Y-109049680D02*
X123281915Y-108954442D01*
X123281915Y-108954442D02*
X123091439Y-108859204D01*
X123091439Y-108859204D02*
X122805724Y-108859204D01*
X122805724Y-108859204D02*
X122615248Y-108954442D01*
X122615248Y-108954442D02*
X122520010Y-109144919D01*
X122520010Y-109144919D02*
X122520010Y-110192538D01*
X120710486Y-108859204D02*
X120710486Y-110478252D01*
X120710486Y-110478252D02*
X120805724Y-110668728D01*
X120805724Y-110668728D02*
X120900962Y-110763966D01*
X120900962Y-110763966D02*
X121091439Y-110859204D01*
X121091439Y-110859204D02*
X121377153Y-110859204D01*
X121377153Y-110859204D02*
X121567629Y-110763966D01*
X120710486Y-110097300D02*
X120900962Y-110192538D01*
X120900962Y-110192538D02*
X121281915Y-110192538D01*
X121281915Y-110192538D02*
X121472391Y-110097300D01*
X121472391Y-110097300D02*
X121567629Y-110002061D01*
X121567629Y-110002061D02*
X121662867Y-109811585D01*
X121662867Y-109811585D02*
X121662867Y-109240157D01*
X121662867Y-109240157D02*
X121567629Y-109049680D01*
X121567629Y-109049680D02*
X121472391Y-108954442D01*
X121472391Y-108954442D02*
X121281915Y-108859204D01*
X121281915Y-108859204D02*
X120900962Y-108859204D01*
X120900962Y-108859204D02*
X120710486Y-108954442D01*
X118329533Y-110097300D02*
X118043819Y-110192538D01*
X118043819Y-110192538D02*
X117567628Y-110192538D01*
X117567628Y-110192538D02*
X117377152Y-110097300D01*
X117377152Y-110097300D02*
X117281914Y-110002061D01*
X117281914Y-110002061D02*
X117186676Y-109811585D01*
X117186676Y-109811585D02*
X117186676Y-109621109D01*
X117186676Y-109621109D02*
X117281914Y-109430633D01*
X117281914Y-109430633D02*
X117377152Y-109335395D01*
X117377152Y-109335395D02*
X117567628Y-109240157D01*
X117567628Y-109240157D02*
X117948581Y-109144919D01*
X117948581Y-109144919D02*
X118139057Y-109049680D01*
X118139057Y-109049680D02*
X118234295Y-108954442D01*
X118234295Y-108954442D02*
X118329533Y-108763966D01*
X118329533Y-108763966D02*
X118329533Y-108573490D01*
X118329533Y-108573490D02*
X118234295Y-108383014D01*
X118234295Y-108383014D02*
X118139057Y-108287776D01*
X118139057Y-108287776D02*
X117948581Y-108192538D01*
X117948581Y-108192538D02*
X117472390Y-108192538D01*
X117472390Y-108192538D02*
X117186676Y-108287776D01*
X116520009Y-108859204D02*
X116043819Y-110192538D01*
X115567628Y-108859204D02*
X116043819Y-110192538D01*
X116043819Y-110192538D02*
X116234295Y-110668728D01*
X116234295Y-110668728D02*
X116329533Y-110763966D01*
X116329533Y-110763966D02*
X116520009Y-110859204D01*
X114900961Y-110097300D02*
X114710485Y-110192538D01*
X114710485Y-110192538D02*
X114329533Y-110192538D01*
X114329533Y-110192538D02*
X114139056Y-110097300D01*
X114139056Y-110097300D02*
X114043818Y-109906823D01*
X114043818Y-109906823D02*
X114043818Y-109811585D01*
X114043818Y-109811585D02*
X114139056Y-109621109D01*
X114139056Y-109621109D02*
X114329533Y-109525871D01*
X114329533Y-109525871D02*
X114615247Y-109525871D01*
X114615247Y-109525871D02*
X114805723Y-109430633D01*
X114805723Y-109430633D02*
X114900961Y-109240157D01*
X114900961Y-109240157D02*
X114900961Y-109144919D01*
X114900961Y-109144919D02*
X114805723Y-108954442D01*
X114805723Y-108954442D02*
X114615247Y-108859204D01*
X114615247Y-108859204D02*
X114329533Y-108859204D01*
X114329533Y-108859204D02*
X114139056Y-108954442D01*
X113472389Y-108859204D02*
X112710485Y-108859204D01*
X113186675Y-108192538D02*
X113186675Y-109906823D01*
X113186675Y-109906823D02*
X113091437Y-110097300D01*
X113091437Y-110097300D02*
X112900961Y-110192538D01*
X112900961Y-110192538D02*
X112710485Y-110192538D01*
X111281913Y-110097300D02*
X111472389Y-110192538D01*
X111472389Y-110192538D02*
X111853342Y-110192538D01*
X111853342Y-110192538D02*
X112043818Y-110097300D01*
X112043818Y-110097300D02*
X112139056Y-109906823D01*
X112139056Y-109906823D02*
X112139056Y-109144919D01*
X112139056Y-109144919D02*
X112043818Y-108954442D01*
X112043818Y-108954442D02*
X111853342Y-108859204D01*
X111853342Y-108859204D02*
X111472389Y-108859204D01*
X111472389Y-108859204D02*
X111281913Y-108954442D01*
X111281913Y-108954442D02*
X111186675Y-109144919D01*
X111186675Y-109144919D02*
X111186675Y-109335395D01*
X111186675Y-109335395D02*
X112139056Y-109525871D01*
X110329532Y-110192538D02*
X110329532Y-108859204D01*
X110329532Y-109049680D02*
X110234294Y-108954442D01*
X110234294Y-108954442D02*
X110043818Y-108859204D01*
X110043818Y-108859204D02*
X109758103Y-108859204D01*
X109758103Y-108859204D02*
X109567627Y-108954442D01*
X109567627Y-108954442D02*
X109472389Y-109144919D01*
X109472389Y-109144919D02*
X109472389Y-110192538D01*
X109472389Y-109144919D02*
X109377151Y-108954442D01*
X109377151Y-108954442D02*
X109186675Y-108859204D01*
X109186675Y-108859204D02*
X108900961Y-108859204D01*
X108900961Y-108859204D02*
X108710484Y-108954442D01*
X108710484Y-108954442D02*
X108615246Y-109144919D01*
X108615246Y-109144919D02*
X108615246Y-110192538D01*
D13*
%TO.P,J4,1,Pin_1*%
%TO.N,Net-(J1-Pad1)*%
X110754000Y-81128000D03*
D14*
%TO.P,J4,2,Pin_2*%
%TO.N,Net-(J1-Pad2)*%
X113294000Y-81128000D03*
%TO.P,J4,3,Pin_3*%
%TO.N,Net-(J4-Pad3)*%
X115834000Y-81128000D03*
%TO.P,J4,4,Pin_4*%
%TO.N,Net-(J4-Pad4)*%
X118374000Y-81128000D03*
%TD*%
D13*
%TO.P,J5,1,Pin_1*%
%TO.N,Net-(J1-Pad1)*%
X110886000Y-69190000D03*
D14*
%TO.P,J5,2,Pin_2*%
%TO.N,Net-(J1-Pad2)*%
X113426000Y-69190000D03*
%TO.P,J5,3,Pin_3*%
%TO.N,Net-(J5-Pad3)*%
X115966000Y-69190000D03*
%TD*%
D13*
%TO.P,J6,1,Pin_1*%
%TO.N,Net-(J6-Pad1)*%
X163591000Y-94209000D03*
D14*
%TO.P,J6,2,Pin_2*%
%TO.N,Net-(J1-Pad2)*%
X166131000Y-94209000D03*
%TO.P,J6,3,Pin_3*%
%TO.N,Net-(J6-Pad3)*%
X168671000Y-94209000D03*
%TD*%
D13*
%TO.P,J7,1,Pin_1*%
%TO.N,Net-(J1-Pad1)*%
X110739000Y-94107000D03*
D14*
%TO.P,J7,2,Pin_2*%
%TO.N,Net-(J1-Pad2)*%
X113279000Y-94107000D03*
%TD*%
D15*
%TO.P,U1,1,3V3*%
%TO.N,Net-(J6-Pad1)*%
X152400000Y-89175000D03*
D16*
%TO.P,U1,2,GND*%
%TO.N,Net-(J3-Pad2)*%
X152400000Y-86635000D03*
%TO.P,U1,3,D15*%
%TO.N,unconnected-(U1-Pad3)*%
X152400000Y-84095000D03*
%TO.P,U1,4,D2*%
%TO.N,unconnected-(U1-Pad4)*%
X152400000Y-81555000D03*
%TO.P,U1,5,D4*%
%TO.N,unconnected-(U1-Pad5)*%
X152400000Y-79015000D03*
%TO.P,U1,6,RX2*%
%TO.N,Net-(U1-Pad6)*%
X152400000Y-76475000D03*
%TO.P,U1,7,TX2*%
%TO.N,Net-(U1-Pad7)*%
X152400000Y-73935000D03*
%TO.P,U1,8,D5*%
%TO.N,unconnected-(U1-Pad8)*%
X152400000Y-71395000D03*
%TO.P,U1,9,D18*%
%TO.N,Net-(U1-Pad9)*%
X152400000Y-68855000D03*
%TO.P,U1,10,D19*%
%TO.N,Net-(J6-Pad3)*%
X152400000Y-66315000D03*
%TO.P,U1,11,D21*%
%TO.N,unconnected-(U1-Pad11)*%
X152400000Y-63775000D03*
%TO.P,U1,12,RX0*%
%TO.N,unconnected-(U1-Pad12)*%
X152400000Y-61235000D03*
%TO.P,U1,13,TX0*%
%TO.N,unconnected-(U1-Pad13)*%
X152400000Y-58695000D03*
%TO.P,U1,14,D22*%
%TO.N,Net-(U1-Pad14)*%
X152400000Y-56155000D03*
%TO.P,U1,15,D23*%
%TO.N,unconnected-(U1-Pad15)*%
X152400000Y-53615000D03*
%TO.P,U1,16,EN*%
%TO.N,unconnected-(U1-Pad16)*%
X127000000Y-53615000D03*
%TO.P,U1,17,VP*%
%TO.N,Net-(J3-Pad4)*%
X127000000Y-56155000D03*
%TO.P,U1,18,VN*%
%TO.N,unconnected-(U1-Pad18)*%
X127000000Y-58695000D03*
%TO.P,U1,19,D34*%
%TO.N,unconnected-(U1-Pad19)*%
X127000000Y-61235000D03*
%TO.P,U1,20,D35*%
%TO.N,unconnected-(U1-Pad20)*%
X127000000Y-63775000D03*
%TO.P,U1,21,D32*%
%TO.N,unconnected-(U1-Pad21)*%
X127000000Y-66315000D03*
%TO.P,U1,22,D33*%
%TO.N,Net-(U1-Pad22)*%
X127000000Y-68855000D03*
%TO.P,U1,23,D25*%
%TO.N,unconnected-(U1-Pad23)*%
X127000000Y-71395000D03*
%TO.P,U1,24,D26*%
%TO.N,unconnected-(U1-Pad24)*%
X127000000Y-73935000D03*
%TO.P,U1,25,D27*%
%TO.N,unconnected-(U1-Pad25)*%
X127000000Y-76475000D03*
%TO.P,U1,26,D14*%
%TO.N,unconnected-(U1-Pad26)*%
X127000000Y-79015000D03*
%TO.P,U1,27,D12*%
%TO.N,Net-(U1-Pad27)*%
X127000000Y-81555000D03*
%TO.P,U1,28,D13*%
%TO.N,Net-(U1-Pad28)*%
X127000000Y-84095000D03*
%TO.P,U1,29,GND*%
%TO.N,Net-(J3-Pad2)*%
X127000000Y-86635000D03*
%TO.P,U1,30,VIN*%
%TO.N,Net-(J3-Pad1)*%
X127000000Y-89175000D03*
%TD*%
D13*
%TO.P,J3,1,Pin_1*%
%TO.N,Net-(J1-Pad1)*%
X110881000Y-56109000D03*
D14*
%TO.P,J3,2,Pin_2*%
%TO.N,Net-(J1-Pad2)*%
X113421000Y-56109000D03*
%TO.P,J3,3,Pin_3*%
%TO.N,unconnected-(J3-Pad3)*%
X115961000Y-56109000D03*
%TO.P,J3,4,Pin_4*%
%TO.N,Net-(J3-Pad4)*%
X118501000Y-56109000D03*
%TD*%
D13*
%TO.P,J1,1,Pin_1*%
%TO.N,Net-(J1-Pad1)*%
X168656000Y-76860000D03*
D14*
%TO.P,J1,2,Pin_2*%
%TO.N,Net-(J1-Pad2)*%
X166116000Y-76860000D03*
%TO.P,J1,3,Pin_3*%
%TO.N,Net-(J1-Pad3)*%
X163576000Y-76860000D03*
%TO.P,J1,4,Pin_4*%
%TO.N,Net-(J1-Pad4)*%
X161036000Y-76860000D03*
%TD*%
D13*
%TO.P,J2,1,Pin_1*%
%TO.N,Net-(J1-Pad1)*%
X168656000Y-54610000D03*
D14*
%TO.P,J2,2,Pin_2*%
%TO.N,Net-(J1-Pad2)*%
X166116000Y-54610000D03*
%TO.P,J2,3,Pin_3*%
%TO.N,Net-(J2-Pad3)*%
X163576000Y-54610000D03*
%TD*%
D17*
%TO.P,R1,1*%
%TO.N,Net-(J8-Pad2)*%
X157480000Y-63500000D03*
D18*
%TO.P,R1,2*%
%TO.N,Net-(J1-Pad1)*%
X172720000Y-63500000D03*
%TD*%
D13*
%TO.P,J8,1,Pin_1*%
%TO.N,Net-(J1-Pad2)*%
X159786000Y-68174000D03*
D14*
%TO.P,J8,2,Pin_2*%
%TO.N,Net-(J8-Pad2)*%
X162326000Y-68174000D03*
%TD*%
M02*
