%TF.GenerationSoftware,KiCad,Pcbnew,7.0.10*%
%TF.CreationDate,2024-02-21T12:35:32+05:00*%
%TF.ProjectId,Circuit for 2nd Milestone,43697263-7569-4742-9066-6f7220326e64,rev?*%
%TF.SameCoordinates,Original*%
%TF.FileFunction,Copper,L1,Top*%
%TF.FilePolarity,Positive*%
%FSLAX46Y46*%
G04 Gerber Fmt 4.6, Leading zero omitted, Abs format (unit mm)*
G04 Created by KiCad (PCBNEW 7.0.10) date 2024-02-21 12:35:32*
%MOMM*%
%LPD*%
G01*
G04 APERTURE LIST*
%ADD10C,0.300000*%
%TA.AperFunction,NonConductor*%
%ADD11C,0.300000*%
%TD*%
%TA.AperFunction,ComponentPad*%
%ADD12R,1.700000X1.700000*%
%TD*%
%TA.AperFunction,ComponentPad*%
%ADD13O,1.700000X1.700000*%
%TD*%
%TA.AperFunction,ComponentPad*%
%ADD14R,2.000000X2.000000*%
%TD*%
%TA.AperFunction,ComponentPad*%
%ADD15C,2.000000*%
%TD*%
%TA.AperFunction,ComponentPad*%
%ADD16C,2.400000*%
%TD*%
%TA.AperFunction,ComponentPad*%
%ADD17O,2.400000X2.400000*%
%TD*%
%TA.AperFunction,Conductor*%
%ADD18C,1.500000*%
%TD*%
G04 APERTURE END LIST*
D10*
D11*
X107739328Y-91269714D02*
X106239328Y-91269714D01*
X106239328Y-91269714D02*
X106239328Y-91841143D01*
X106239328Y-91841143D02*
X106310757Y-91984000D01*
X106310757Y-91984000D02*
X106382185Y-92055429D01*
X106382185Y-92055429D02*
X106525042Y-92126857D01*
X106525042Y-92126857D02*
X106739328Y-92126857D01*
X106739328Y-92126857D02*
X106882185Y-92055429D01*
X106882185Y-92055429D02*
X106953614Y-91984000D01*
X106953614Y-91984000D02*
X107025042Y-91841143D01*
X107025042Y-91841143D02*
X107025042Y-91269714D01*
X107739328Y-92984000D02*
X107667900Y-92841143D01*
X107667900Y-92841143D02*
X107596471Y-92769714D01*
X107596471Y-92769714D02*
X107453614Y-92698286D01*
X107453614Y-92698286D02*
X107025042Y-92698286D01*
X107025042Y-92698286D02*
X106882185Y-92769714D01*
X106882185Y-92769714D02*
X106810757Y-92841143D01*
X106810757Y-92841143D02*
X106739328Y-92984000D01*
X106739328Y-92984000D02*
X106739328Y-93198286D01*
X106739328Y-93198286D02*
X106810757Y-93341143D01*
X106810757Y-93341143D02*
X106882185Y-93412572D01*
X106882185Y-93412572D02*
X107025042Y-93484000D01*
X107025042Y-93484000D02*
X107453614Y-93484000D01*
X107453614Y-93484000D02*
X107596471Y-93412572D01*
X107596471Y-93412572D02*
X107667900Y-93341143D01*
X107667900Y-93341143D02*
X107739328Y-93198286D01*
X107739328Y-93198286D02*
X107739328Y-92984000D01*
X106739328Y-93984000D02*
X107739328Y-94269715D01*
X107739328Y-94269715D02*
X107025042Y-94555429D01*
X107025042Y-94555429D02*
X107739328Y-94841143D01*
X107739328Y-94841143D02*
X106739328Y-95126857D01*
X107667900Y-96269715D02*
X107739328Y-96126858D01*
X107739328Y-96126858D02*
X107739328Y-95841144D01*
X107739328Y-95841144D02*
X107667900Y-95698286D01*
X107667900Y-95698286D02*
X107525042Y-95626858D01*
X107525042Y-95626858D02*
X106953614Y-95626858D01*
X106953614Y-95626858D02*
X106810757Y-95698286D01*
X106810757Y-95698286D02*
X106739328Y-95841144D01*
X106739328Y-95841144D02*
X106739328Y-96126858D01*
X106739328Y-96126858D02*
X106810757Y-96269715D01*
X106810757Y-96269715D02*
X106953614Y-96341144D01*
X106953614Y-96341144D02*
X107096471Y-96341144D01*
X107096471Y-96341144D02*
X107239328Y-95626858D01*
X107739328Y-96984000D02*
X106739328Y-96984000D01*
X107025042Y-96984000D02*
X106882185Y-97055429D01*
X106882185Y-97055429D02*
X106810757Y-97126858D01*
X106810757Y-97126858D02*
X106739328Y-97269715D01*
X106739328Y-97269715D02*
X106739328Y-97412572D01*
D10*
D11*
X106112328Y-75668856D02*
X107326614Y-75668856D01*
X107326614Y-75668856D02*
X107469471Y-75740285D01*
X107469471Y-75740285D02*
X107540900Y-75811714D01*
X107540900Y-75811714D02*
X107612328Y-75954571D01*
X107612328Y-75954571D02*
X107612328Y-76240285D01*
X107612328Y-76240285D02*
X107540900Y-76383142D01*
X107540900Y-76383142D02*
X107469471Y-76454571D01*
X107469471Y-76454571D02*
X107326614Y-76525999D01*
X107326614Y-76525999D02*
X106112328Y-76525999D01*
X107612328Y-77454571D02*
X107540900Y-77311714D01*
X107540900Y-77311714D02*
X107398042Y-77240285D01*
X107398042Y-77240285D02*
X106112328Y-77240285D01*
X106612328Y-77811714D02*
X106612328Y-78383142D01*
X106112328Y-78025999D02*
X107398042Y-78025999D01*
X107398042Y-78025999D02*
X107540900Y-78097428D01*
X107540900Y-78097428D02*
X107612328Y-78240285D01*
X107612328Y-78240285D02*
X107612328Y-78383142D01*
X107612328Y-78883142D02*
X106612328Y-78883142D01*
X106898042Y-78883142D02*
X106755185Y-78954571D01*
X106755185Y-78954571D02*
X106683757Y-79026000D01*
X106683757Y-79026000D02*
X106612328Y-79168857D01*
X106612328Y-79168857D02*
X106612328Y-79311714D01*
X107612328Y-80454571D02*
X106826614Y-80454571D01*
X106826614Y-80454571D02*
X106683757Y-80383142D01*
X106683757Y-80383142D02*
X106612328Y-80240285D01*
X106612328Y-80240285D02*
X106612328Y-79954571D01*
X106612328Y-79954571D02*
X106683757Y-79811713D01*
X107540900Y-80454571D02*
X107612328Y-80311713D01*
X107612328Y-80311713D02*
X107612328Y-79954571D01*
X107612328Y-79954571D02*
X107540900Y-79811713D01*
X107540900Y-79811713D02*
X107398042Y-79740285D01*
X107398042Y-79740285D02*
X107255185Y-79740285D01*
X107255185Y-79740285D02*
X107112328Y-79811713D01*
X107112328Y-79811713D02*
X107040900Y-79954571D01*
X107040900Y-79954571D02*
X107040900Y-80311713D01*
X107040900Y-80311713D02*
X106969471Y-80454571D01*
X107540900Y-81097428D02*
X107612328Y-81240285D01*
X107612328Y-81240285D02*
X107612328Y-81525999D01*
X107612328Y-81525999D02*
X107540900Y-81668856D01*
X107540900Y-81668856D02*
X107398042Y-81740285D01*
X107398042Y-81740285D02*
X107326614Y-81740285D01*
X107326614Y-81740285D02*
X107183757Y-81668856D01*
X107183757Y-81668856D02*
X107112328Y-81525999D01*
X107112328Y-81525999D02*
X107112328Y-81311714D01*
X107112328Y-81311714D02*
X107040900Y-81168856D01*
X107040900Y-81168856D02*
X106898042Y-81097428D01*
X106898042Y-81097428D02*
X106826614Y-81097428D01*
X106826614Y-81097428D02*
X106683757Y-81168856D01*
X106683757Y-81168856D02*
X106612328Y-81311714D01*
X106612328Y-81311714D02*
X106612328Y-81525999D01*
X106612328Y-81525999D02*
X106683757Y-81668856D01*
X107612328Y-82597428D02*
X107540900Y-82454571D01*
X107540900Y-82454571D02*
X107469471Y-82383142D01*
X107469471Y-82383142D02*
X107326614Y-82311714D01*
X107326614Y-82311714D02*
X106898042Y-82311714D01*
X106898042Y-82311714D02*
X106755185Y-82383142D01*
X106755185Y-82383142D02*
X106683757Y-82454571D01*
X106683757Y-82454571D02*
X106612328Y-82597428D01*
X106612328Y-82597428D02*
X106612328Y-82811714D01*
X106612328Y-82811714D02*
X106683757Y-82954571D01*
X106683757Y-82954571D02*
X106755185Y-83026000D01*
X106755185Y-83026000D02*
X106898042Y-83097428D01*
X106898042Y-83097428D02*
X107326614Y-83097428D01*
X107326614Y-83097428D02*
X107469471Y-83026000D01*
X107469471Y-83026000D02*
X107540900Y-82954571D01*
X107540900Y-82954571D02*
X107612328Y-82811714D01*
X107612328Y-82811714D02*
X107612328Y-82597428D01*
X106612328Y-83740285D02*
X107612328Y-83740285D01*
X106755185Y-83740285D02*
X106683757Y-83811714D01*
X106683757Y-83811714D02*
X106612328Y-83954571D01*
X106612328Y-83954571D02*
X106612328Y-84168857D01*
X106612328Y-84168857D02*
X106683757Y-84311714D01*
X106683757Y-84311714D02*
X106826614Y-84383143D01*
X106826614Y-84383143D02*
X107612328Y-84383143D01*
X107612328Y-85097428D02*
X106612328Y-85097428D01*
X106112328Y-85097428D02*
X106183757Y-85026000D01*
X106183757Y-85026000D02*
X106255185Y-85097428D01*
X106255185Y-85097428D02*
X106183757Y-85168857D01*
X106183757Y-85168857D02*
X106112328Y-85097428D01*
X106112328Y-85097428D02*
X106255185Y-85097428D01*
X107540900Y-86454572D02*
X107612328Y-86311714D01*
X107612328Y-86311714D02*
X107612328Y-86026000D01*
X107612328Y-86026000D02*
X107540900Y-85883143D01*
X107540900Y-85883143D02*
X107469471Y-85811714D01*
X107469471Y-85811714D02*
X107326614Y-85740286D01*
X107326614Y-85740286D02*
X106898042Y-85740286D01*
X106898042Y-85740286D02*
X106755185Y-85811714D01*
X106755185Y-85811714D02*
X106683757Y-85883143D01*
X106683757Y-85883143D02*
X106612328Y-86026000D01*
X106612328Y-86026000D02*
X106612328Y-86311714D01*
X106612328Y-86311714D02*
X106683757Y-86454572D01*
D10*
D11*
X106898042Y-64826001D02*
X107612328Y-64826001D01*
X106112328Y-64326001D02*
X106898042Y-64826001D01*
X106898042Y-64826001D02*
X106112328Y-65326001D01*
X106826614Y-66326000D02*
X106826614Y-65826000D01*
X107612328Y-65826000D02*
X106112328Y-65826000D01*
X106112328Y-65826000D02*
X106112328Y-66540286D01*
X107540900Y-67040286D02*
X107612328Y-67254572D01*
X107612328Y-67254572D02*
X107612328Y-67611714D01*
X107612328Y-67611714D02*
X107540900Y-67754572D01*
X107540900Y-67754572D02*
X107469471Y-67826000D01*
X107469471Y-67826000D02*
X107326614Y-67897429D01*
X107326614Y-67897429D02*
X107183757Y-67897429D01*
X107183757Y-67897429D02*
X107040900Y-67826000D01*
X107040900Y-67826000D02*
X106969471Y-67754572D01*
X106969471Y-67754572D02*
X106898042Y-67611714D01*
X106898042Y-67611714D02*
X106826614Y-67326000D01*
X106826614Y-67326000D02*
X106755185Y-67183143D01*
X106755185Y-67183143D02*
X106683757Y-67111714D01*
X106683757Y-67111714D02*
X106540900Y-67040286D01*
X106540900Y-67040286D02*
X106398042Y-67040286D01*
X106398042Y-67040286D02*
X106255185Y-67111714D01*
X106255185Y-67111714D02*
X106183757Y-67183143D01*
X106183757Y-67183143D02*
X106112328Y-67326000D01*
X106112328Y-67326000D02*
X106112328Y-67683143D01*
X106112328Y-67683143D02*
X106183757Y-67897429D01*
X106255185Y-68468857D02*
X106183757Y-68540285D01*
X106183757Y-68540285D02*
X106112328Y-68683143D01*
X106112328Y-68683143D02*
X106112328Y-69040285D01*
X106112328Y-69040285D02*
X106183757Y-69183143D01*
X106183757Y-69183143D02*
X106255185Y-69254571D01*
X106255185Y-69254571D02*
X106398042Y-69326000D01*
X106398042Y-69326000D02*
X106540900Y-69326000D01*
X106540900Y-69326000D02*
X106755185Y-69254571D01*
X106755185Y-69254571D02*
X107612328Y-68397428D01*
X107612328Y-68397428D02*
X107612328Y-69326000D01*
X106112328Y-70254571D02*
X106112328Y-70397428D01*
X106112328Y-70397428D02*
X106183757Y-70540285D01*
X106183757Y-70540285D02*
X106255185Y-70611714D01*
X106255185Y-70611714D02*
X106398042Y-70683142D01*
X106398042Y-70683142D02*
X106683757Y-70754571D01*
X106683757Y-70754571D02*
X107040900Y-70754571D01*
X107040900Y-70754571D02*
X107326614Y-70683142D01*
X107326614Y-70683142D02*
X107469471Y-70611714D01*
X107469471Y-70611714D02*
X107540900Y-70540285D01*
X107540900Y-70540285D02*
X107612328Y-70397428D01*
X107612328Y-70397428D02*
X107612328Y-70254571D01*
X107612328Y-70254571D02*
X107540900Y-70111714D01*
X107540900Y-70111714D02*
X107469471Y-70040285D01*
X107469471Y-70040285D02*
X107326614Y-69968856D01*
X107326614Y-69968856D02*
X107040900Y-69897428D01*
X107040900Y-69897428D02*
X106683757Y-69897428D01*
X106683757Y-69897428D02*
X106398042Y-69968856D01*
X106398042Y-69968856D02*
X106255185Y-70040285D01*
X106255185Y-70040285D02*
X106183757Y-70111714D01*
X106183757Y-70111714D02*
X106112328Y-70254571D01*
X107612328Y-72183142D02*
X107612328Y-71325999D01*
X107612328Y-71754570D02*
X106112328Y-71754570D01*
X106112328Y-71754570D02*
X106326614Y-71611713D01*
X106326614Y-71611713D02*
X106469471Y-71468856D01*
X106469471Y-71468856D02*
X106540900Y-71325999D01*
D10*
D11*
X172382328Y-92031571D02*
X171668042Y-91531571D01*
X172382328Y-91174428D02*
X170882328Y-91174428D01*
X170882328Y-91174428D02*
X170882328Y-91745857D01*
X170882328Y-91745857D02*
X170953757Y-91888714D01*
X170953757Y-91888714D02*
X171025185Y-91960143D01*
X171025185Y-91960143D02*
X171168042Y-92031571D01*
X171168042Y-92031571D02*
X171382328Y-92031571D01*
X171382328Y-92031571D02*
X171525185Y-91960143D01*
X171525185Y-91960143D02*
X171596614Y-91888714D01*
X171596614Y-91888714D02*
X171668042Y-91745857D01*
X171668042Y-91745857D02*
X171668042Y-91174428D01*
X172310900Y-93245857D02*
X172382328Y-93103000D01*
X172382328Y-93103000D02*
X172382328Y-92817286D01*
X172382328Y-92817286D02*
X172310900Y-92674428D01*
X172310900Y-92674428D02*
X172168042Y-92603000D01*
X172168042Y-92603000D02*
X171596614Y-92603000D01*
X171596614Y-92603000D02*
X171453757Y-92674428D01*
X171453757Y-92674428D02*
X171382328Y-92817286D01*
X171382328Y-92817286D02*
X171382328Y-93103000D01*
X171382328Y-93103000D02*
X171453757Y-93245857D01*
X171453757Y-93245857D02*
X171596614Y-93317286D01*
X171596614Y-93317286D02*
X171739471Y-93317286D01*
X171739471Y-93317286D02*
X171882328Y-92603000D01*
X172382328Y-94174428D02*
X172310900Y-94031571D01*
X172310900Y-94031571D02*
X172168042Y-93960142D01*
X172168042Y-93960142D02*
X170882328Y-93960142D01*
X172382328Y-95388714D02*
X171596614Y-95388714D01*
X171596614Y-95388714D02*
X171453757Y-95317285D01*
X171453757Y-95317285D02*
X171382328Y-95174428D01*
X171382328Y-95174428D02*
X171382328Y-94888714D01*
X171382328Y-94888714D02*
X171453757Y-94745856D01*
X172310900Y-95388714D02*
X172382328Y-95245856D01*
X172382328Y-95245856D02*
X172382328Y-94888714D01*
X172382328Y-94888714D02*
X172310900Y-94745856D01*
X172310900Y-94745856D02*
X172168042Y-94674428D01*
X172168042Y-94674428D02*
X172025185Y-94674428D01*
X172025185Y-94674428D02*
X171882328Y-94745856D01*
X171882328Y-94745856D02*
X171810900Y-94888714D01*
X171810900Y-94888714D02*
X171810900Y-95245856D01*
X171810900Y-95245856D02*
X171739471Y-95388714D01*
X171382328Y-95960142D02*
X172382328Y-96317285D01*
X171382328Y-96674428D02*
X172382328Y-96317285D01*
X172382328Y-96317285D02*
X172739471Y-96174428D01*
X172739471Y-96174428D02*
X172810900Y-96102999D01*
X172810900Y-96102999D02*
X172882328Y-95960142D01*
D10*
D11*
X162262000Y-60241328D02*
X162262000Y-58741328D01*
X162262000Y-58741328D02*
X161690571Y-58741328D01*
X161690571Y-58741328D02*
X161547714Y-58812757D01*
X161547714Y-58812757D02*
X161476285Y-58884185D01*
X161476285Y-58884185D02*
X161404857Y-59027042D01*
X161404857Y-59027042D02*
X161404857Y-59241328D01*
X161404857Y-59241328D02*
X161476285Y-59384185D01*
X161476285Y-59384185D02*
X161547714Y-59455614D01*
X161547714Y-59455614D02*
X161690571Y-59527042D01*
X161690571Y-59527042D02*
X162262000Y-59527042D01*
X160119143Y-59241328D02*
X160119143Y-60241328D01*
X160762000Y-59241328D02*
X160762000Y-60027042D01*
X160762000Y-60027042D02*
X160690571Y-60169900D01*
X160690571Y-60169900D02*
X160547714Y-60241328D01*
X160547714Y-60241328D02*
X160333428Y-60241328D01*
X160333428Y-60241328D02*
X160190571Y-60169900D01*
X160190571Y-60169900D02*
X160119143Y-60098471D01*
X159404857Y-60241328D02*
X159404857Y-59241328D01*
X159404857Y-59384185D02*
X159333428Y-59312757D01*
X159333428Y-59312757D02*
X159190571Y-59241328D01*
X159190571Y-59241328D02*
X158976285Y-59241328D01*
X158976285Y-59241328D02*
X158833428Y-59312757D01*
X158833428Y-59312757D02*
X158762000Y-59455614D01*
X158762000Y-59455614D02*
X158762000Y-60241328D01*
X158762000Y-59455614D02*
X158690571Y-59312757D01*
X158690571Y-59312757D02*
X158547714Y-59241328D01*
X158547714Y-59241328D02*
X158333428Y-59241328D01*
X158333428Y-59241328D02*
X158190571Y-59312757D01*
X158190571Y-59312757D02*
X158119142Y-59455614D01*
X158119142Y-59455614D02*
X158119142Y-60241328D01*
X157404857Y-59241328D02*
X157404857Y-60741328D01*
X157404857Y-59312757D02*
X157262000Y-59241328D01*
X157262000Y-59241328D02*
X156976285Y-59241328D01*
X156976285Y-59241328D02*
X156833428Y-59312757D01*
X156833428Y-59312757D02*
X156762000Y-59384185D01*
X156762000Y-59384185D02*
X156690571Y-59527042D01*
X156690571Y-59527042D02*
X156690571Y-59955614D01*
X156690571Y-59955614D02*
X156762000Y-60098471D01*
X156762000Y-60098471D02*
X156833428Y-60169900D01*
X156833428Y-60169900D02*
X156976285Y-60241328D01*
X156976285Y-60241328D02*
X157262000Y-60241328D01*
X157262000Y-60241328D02*
X157404857Y-60169900D01*
D10*
D11*
X170644671Y-50676571D02*
X172144671Y-50676571D01*
X172144671Y-50676571D02*
X172144671Y-50319428D01*
X172144671Y-50319428D02*
X172073242Y-50105142D01*
X172073242Y-50105142D02*
X171930385Y-49962285D01*
X171930385Y-49962285D02*
X171787528Y-49890856D01*
X171787528Y-49890856D02*
X171501814Y-49819428D01*
X171501814Y-49819428D02*
X171287528Y-49819428D01*
X171287528Y-49819428D02*
X171001814Y-49890856D01*
X171001814Y-49890856D02*
X170858957Y-49962285D01*
X170858957Y-49962285D02*
X170716100Y-50105142D01*
X170716100Y-50105142D02*
X170644671Y-50319428D01*
X170644671Y-50319428D02*
X170644671Y-50676571D01*
X170644671Y-49176571D02*
X172144671Y-49176571D01*
X171430385Y-49176571D02*
X171430385Y-48319428D01*
X170644671Y-48319428D02*
X172144671Y-48319428D01*
X172144671Y-47819427D02*
X172144671Y-46962285D01*
X170644671Y-47390856D02*
X172144671Y-47390856D01*
X172001814Y-46533713D02*
X172073242Y-46462285D01*
X172073242Y-46462285D02*
X172144671Y-46319428D01*
X172144671Y-46319428D02*
X172144671Y-45962285D01*
X172144671Y-45962285D02*
X172073242Y-45819428D01*
X172073242Y-45819428D02*
X172001814Y-45747999D01*
X172001814Y-45747999D02*
X171858957Y-45676570D01*
X171858957Y-45676570D02*
X171716100Y-45676570D01*
X171716100Y-45676570D02*
X171501814Y-45747999D01*
X171501814Y-45747999D02*
X170644671Y-46605142D01*
X170644671Y-46605142D02*
X170644671Y-45676570D01*
X172001814Y-45105142D02*
X172073242Y-45033714D01*
X172073242Y-45033714D02*
X172144671Y-44890857D01*
X172144671Y-44890857D02*
X172144671Y-44533714D01*
X172144671Y-44533714D02*
X172073242Y-44390857D01*
X172073242Y-44390857D02*
X172001814Y-44319428D01*
X172001814Y-44319428D02*
X171858957Y-44247999D01*
X171858957Y-44247999D02*
X171716100Y-44247999D01*
X171716100Y-44247999D02*
X171501814Y-44319428D01*
X171501814Y-44319428D02*
X170644671Y-45176571D01*
X170644671Y-45176571D02*
X170644671Y-44247999D01*
D10*
D11*
X143041285Y-64916614D02*
X142541285Y-64916614D01*
X142326999Y-65702328D02*
X143041285Y-65702328D01*
X143041285Y-65702328D02*
X143041285Y-64202328D01*
X143041285Y-64202328D02*
X142326999Y-64202328D01*
X141755570Y-65630900D02*
X141541285Y-65702328D01*
X141541285Y-65702328D02*
X141184142Y-65702328D01*
X141184142Y-65702328D02*
X141041285Y-65630900D01*
X141041285Y-65630900D02*
X140969856Y-65559471D01*
X140969856Y-65559471D02*
X140898427Y-65416614D01*
X140898427Y-65416614D02*
X140898427Y-65273757D01*
X140898427Y-65273757D02*
X140969856Y-65130900D01*
X140969856Y-65130900D02*
X141041285Y-65059471D01*
X141041285Y-65059471D02*
X141184142Y-64988042D01*
X141184142Y-64988042D02*
X141469856Y-64916614D01*
X141469856Y-64916614D02*
X141612713Y-64845185D01*
X141612713Y-64845185D02*
X141684142Y-64773757D01*
X141684142Y-64773757D02*
X141755570Y-64630900D01*
X141755570Y-64630900D02*
X141755570Y-64488042D01*
X141755570Y-64488042D02*
X141684142Y-64345185D01*
X141684142Y-64345185D02*
X141612713Y-64273757D01*
X141612713Y-64273757D02*
X141469856Y-64202328D01*
X141469856Y-64202328D02*
X141112713Y-64202328D01*
X141112713Y-64202328D02*
X140898427Y-64273757D01*
X140255571Y-65702328D02*
X140255571Y-64202328D01*
X140255571Y-64202328D02*
X139684142Y-64202328D01*
X139684142Y-64202328D02*
X139541285Y-64273757D01*
X139541285Y-64273757D02*
X139469856Y-64345185D01*
X139469856Y-64345185D02*
X139398428Y-64488042D01*
X139398428Y-64488042D02*
X139398428Y-64702328D01*
X139398428Y-64702328D02*
X139469856Y-64845185D01*
X139469856Y-64845185D02*
X139541285Y-64916614D01*
X139541285Y-64916614D02*
X139684142Y-64988042D01*
X139684142Y-64988042D02*
X140255571Y-64988042D01*
X138898428Y-64202328D02*
X137969856Y-64202328D01*
X137969856Y-64202328D02*
X138469856Y-64773757D01*
X138469856Y-64773757D02*
X138255571Y-64773757D01*
X138255571Y-64773757D02*
X138112714Y-64845185D01*
X138112714Y-64845185D02*
X138041285Y-64916614D01*
X138041285Y-64916614D02*
X137969856Y-65059471D01*
X137969856Y-65059471D02*
X137969856Y-65416614D01*
X137969856Y-65416614D02*
X138041285Y-65559471D01*
X138041285Y-65559471D02*
X138112714Y-65630900D01*
X138112714Y-65630900D02*
X138255571Y-65702328D01*
X138255571Y-65702328D02*
X138684142Y-65702328D01*
X138684142Y-65702328D02*
X138826999Y-65630900D01*
X138826999Y-65630900D02*
X138898428Y-65559471D01*
X137398428Y-64345185D02*
X137327000Y-64273757D01*
X137327000Y-64273757D02*
X137184143Y-64202328D01*
X137184143Y-64202328D02*
X136827000Y-64202328D01*
X136827000Y-64202328D02*
X136684143Y-64273757D01*
X136684143Y-64273757D02*
X136612714Y-64345185D01*
X136612714Y-64345185D02*
X136541285Y-64488042D01*
X136541285Y-64488042D02*
X136541285Y-64630900D01*
X136541285Y-64630900D02*
X136612714Y-64845185D01*
X136612714Y-64845185D02*
X137469857Y-65702328D01*
X137469857Y-65702328D02*
X136541285Y-65702328D01*
D10*
D11*
X173144328Y-73235857D02*
X171644328Y-73235857D01*
X171644328Y-73235857D02*
X171644328Y-73593000D01*
X171644328Y-73593000D02*
X171715757Y-73807286D01*
X171715757Y-73807286D02*
X171858614Y-73950143D01*
X171858614Y-73950143D02*
X172001471Y-74021572D01*
X172001471Y-74021572D02*
X172287185Y-74093000D01*
X172287185Y-74093000D02*
X172501471Y-74093000D01*
X172501471Y-74093000D02*
X172787185Y-74021572D01*
X172787185Y-74021572D02*
X172930042Y-73950143D01*
X172930042Y-73950143D02*
X173072900Y-73807286D01*
X173072900Y-73807286D02*
X173144328Y-73593000D01*
X173144328Y-73593000D02*
X173144328Y-73235857D01*
X173144328Y-74735857D02*
X171644328Y-74735857D01*
X173072900Y-75378715D02*
X173144328Y-75593001D01*
X173144328Y-75593001D02*
X173144328Y-75950143D01*
X173144328Y-75950143D02*
X173072900Y-76093001D01*
X173072900Y-76093001D02*
X173001471Y-76164429D01*
X173001471Y-76164429D02*
X172858614Y-76235858D01*
X172858614Y-76235858D02*
X172715757Y-76235858D01*
X172715757Y-76235858D02*
X172572900Y-76164429D01*
X172572900Y-76164429D02*
X172501471Y-76093001D01*
X172501471Y-76093001D02*
X172430042Y-75950143D01*
X172430042Y-75950143D02*
X172358614Y-75664429D01*
X172358614Y-75664429D02*
X172287185Y-75521572D01*
X172287185Y-75521572D02*
X172215757Y-75450143D01*
X172215757Y-75450143D02*
X172072900Y-75378715D01*
X172072900Y-75378715D02*
X171930042Y-75378715D01*
X171930042Y-75378715D02*
X171787185Y-75450143D01*
X171787185Y-75450143D02*
X171715757Y-75521572D01*
X171715757Y-75521572D02*
X171644328Y-75664429D01*
X171644328Y-75664429D02*
X171644328Y-76021572D01*
X171644328Y-76021572D02*
X171715757Y-76235858D01*
X173144328Y-76878714D02*
X171644328Y-76878714D01*
X171644328Y-76878714D02*
X171644328Y-77450143D01*
X171644328Y-77450143D02*
X171715757Y-77593000D01*
X171715757Y-77593000D02*
X171787185Y-77664429D01*
X171787185Y-77664429D02*
X171930042Y-77735857D01*
X171930042Y-77735857D02*
X172144328Y-77735857D01*
X172144328Y-77735857D02*
X172287185Y-77664429D01*
X172287185Y-77664429D02*
X172358614Y-77593000D01*
X172358614Y-77593000D02*
X172430042Y-77450143D01*
X172430042Y-77450143D02*
X172430042Y-76878714D01*
X173144328Y-79093000D02*
X173144328Y-78378714D01*
X173144328Y-78378714D02*
X171644328Y-78378714D01*
X172715757Y-79521572D02*
X172715757Y-80235858D01*
X173144328Y-79378715D02*
X171644328Y-79878715D01*
X171644328Y-79878715D02*
X173144328Y-80378715D01*
X172430042Y-81164429D02*
X173144328Y-81164429D01*
X171644328Y-80664429D02*
X172430042Y-81164429D01*
X172430042Y-81164429D02*
X171644328Y-81664429D01*
D10*
D11*
X107739328Y-53086428D02*
X106239328Y-53086428D01*
X106239328Y-53086428D02*
X107310757Y-53586428D01*
X107310757Y-53586428D02*
X106239328Y-54086428D01*
X106239328Y-54086428D02*
X107739328Y-54086428D01*
X107882185Y-55800714D02*
X107810757Y-55657857D01*
X107810757Y-55657857D02*
X107667900Y-55515000D01*
X107667900Y-55515000D02*
X107453614Y-55300714D01*
X107453614Y-55300714D02*
X107382185Y-55157857D01*
X107382185Y-55157857D02*
X107382185Y-55015000D01*
X107739328Y-55086429D02*
X107667900Y-54943572D01*
X107667900Y-54943572D02*
X107525042Y-54800714D01*
X107525042Y-54800714D02*
X107239328Y-54729286D01*
X107239328Y-54729286D02*
X106739328Y-54729286D01*
X106739328Y-54729286D02*
X106453614Y-54800714D01*
X106453614Y-54800714D02*
X106310757Y-54943572D01*
X106310757Y-54943572D02*
X106239328Y-55086429D01*
X106239328Y-55086429D02*
X106239328Y-55372143D01*
X106239328Y-55372143D02*
X106310757Y-55515000D01*
X106310757Y-55515000D02*
X106453614Y-55657857D01*
X106453614Y-55657857D02*
X106739328Y-55729286D01*
X106739328Y-55729286D02*
X107239328Y-55729286D01*
X107239328Y-55729286D02*
X107525042Y-55657857D01*
X107525042Y-55657857D02*
X107667900Y-55515000D01*
X107667900Y-55515000D02*
X107739328Y-55372143D01*
X107739328Y-55372143D02*
X107739328Y-55086429D01*
X107739328Y-57157858D02*
X107739328Y-56300715D01*
X107739328Y-56729286D02*
X106239328Y-56729286D01*
X106239328Y-56729286D02*
X106453614Y-56586429D01*
X106453614Y-56586429D02*
X106596471Y-56443572D01*
X106596471Y-56443572D02*
X106667900Y-56300715D01*
X106239328Y-57657857D02*
X106239328Y-58586429D01*
X106239328Y-58586429D02*
X106810757Y-58086429D01*
X106810757Y-58086429D02*
X106810757Y-58300714D01*
X106810757Y-58300714D02*
X106882185Y-58443572D01*
X106882185Y-58443572D02*
X106953614Y-58515000D01*
X106953614Y-58515000D02*
X107096471Y-58586429D01*
X107096471Y-58586429D02*
X107453614Y-58586429D01*
X107453614Y-58586429D02*
X107596471Y-58515000D01*
X107596471Y-58515000D02*
X107667900Y-58443572D01*
X107667900Y-58443572D02*
X107739328Y-58300714D01*
X107739328Y-58300714D02*
X107739328Y-57872143D01*
X107739328Y-57872143D02*
X107667900Y-57729286D01*
X107667900Y-57729286D02*
X107596471Y-57657857D01*
X106239328Y-59943571D02*
X106239328Y-59229285D01*
X106239328Y-59229285D02*
X106953614Y-59157857D01*
X106953614Y-59157857D02*
X106882185Y-59229285D01*
X106882185Y-59229285D02*
X106810757Y-59372143D01*
X106810757Y-59372143D02*
X106810757Y-59729285D01*
X106810757Y-59729285D02*
X106882185Y-59872143D01*
X106882185Y-59872143D02*
X106953614Y-59943571D01*
X106953614Y-59943571D02*
X107096471Y-60015000D01*
X107096471Y-60015000D02*
X107453614Y-60015000D01*
X107453614Y-60015000D02*
X107596471Y-59943571D01*
X107596471Y-59943571D02*
X107667900Y-59872143D01*
X107667900Y-59872143D02*
X107739328Y-59729285D01*
X107739328Y-59729285D02*
X107739328Y-59372143D01*
X107739328Y-59372143D02*
X107667900Y-59229285D01*
X107667900Y-59229285D02*
X107596471Y-59157857D01*
D12*
%TO.P,J4,1,Pin_1*%
%TO.N,Net-(J1-Pad1)*%
X110754000Y-81128000D03*
D13*
%TO.P,J4,2,Pin_2*%
%TO.N,Net-(J1-Pad2)*%
X113294000Y-81128000D03*
%TO.P,J4,3,Pin_3*%
%TO.N,Net-(J4-Pad3)*%
X115834000Y-81128000D03*
%TO.P,J4,4,Pin_4*%
%TO.N,Net-(J4-Pad4)*%
X118374000Y-81128000D03*
%TD*%
D12*
%TO.P,J5,1,Pin_1*%
%TO.N,Net-(J1-Pad1)*%
X110886000Y-69190000D03*
D13*
%TO.P,J5,2,Pin_2*%
%TO.N,Net-(J1-Pad2)*%
X113426000Y-69190000D03*
%TO.P,J5,3,Pin_3*%
%TO.N,Net-(J5-Pad3)*%
X115966000Y-69190000D03*
%TD*%
D12*
%TO.P,J6,1,Pin_1*%
%TO.N,Net-(J6-Pad1)*%
X163591000Y-94209000D03*
D13*
%TO.P,J6,2,Pin_2*%
%TO.N,Net-(J1-Pad2)*%
X166131000Y-94209000D03*
%TO.P,J6,3,Pin_3*%
%TO.N,Net-(J6-Pad3)*%
X168671000Y-94209000D03*
%TD*%
D12*
%TO.P,J7,1,Pin_1*%
%TO.N,Net-(J1-Pad1)*%
X110739000Y-94107000D03*
D13*
%TO.P,J7,2,Pin_2*%
%TO.N,Net-(J1-Pad2)*%
X113279000Y-94107000D03*
%TD*%
D14*
%TO.P,U1,1,3V3*%
%TO.N,Net-(J6-Pad1)*%
X152400000Y-89175000D03*
D15*
%TO.P,U1,2,GND*%
%TO.N,Net-(J3-Pad2)*%
X152400000Y-86635000D03*
%TO.P,U1,3,D15*%
%TO.N,unconnected-(U1-Pad3)*%
X152400000Y-84095000D03*
%TO.P,U1,4,D2*%
%TO.N,unconnected-(U1-Pad4)*%
X152400000Y-81555000D03*
%TO.P,U1,5,D4*%
%TO.N,unconnected-(U1-Pad5)*%
X152400000Y-79015000D03*
%TO.P,U1,6,RX2*%
%TO.N,Net-(U1-Pad6)*%
X152400000Y-76475000D03*
%TO.P,U1,7,TX2*%
%TO.N,Net-(U1-Pad7)*%
X152400000Y-73935000D03*
%TO.P,U1,8,D5*%
%TO.N,unconnected-(U1-Pad8)*%
X152400000Y-71395000D03*
%TO.P,U1,9,D18*%
%TO.N,Net-(U1-Pad9)*%
X152400000Y-68855000D03*
%TO.P,U1,10,D19*%
%TO.N,Net-(J6-Pad3)*%
X152400000Y-66315000D03*
%TO.P,U1,11,D21*%
%TO.N,unconnected-(U1-Pad11)*%
X152400000Y-63775000D03*
%TO.P,U1,12,RX0*%
%TO.N,unconnected-(U1-Pad12)*%
X152400000Y-61235000D03*
%TO.P,U1,13,TX0*%
%TO.N,unconnected-(U1-Pad13)*%
X152400000Y-58695000D03*
%TO.P,U1,14,D22*%
%TO.N,Net-(U1-Pad14)*%
X152400000Y-56155000D03*
%TO.P,U1,15,D23*%
%TO.N,unconnected-(U1-Pad15)*%
X152400000Y-53615000D03*
%TO.P,U1,16,EN*%
%TO.N,unconnected-(U1-Pad16)*%
X127000000Y-53615000D03*
%TO.P,U1,17,VP*%
%TO.N,Net-(J3-Pad4)*%
X127000000Y-56155000D03*
%TO.P,U1,18,VN*%
%TO.N,unconnected-(U1-Pad18)*%
X127000000Y-58695000D03*
%TO.P,U1,19,D34*%
%TO.N,unconnected-(U1-Pad19)*%
X127000000Y-61235000D03*
%TO.P,U1,20,D35*%
%TO.N,unconnected-(U1-Pad20)*%
X127000000Y-63775000D03*
%TO.P,U1,21,D32*%
%TO.N,unconnected-(U1-Pad21)*%
X127000000Y-66315000D03*
%TO.P,U1,22,D33*%
%TO.N,Net-(U1-Pad22)*%
X127000000Y-68855000D03*
%TO.P,U1,23,D25*%
%TO.N,unconnected-(U1-Pad23)*%
X127000000Y-71395000D03*
%TO.P,U1,24,D26*%
%TO.N,unconnected-(U1-Pad24)*%
X127000000Y-73935000D03*
%TO.P,U1,25,D27*%
%TO.N,unconnected-(U1-Pad25)*%
X127000000Y-76475000D03*
%TO.P,U1,26,D14*%
%TO.N,unconnected-(U1-Pad26)*%
X127000000Y-79015000D03*
%TO.P,U1,27,D12*%
%TO.N,Net-(U1-Pad27)*%
X127000000Y-81555000D03*
%TO.P,U1,28,D13*%
%TO.N,Net-(U1-Pad28)*%
X127000000Y-84095000D03*
%TO.P,U1,29,GND*%
%TO.N,Net-(J3-Pad2)*%
X127000000Y-86635000D03*
%TO.P,U1,30,VIN*%
%TO.N,Net-(J3-Pad1)*%
X127000000Y-89175000D03*
%TD*%
D12*
%TO.P,J3,1,Pin_1*%
%TO.N,Net-(J1-Pad1)*%
X110881000Y-56109000D03*
D13*
%TO.P,J3,2,Pin_2*%
%TO.N,Net-(J1-Pad2)*%
X113421000Y-56109000D03*
%TO.P,J3,3,Pin_3*%
%TO.N,unconnected-(J3-Pad3)*%
X115961000Y-56109000D03*
%TO.P,J3,4,Pin_4*%
%TO.N,Net-(J3-Pad4)*%
X118501000Y-56109000D03*
%TD*%
D12*
%TO.P,J1,1,Pin_1*%
%TO.N,Net-(J1-Pad1)*%
X168656000Y-76860000D03*
D13*
%TO.P,J1,2,Pin_2*%
%TO.N,Net-(J1-Pad2)*%
X166116000Y-76860000D03*
%TO.P,J1,3,Pin_3*%
%TO.N,Net-(J1-Pad3)*%
X163576000Y-76860000D03*
%TO.P,J1,4,Pin_4*%
%TO.N,Net-(J1-Pad4)*%
X161036000Y-76860000D03*
%TD*%
D12*
%TO.P,J2,1,Pin_1*%
%TO.N,Net-(J1-Pad1)*%
X168656000Y-54610000D03*
D13*
%TO.P,J2,2,Pin_2*%
%TO.N,Net-(J1-Pad2)*%
X166116000Y-54610000D03*
%TO.P,J2,3,Pin_3*%
%TO.N,Net-(J2-Pad3)*%
X163576000Y-54610000D03*
%TD*%
D16*
%TO.P,R1,1*%
%TO.N,Net-(J8-Pad2)*%
X157480000Y-63500000D03*
D17*
%TO.P,R1,2*%
%TO.N,Net-(J1-Pad1)*%
X172720000Y-63500000D03*
%TD*%
D12*
%TO.P,J8,1,Pin_1*%
%TO.N,Net-(J1-Pad2)*%
X159786000Y-68174000D03*
D13*
%TO.P,J8,2,Pin_2*%
%TO.N,Net-(J8-Pad2)*%
X162326000Y-68174000D03*
%TD*%
D18*
%TO.N,Net-(U1-Pad9)*%
X152400000Y-68855000D02*
X156062000Y-68855000D01*
X157353000Y-67564000D02*
X157353000Y-65650000D01*
X156062000Y-68855000D02*
X157353000Y-67564000D01*
%TO.N,Net-(U1-Pad6)*%
X155850000Y-76475000D02*
X152400000Y-76475000D01*
X156235000Y-76860000D02*
X155850000Y-76475000D01*
X161036000Y-76860000D02*
X156235000Y-76860000D01*
%TO.N,Net-(U1-Pad7)*%
X163576000Y-76860000D02*
X163576000Y-75657919D01*
X163576000Y-75657919D02*
X161853081Y-73935000D01*
X161853081Y-73935000D02*
X152400000Y-73935000D01*
%TO.N,Net-(J3-Pad4)*%
X118501000Y-56109000D02*
X126954000Y-56109000D01*
X126954000Y-56109000D02*
X127000000Y-56155000D01*
%TO.N,Net-(J6-Pad1)*%
X163591000Y-94209000D02*
X157434000Y-94209000D01*
X157434000Y-94209000D02*
X152400000Y-89175000D01*
%TO.N,Net-(J6-Pad3)*%
X168671000Y-94209000D02*
X168671000Y-95411081D01*
X161847081Y-102235000D02*
X152273000Y-102235000D01*
X147066000Y-97028000D02*
X147066000Y-68961000D01*
X168671000Y-95411081D02*
X161847081Y-102235000D01*
X149712000Y-66315000D02*
X152400000Y-66315000D01*
X152273000Y-102235000D02*
X147066000Y-97028000D01*
X147066000Y-68961000D02*
X149712000Y-66315000D01*
%TO.N,Net-(U1-Pad14)*%
X162031000Y-56155000D02*
X163576000Y-54610000D01*
X152400000Y-56155000D02*
X162031000Y-56155000D01*
%TO.N,Net-(U1-Pad22)*%
X115966000Y-69190000D02*
X126665000Y-69190000D01*
X126665000Y-69190000D02*
X127000000Y-68855000D01*
%TO.N,Net-(J1-Pad1)*%
X110739000Y-94107000D02*
X110739000Y-81143000D01*
X168656000Y-54610000D02*
X168656000Y-76860000D01*
X111379000Y-43180000D02*
X110871000Y-43688000D01*
X172593000Y-61722000D02*
X172593000Y-55372000D01*
X110886000Y-56114000D02*
X110881000Y-56109000D01*
X110886000Y-80996000D02*
X110754000Y-81128000D01*
X122555000Y-98425000D02*
X122555000Y-89408000D01*
X110739000Y-81143000D02*
X110754000Y-81128000D01*
X110871000Y-52939000D02*
X110881000Y-52949000D01*
X110881000Y-52949000D02*
X110881000Y-56109000D01*
X122555000Y-89408000D02*
X122788000Y-89175000D01*
X172593000Y-55372000D02*
X171196000Y-53975000D01*
X169291000Y-53975000D02*
X168656000Y-54610000D01*
X172720000Y-63500000D02*
X172720000Y-61849000D01*
X110739000Y-96457000D02*
X110744000Y-96462000D01*
X122788000Y-89175000D02*
X127000000Y-89175000D01*
X168656000Y-50038000D02*
X161798000Y-43180000D01*
X111252000Y-99187000D02*
X121793000Y-99187000D01*
X172720000Y-61849000D02*
X172593000Y-61722000D01*
X129667000Y-43180000D02*
X111379000Y-43180000D01*
X110739000Y-94107000D02*
X110739000Y-96457000D01*
X110744000Y-96462000D02*
X110744000Y-98679000D01*
X110886000Y-69190000D02*
X110886000Y-56114000D01*
X161798000Y-43180000D02*
X129667000Y-43180000D01*
X110871000Y-43688000D02*
X110871000Y-52939000D01*
X110886000Y-69190000D02*
X110886000Y-80996000D01*
X121793000Y-99187000D02*
X122555000Y-98425000D01*
X171196000Y-53975000D02*
X169291000Y-53975000D01*
X110744000Y-98679000D02*
X111252000Y-99187000D01*
X168656000Y-54610000D02*
X168656000Y-50038000D01*
%TO.N,Net-(J1-Pad2)*%
X113294000Y-85461000D02*
X113294000Y-94092000D01*
X166131000Y-94209000D02*
X166131000Y-86502000D01*
X127000000Y-86635000D02*
X114468000Y-86635000D01*
X159786000Y-70524000D02*
X159786000Y-68174000D01*
X113294000Y-94092000D02*
X113279000Y-94107000D01*
X166116000Y-54610000D02*
X166116000Y-51943000D01*
X160274000Y-46101000D02*
X141478000Y-46101000D01*
X166116000Y-51943000D02*
X160274000Y-46101000D01*
X132842000Y-86487000D02*
X132694000Y-86635000D01*
X132694000Y-86635000D02*
X127000000Y-86635000D01*
X166116000Y-70866000D02*
X160128000Y-70866000D01*
X166116000Y-81915000D02*
X166116000Y-76860000D01*
X113294000Y-81128000D02*
X113294000Y-69322000D01*
X166131000Y-86502000D02*
X163830000Y-84201000D01*
X152400000Y-86635000D02*
X161396000Y-86635000D01*
X132842000Y-54737000D02*
X132842000Y-86487000D01*
X113294000Y-81128000D02*
X113294000Y-85461000D01*
X160128000Y-70866000D02*
X159786000Y-70524000D01*
X163830000Y-84201000D02*
X166116000Y-81915000D01*
X114468000Y-86635000D02*
X113294000Y-85461000D01*
X113294000Y-69322000D02*
X113426000Y-69190000D01*
X141478000Y-46101000D02*
X132842000Y-54737000D01*
X113421000Y-56109000D02*
X113421000Y-69185000D01*
X161396000Y-86635000D02*
X163830000Y-84201000D01*
X113421000Y-69185000D02*
X113426000Y-69190000D01*
X166116000Y-54610000D02*
X166116000Y-70866000D01*
X166116000Y-70866000D02*
X166116000Y-76860000D01*
%TO.N,Net-(J4-Pad3)*%
X123698000Y-77978000D02*
X123698000Y-81280000D01*
X123973000Y-81555000D02*
X127000000Y-81555000D01*
X115834000Y-81128000D02*
X115834000Y-78222000D01*
X115834000Y-78222000D02*
X116586000Y-77470000D01*
X123190000Y-77470000D02*
X123698000Y-77978000D01*
X123698000Y-81280000D02*
X123973000Y-81555000D01*
X116586000Y-77470000D02*
X123190000Y-77470000D01*
%TO.N,Net-(J4-Pad4)*%
X121341000Y-84095000D02*
X118374000Y-81128000D01*
X127000000Y-84095000D02*
X121341000Y-84095000D01*
%TO.N,Net-(J8-Pad2)*%
X162941000Y-64770000D02*
X162941000Y-67559000D01*
X161671000Y-63500000D02*
X162941000Y-64770000D01*
X162941000Y-67559000D02*
X162326000Y-68174000D01*
X157480000Y-63500000D02*
X161671000Y-63500000D01*
%TD*%
%TA.AperFunction,Conductor*%
%TO.N,Net-(J1-Pad2)*%
G36*
X174567100Y-40914002D02*
G01*
X174613593Y-40967658D01*
X174624979Y-41020021D01*
X174621391Y-63034351D01*
X174601378Y-63102468D01*
X174547715Y-63148952D01*
X174477439Y-63159045D01*
X174412863Y-63129541D01*
X174374489Y-63069809D01*
X174372550Y-63062367D01*
X174357174Y-62995000D01*
X174357172Y-62994994D01*
X174263625Y-62756637D01*
X174263623Y-62756633D01*
X174135589Y-62534872D01*
X174135584Y-62534865D01*
X174005989Y-62372357D01*
X173979155Y-62306627D01*
X173978500Y-62293798D01*
X173978500Y-61926755D01*
X173979292Y-61912649D01*
X173980138Y-61905138D01*
X173983269Y-61877352D01*
X173978785Y-61810845D01*
X173978500Y-61802370D01*
X173978500Y-61792484D01*
X173978500Y-61792478D01*
X173974821Y-61751607D01*
X173974607Y-61748891D01*
X173968030Y-61651332D01*
X173968029Y-61651329D01*
X173968029Y-61651325D01*
X173966980Y-61647162D01*
X173963667Y-61627664D01*
X173963281Y-61623379D01*
X173963281Y-61623378D01*
X173937268Y-61529127D01*
X173936559Y-61526437D01*
X173922770Y-61471711D01*
X173912679Y-61431663D01*
X173910900Y-61427748D01*
X173904155Y-61409142D01*
X173903014Y-61405007D01*
X173863978Y-61323948D01*
X173851500Y-61269278D01*
X173851500Y-55449755D01*
X173852292Y-55435649D01*
X173855447Y-55407643D01*
X173856269Y-55400352D01*
X173851785Y-55333845D01*
X173851500Y-55325370D01*
X173851500Y-55315484D01*
X173851500Y-55315478D01*
X173847821Y-55274607D01*
X173847607Y-55271891D01*
X173841030Y-55174332D01*
X173841029Y-55174329D01*
X173841029Y-55174325D01*
X173839980Y-55170162D01*
X173836667Y-55150664D01*
X173836281Y-55146379D01*
X173825162Y-55106091D01*
X173810268Y-55052127D01*
X173809559Y-55049437D01*
X173794517Y-54989741D01*
X173785679Y-54954663D01*
X173785678Y-54954661D01*
X173785677Y-54954656D01*
X173783899Y-54950743D01*
X173777155Y-54932143D01*
X173776791Y-54930824D01*
X173776014Y-54928007D01*
X173733616Y-54839969D01*
X173732427Y-54837425D01*
X173691996Y-54748414D01*
X173691993Y-54748408D01*
X173689546Y-54744876D01*
X173679590Y-54727780D01*
X173677726Y-54723910D01*
X173677725Y-54723907D01*
X173620274Y-54644833D01*
X173618687Y-54642598D01*
X173562986Y-54562198D01*
X173559943Y-54559155D01*
X173547098Y-54544115D01*
X173544574Y-54540641D01*
X173544573Y-54540640D01*
X173544571Y-54540637D01*
X173473909Y-54473077D01*
X173471888Y-54471100D01*
X172140878Y-53140090D01*
X172131462Y-53129554D01*
X172109317Y-53101785D01*
X172109314Y-53101782D01*
X172059101Y-53057913D01*
X172052935Y-53052147D01*
X172045927Y-53045139D01*
X172014412Y-53018829D01*
X172012329Y-53017049D01*
X171938727Y-52952744D01*
X171938718Y-52952737D01*
X171935016Y-52950525D01*
X171918898Y-52939087D01*
X171915596Y-52936330D01*
X171900982Y-52928038D01*
X171830531Y-52888062D01*
X171828165Y-52886684D01*
X171797432Y-52868322D01*
X171744250Y-52836547D01*
X171744243Y-52836544D01*
X171744237Y-52836541D01*
X171740208Y-52835029D01*
X171722312Y-52826657D01*
X171718567Y-52824532D01*
X171718564Y-52824530D01*
X171667626Y-52806707D01*
X171626292Y-52792243D01*
X171623694Y-52791302D01*
X171532164Y-52756950D01*
X171532162Y-52756949D01*
X171532161Y-52756949D01*
X171532159Y-52756948D01*
X171532150Y-52756946D01*
X171527908Y-52756176D01*
X171508814Y-52751136D01*
X171504748Y-52749713D01*
X171408177Y-52734416D01*
X171405394Y-52733943D01*
X171309271Y-52716500D01*
X171309267Y-52716500D01*
X171304966Y-52716500D01*
X171285257Y-52714949D01*
X171281004Y-52714275D01*
X171280997Y-52714275D01*
X171183289Y-52716468D01*
X171180462Y-52716500D01*
X170040500Y-52716500D01*
X169972379Y-52696498D01*
X169925886Y-52642842D01*
X169914500Y-52590500D01*
X169914500Y-51466362D01*
X169934502Y-51398241D01*
X169988158Y-51351748D01*
X170040500Y-51340362D01*
X172808462Y-51340362D01*
X172808462Y-43584208D01*
X169980880Y-43584208D01*
X169980880Y-49336552D01*
X169960878Y-49404673D01*
X169907222Y-49451166D01*
X169836948Y-49461270D01*
X169772368Y-49431776D01*
X169743926Y-49394581D01*
X169743625Y-49394762D01*
X169742053Y-49392132D01*
X169741358Y-49391222D01*
X169740725Y-49389907D01*
X169683276Y-49310837D01*
X169681646Y-49308540D01*
X169625988Y-49228201D01*
X169625986Y-49228198D01*
X169622943Y-49225155D01*
X169610098Y-49210115D01*
X169607574Y-49206641D01*
X169607573Y-49206640D01*
X169607571Y-49206637D01*
X169536909Y-49139077D01*
X169534888Y-49137100D01*
X162742878Y-42345090D01*
X162733462Y-42334554D01*
X162711317Y-42306785D01*
X162702530Y-42299108D01*
X162661101Y-42262913D01*
X162654935Y-42257147D01*
X162647927Y-42250139D01*
X162616412Y-42223829D01*
X162614329Y-42222049D01*
X162540727Y-42157744D01*
X162540718Y-42157737D01*
X162537016Y-42155525D01*
X162520898Y-42144087D01*
X162517596Y-42141330D01*
X162508688Y-42136275D01*
X162432531Y-42093062D01*
X162430165Y-42091684D01*
X162425845Y-42089103D01*
X162346250Y-42041547D01*
X162346243Y-42041544D01*
X162346237Y-42041541D01*
X162342208Y-42040029D01*
X162324312Y-42031657D01*
X162320567Y-42029532D01*
X162320564Y-42029530D01*
X162269626Y-42011707D01*
X162228292Y-41997243D01*
X162225694Y-41996302D01*
X162224452Y-41995836D01*
X162134161Y-41961949D01*
X162134159Y-41961948D01*
X162134150Y-41961946D01*
X162129908Y-41961176D01*
X162110814Y-41956136D01*
X162106748Y-41954713D01*
X162010177Y-41939416D01*
X162007394Y-41938943D01*
X161911271Y-41921500D01*
X161911267Y-41921500D01*
X161906966Y-41921500D01*
X161887257Y-41919949D01*
X161883004Y-41919275D01*
X161882997Y-41919275D01*
X161785289Y-41921468D01*
X161782462Y-41921500D01*
X111456756Y-41921500D01*
X111442650Y-41920708D01*
X111407353Y-41916731D01*
X111407352Y-41916731D01*
X111369620Y-41919275D01*
X111340846Y-41921215D01*
X111332371Y-41921500D01*
X111322470Y-41921500D01*
X111281670Y-41925171D01*
X111278859Y-41925392D01*
X111181337Y-41931968D01*
X111181328Y-41931970D01*
X111177159Y-41933021D01*
X111157676Y-41936332D01*
X111153383Y-41936718D01*
X111153362Y-41936722D01*
X111059197Y-41962710D01*
X111056466Y-41963431D01*
X110961660Y-41987321D01*
X110961653Y-41987324D01*
X110957725Y-41989108D01*
X110939170Y-41995836D01*
X110935014Y-41996983D01*
X110935004Y-41996987D01*
X110846922Y-42039403D01*
X110844365Y-42040599D01*
X110755415Y-42081003D01*
X110755400Y-42081011D01*
X110751863Y-42083462D01*
X110734805Y-42093397D01*
X110730906Y-42095274D01*
X110730905Y-42095275D01*
X110651828Y-42152728D01*
X110649525Y-42154362D01*
X110569194Y-42210017D01*
X110566141Y-42213070D01*
X110551135Y-42225887D01*
X110547636Y-42228429D01*
X110547631Y-42228433D01*
X110480058Y-42299108D01*
X110478082Y-42301128D01*
X110036084Y-42743126D01*
X110025550Y-42752541D01*
X109997782Y-42774685D01*
X109953932Y-42824875D01*
X109948151Y-42831059D01*
X109941139Y-42838071D01*
X109914850Y-42869560D01*
X109913017Y-42871706D01*
X109848736Y-42945282D01*
X109848734Y-42945285D01*
X109846526Y-42948981D01*
X109835098Y-42965087D01*
X109832330Y-42968405D01*
X109832323Y-42968414D01*
X109784094Y-43053410D01*
X109782673Y-43055850D01*
X109732551Y-43139741D01*
X109732546Y-43139752D01*
X109731029Y-43143794D01*
X109722665Y-43161671D01*
X109720536Y-43165424D01*
X109720529Y-43165438D01*
X109688265Y-43257646D01*
X109687302Y-43260304D01*
X109652949Y-43351838D01*
X109652948Y-43351841D01*
X109652179Y-43356080D01*
X109647138Y-43375180D01*
X109645714Y-43379248D01*
X109645713Y-43379254D01*
X109630416Y-43475822D01*
X109629943Y-43478605D01*
X109612500Y-43574729D01*
X109612500Y-43579034D01*
X109610949Y-43598743D01*
X109610275Y-43602995D01*
X109610275Y-43603002D01*
X109612468Y-43700710D01*
X109612500Y-43703537D01*
X109612500Y-52861244D01*
X109611708Y-52875350D01*
X109609778Y-52892484D01*
X109607731Y-52910648D01*
X109610077Y-52945444D01*
X109612215Y-52977153D01*
X109612500Y-52985628D01*
X109612500Y-52995529D01*
X109616175Y-53036373D01*
X109616396Y-53039184D01*
X109622214Y-53125454D01*
X109622500Y-53133932D01*
X109622500Y-54914233D01*
X109602498Y-54982354D01*
X109597369Y-54989741D01*
X109580112Y-55012793D01*
X109580110Y-55012797D01*
X109529011Y-55149795D01*
X109529009Y-55149803D01*
X109522500Y-55210350D01*
X109522500Y-57007649D01*
X109529009Y-57068196D01*
X109529011Y-57068204D01*
X109580110Y-57205202D01*
X109580113Y-57205208D01*
X109602367Y-57234935D01*
X109627179Y-57301455D01*
X109627500Y-57310445D01*
X109627500Y-67995233D01*
X109607498Y-68063354D01*
X109602369Y-68070741D01*
X109585112Y-68093793D01*
X109585110Y-68093797D01*
X109534011Y-68230795D01*
X109534009Y-68230803D01*
X109527500Y-68291350D01*
X109527500Y-70088640D01*
X109534009Y-70149196D01*
X109534011Y-70149201D01*
X109585111Y-70286204D01*
X109602367Y-70309255D01*
X109627179Y-70375774D01*
X109627500Y-70384765D01*
X109627500Y-79786719D01*
X109607498Y-79854840D01*
X109577011Y-79887585D01*
X109540739Y-79914739D01*
X109540738Y-79914740D01*
X109540737Y-79914741D01*
X109540736Y-79914742D01*
X109453112Y-80031792D01*
X109453110Y-80031797D01*
X109402011Y-80168795D01*
X109402009Y-80168803D01*
X109395500Y-80229350D01*
X109395500Y-82026649D01*
X109402009Y-82087196D01*
X109402011Y-82087204D01*
X109453109Y-82224201D01*
X109453110Y-82224203D01*
X109453111Y-82224204D01*
X109455366Y-82227217D01*
X109456682Y-82230743D01*
X109457430Y-82232113D01*
X109457233Y-82232220D01*
X109480179Y-82293735D01*
X109480500Y-82302727D01*
X109480500Y-92912233D01*
X109460498Y-92980354D01*
X109455369Y-92987741D01*
X109438112Y-93010793D01*
X109438110Y-93010797D01*
X109387011Y-93147795D01*
X109387009Y-93147803D01*
X109380500Y-93208350D01*
X109380500Y-95005649D01*
X109387009Y-95066196D01*
X109424249Y-95166040D01*
X109438111Y-95203204D01*
X109455367Y-95226255D01*
X109480179Y-95292774D01*
X109480500Y-95301765D01*
X109480500Y-96379244D01*
X109479708Y-96393350D01*
X109475731Y-96428646D01*
X109480215Y-96495153D01*
X109480500Y-96503628D01*
X109480500Y-96513526D01*
X109484174Y-96554357D01*
X109484395Y-96557162D01*
X109485214Y-96569297D01*
X109485500Y-96577782D01*
X109485500Y-98601244D01*
X109484708Y-98615350D01*
X109480731Y-98650646D01*
X109485215Y-98717153D01*
X109485500Y-98725628D01*
X109485500Y-98735529D01*
X109489171Y-98776329D01*
X109489392Y-98779140D01*
X109495968Y-98876660D01*
X109495969Y-98876667D01*
X109495970Y-98876668D01*
X109497023Y-98880849D01*
X109500331Y-98900318D01*
X109500718Y-98904622D01*
X109526711Y-98998805D01*
X109527433Y-99001537D01*
X109551322Y-99096339D01*
X109553103Y-99100260D01*
X109559842Y-99118848D01*
X109560985Y-99122990D01*
X109560988Y-99122999D01*
X109603379Y-99211024D01*
X109604577Y-99213584D01*
X109645006Y-99302590D01*
X109647455Y-99306124D01*
X109657405Y-99323211D01*
X109659271Y-99327087D01*
X109659274Y-99327092D01*
X109716720Y-99406159D01*
X109718356Y-99408465D01*
X109774009Y-99488795D01*
X109774014Y-99488802D01*
X109774018Y-99488806D01*
X109774023Y-99488812D01*
X109777055Y-99491844D01*
X109789891Y-99506871D01*
X109792426Y-99510360D01*
X109792430Y-99510364D01*
X109863089Y-99577921D01*
X109865110Y-99579898D01*
X110307121Y-100021909D01*
X110316535Y-100032443D01*
X110338681Y-100060212D01*
X110338686Y-100060218D01*
X110363660Y-100082037D01*
X110388878Y-100104070D01*
X110395072Y-100109861D01*
X110402062Y-100116851D01*
X110402068Y-100116856D01*
X110402073Y-100116861D01*
X110433602Y-100143183D01*
X110435644Y-100144926D01*
X110509282Y-100209263D01*
X110512977Y-100211470D01*
X110529095Y-100222907D01*
X110532402Y-100225668D01*
X110532412Y-100225675D01*
X110602059Y-100265193D01*
X110613565Y-100271722D01*
X110617420Y-100273909D01*
X110619782Y-100275284D01*
X110703750Y-100325453D01*
X110707795Y-100326971D01*
X110725687Y-100335341D01*
X110729433Y-100337467D01*
X110821661Y-100369739D01*
X110824255Y-100370678D01*
X110915839Y-100405051D01*
X110920072Y-100405819D01*
X110939184Y-100410862D01*
X110943254Y-100412287D01*
X110943257Y-100412287D01*
X110943259Y-100412288D01*
X110966723Y-100416004D01*
X111039837Y-100427583D01*
X111042487Y-100428033D01*
X111138733Y-100445500D01*
X111143041Y-100445500D01*
X111162750Y-100447050D01*
X111167000Y-100447724D01*
X111264685Y-100445532D01*
X111267512Y-100445500D01*
X121715244Y-100445500D01*
X121729350Y-100446292D01*
X121734545Y-100446877D01*
X121764648Y-100450269D01*
X121831153Y-100445785D01*
X121839628Y-100445500D01*
X121849516Y-100445500D01*
X121849522Y-100445500D01*
X121890363Y-100441824D01*
X121893128Y-100441606D01*
X121990668Y-100435030D01*
X121994834Y-100433980D01*
X122014329Y-100430667D01*
X122018622Y-100430281D01*
X122112922Y-100404255D01*
X122115527Y-100403568D01*
X122210337Y-100379679D01*
X122214248Y-100377902D01*
X122232850Y-100371157D01*
X122236993Y-100370014D01*
X122325084Y-100327590D01*
X122327516Y-100326452D01*
X122416590Y-100285994D01*
X122420107Y-100283557D01*
X122437225Y-100273586D01*
X122441093Y-100271725D01*
X122520169Y-100214270D01*
X122522404Y-100212683D01*
X122602802Y-100156986D01*
X122605843Y-100153943D01*
X122620878Y-100141102D01*
X122624363Y-100138571D01*
X122691964Y-100067864D01*
X122693855Y-100065931D01*
X123389919Y-99369867D01*
X123400436Y-99360468D01*
X123428218Y-99338314D01*
X123472094Y-99288092D01*
X123477845Y-99281941D01*
X123484861Y-99274927D01*
X123511163Y-99243420D01*
X123512939Y-99241342D01*
X123577263Y-99167718D01*
X123579468Y-99164026D01*
X123590917Y-99147890D01*
X123593671Y-99144593D01*
X123641889Y-99059613D01*
X123643291Y-99057204D01*
X123693453Y-98973250D01*
X123694964Y-98969222D01*
X123703346Y-98951305D01*
X123705468Y-98947567D01*
X123737780Y-98855221D01*
X123738697Y-98852694D01*
X123773051Y-98761161D01*
X123773818Y-98756930D01*
X123778866Y-98737807D01*
X123780288Y-98733745D01*
X123795585Y-98637153D01*
X123796043Y-98634454D01*
X123813500Y-98538267D01*
X123813500Y-98533965D01*
X123815051Y-98514254D01*
X123815725Y-98510000D01*
X123813532Y-98412288D01*
X123813500Y-98409461D01*
X123813500Y-97266182D01*
X125719500Y-97266182D01*
X125732215Y-97350537D01*
X125758604Y-97525619D01*
X125835933Y-97776314D01*
X125835938Y-97776327D01*
X125949773Y-98012706D01*
X125949777Y-98012713D01*
X126097562Y-98229472D01*
X126097567Y-98229479D01*
X126276019Y-98421805D01*
X126481143Y-98585386D01*
X126481146Y-98585388D01*
X126708352Y-98716566D01*
X126708356Y-98716567D01*
X126708357Y-98716568D01*
X126952584Y-98812420D01*
X127208370Y-98870802D01*
X127404506Y-98885500D01*
X127404507Y-98885500D01*
X127535493Y-98885500D01*
X127535494Y-98885500D01*
X127731630Y-98870802D01*
X127987416Y-98812420D01*
X128231643Y-98716568D01*
X128231645Y-98716566D01*
X128231647Y-98716566D01*
X128406958Y-98615350D01*
X128458857Y-98585386D01*
X128663981Y-98421805D01*
X128842433Y-98229479D01*
X128990228Y-98012704D01*
X129104063Y-97776323D01*
X129109880Y-97757465D01*
X129181395Y-97525619D01*
X129189478Y-97471993D01*
X129220500Y-97266182D01*
X129220500Y-97003818D01*
X129219871Y-96999648D01*
X145802731Y-96999648D01*
X145807188Y-97065757D01*
X145807215Y-97066153D01*
X145807500Y-97074628D01*
X145807500Y-97084529D01*
X145811171Y-97125329D01*
X145811392Y-97128140D01*
X145817968Y-97225660D01*
X145817969Y-97225667D01*
X145817970Y-97225668D01*
X145819023Y-97229849D01*
X145822331Y-97249318D01*
X145822718Y-97253622D01*
X145848711Y-97347805D01*
X145849433Y-97350537D01*
X145873322Y-97445339D01*
X145875103Y-97449260D01*
X145881842Y-97467848D01*
X145882985Y-97471990D01*
X145882988Y-97471999D01*
X145925379Y-97560024D01*
X145926577Y-97562584D01*
X145967006Y-97651590D01*
X145969455Y-97655124D01*
X145979405Y-97672211D01*
X145981271Y-97676087D01*
X145981274Y-97676092D01*
X146038720Y-97755159D01*
X146040356Y-97757465D01*
X146096009Y-97837795D01*
X146096014Y-97837802D01*
X146096018Y-97837806D01*
X146096023Y-97837812D01*
X146099055Y-97840844D01*
X146111891Y-97855871D01*
X146114426Y-97859360D01*
X146114430Y-97859364D01*
X146185089Y-97926921D01*
X146187110Y-97928898D01*
X151328121Y-103069909D01*
X151337535Y-103080443D01*
X151359681Y-103108212D01*
X151359686Y-103108218D01*
X151384660Y-103130037D01*
X151409878Y-103152070D01*
X151416072Y-103157861D01*
X151423062Y-103164851D01*
X151423068Y-103164856D01*
X151423073Y-103164861D01*
X151454602Y-103191183D01*
X151456644Y-103192926D01*
X151530282Y-103257263D01*
X151533977Y-103259470D01*
X151550095Y-103270907D01*
X151553402Y-103273668D01*
X151553412Y-103273675D01*
X151604269Y-103302532D01*
X151638428Y-103321914D01*
X151640847Y-103323323D01*
X151724746Y-103373451D01*
X151724747Y-103373451D01*
X151724750Y-103373453D01*
X151728780Y-103374965D01*
X151746692Y-103383345D01*
X151750435Y-103385469D01*
X151782084Y-103396542D01*
X151842739Y-103417766D01*
X151845254Y-103418678D01*
X151936839Y-103453051D01*
X151941067Y-103453818D01*
X151960193Y-103458865D01*
X151964255Y-103460287D01*
X152060867Y-103475589D01*
X152063485Y-103476033D01*
X152138788Y-103489699D01*
X152159732Y-103493500D01*
X152159733Y-103493500D01*
X152164034Y-103493500D01*
X152183743Y-103495051D01*
X152186051Y-103495416D01*
X152188000Y-103495725D01*
X152285710Y-103493531D01*
X152288537Y-103493500D01*
X161769325Y-103493500D01*
X161783431Y-103494292D01*
X161788626Y-103494877D01*
X161818729Y-103498269D01*
X161885234Y-103493785D01*
X161893709Y-103493500D01*
X161903597Y-103493500D01*
X161903603Y-103493500D01*
X161944444Y-103489824D01*
X161947209Y-103489606D01*
X162044749Y-103483030D01*
X162048915Y-103481980D01*
X162068410Y-103478667D01*
X162072703Y-103478281D01*
X162167003Y-103452255D01*
X162169608Y-103451568D01*
X162264418Y-103427679D01*
X162268329Y-103425902D01*
X162286931Y-103419157D01*
X162291074Y-103418014D01*
X162379165Y-103375590D01*
X162381597Y-103374452D01*
X162470671Y-103333994D01*
X162474188Y-103331557D01*
X162491306Y-103321586D01*
X162495174Y-103319725D01*
X162574250Y-103262270D01*
X162576485Y-103260683D01*
X162656883Y-103204986D01*
X162659924Y-103201943D01*
X162674959Y-103189102D01*
X162678444Y-103186571D01*
X162746045Y-103115864D01*
X162747936Y-103113931D01*
X169505919Y-96355948D01*
X169516436Y-96346549D01*
X169544218Y-96324395D01*
X169588094Y-96274173D01*
X169593845Y-96268022D01*
X169600861Y-96261008D01*
X169627163Y-96229501D01*
X169628939Y-96227423D01*
X169693263Y-96153799D01*
X169695468Y-96150107D01*
X169706917Y-96133971D01*
X169709671Y-96130674D01*
X169757889Y-96045694D01*
X169759291Y-96043285D01*
X169809453Y-95959331D01*
X169810964Y-95955303D01*
X169819346Y-95937386D01*
X169821468Y-95933648D01*
X169853780Y-95841302D01*
X169854697Y-95838775D01*
X169889051Y-95747242D01*
X169889818Y-95743011D01*
X169894866Y-95723888D01*
X169896288Y-95719826D01*
X169911585Y-95623234D01*
X169912043Y-95620535D01*
X169929500Y-95524348D01*
X169929500Y-95520046D01*
X169931051Y-95500335D01*
X169931725Y-95496081D01*
X169929532Y-95398369D01*
X169929500Y-95395542D01*
X169929500Y-94748243D01*
X169940113Y-94697629D01*
X169943081Y-94690860D01*
X169960296Y-94651616D01*
X169970393Y-94611745D01*
X170006505Y-94550619D01*
X170069932Y-94518720D01*
X170140536Y-94526177D01*
X170195901Y-94570621D01*
X170218448Y-94637942D01*
X170218537Y-94642676D01*
X170218537Y-97335694D01*
X173545840Y-97335694D01*
X173545840Y-90510637D01*
X170218537Y-90510637D01*
X170218537Y-93775323D01*
X170198535Y-93843444D01*
X170144879Y-93889937D01*
X170074605Y-93900041D01*
X170010025Y-93870547D01*
X169971641Y-93810821D01*
X169970393Y-93806255D01*
X169960297Y-93766387D01*
X169960296Y-93766384D01*
X169869860Y-93560209D01*
X169863140Y-93549924D01*
X169746724Y-93371734D01*
X169746720Y-93371729D01*
X169594237Y-93206091D01*
X169474367Y-93112792D01*
X169416576Y-93067811D01*
X169218574Y-92960658D01*
X169218572Y-92960657D01*
X169218571Y-92960656D01*
X169005639Y-92887557D01*
X169005630Y-92887555D01*
X168961476Y-92880187D01*
X168783569Y-92850500D01*
X168558431Y-92850500D01*
X168410211Y-92875233D01*
X168336369Y-92887555D01*
X168336360Y-92887557D01*
X168123428Y-92960656D01*
X168123426Y-92960658D01*
X167925426Y-93067810D01*
X167925424Y-93067811D01*
X167747762Y-93206091D01*
X167595279Y-93371729D01*
X167595275Y-93371734D01*
X167472141Y-93560206D01*
X167381703Y-93766386D01*
X167381702Y-93766387D01*
X167326437Y-93984624D01*
X167307844Y-94209000D01*
X167326437Y-94433375D01*
X167381702Y-94651612D01*
X167381705Y-94651619D01*
X167401887Y-94697629D01*
X167412500Y-94748243D01*
X167412500Y-94837603D01*
X167392498Y-94905724D01*
X167375595Y-94926698D01*
X161362698Y-100939595D01*
X161300386Y-100973621D01*
X161273603Y-100976500D01*
X152846478Y-100976500D01*
X152778357Y-100956498D01*
X152757383Y-100939595D01*
X149083970Y-97266182D01*
X150229500Y-97266182D01*
X150242215Y-97350537D01*
X150268604Y-97525619D01*
X150345933Y-97776314D01*
X150345938Y-97776327D01*
X150459773Y-98012706D01*
X150459777Y-98012713D01*
X150607562Y-98229472D01*
X150607567Y-98229479D01*
X150786019Y-98421805D01*
X150991143Y-98585386D01*
X150991146Y-98585388D01*
X151218352Y-98716566D01*
X151218356Y-98716567D01*
X151218357Y-98716568D01*
X151462584Y-98812420D01*
X151718370Y-98870802D01*
X151914506Y-98885500D01*
X151914507Y-98885500D01*
X152045493Y-98885500D01*
X152045494Y-98885500D01*
X152241630Y-98870802D01*
X152497416Y-98812420D01*
X152741643Y-98716568D01*
X152741645Y-98716566D01*
X152741647Y-98716566D01*
X152916958Y-98615350D01*
X152968857Y-98585386D01*
X153173981Y-98421805D01*
X153352433Y-98229479D01*
X153500228Y-98012704D01*
X153614063Y-97776323D01*
X153619880Y-97757465D01*
X153691395Y-97525619D01*
X153699478Y-97471993D01*
X153730500Y-97266182D01*
X153730500Y-97003818D01*
X153691396Y-96744385D01*
X153691395Y-96744383D01*
X153691395Y-96744380D01*
X153614066Y-96493685D01*
X153614061Y-96493672D01*
X153550573Y-96361838D01*
X153500228Y-96257296D01*
X153500226Y-96257293D01*
X153500222Y-96257286D01*
X153352437Y-96040527D01*
X153352433Y-96040521D01*
X153173981Y-95848195D01*
X152968857Y-95684614D01*
X152968852Y-95684611D01*
X152968853Y-95684611D01*
X152741647Y-95553433D01*
X152741639Y-95553430D01*
X152497419Y-95457581D01*
X152497417Y-95457580D01*
X152241633Y-95399198D01*
X152094528Y-95388174D01*
X152045494Y-95384500D01*
X151914506Y-95384500D01*
X151875278Y-95387439D01*
X151718366Y-95399198D01*
X151462582Y-95457580D01*
X151462580Y-95457581D01*
X151218360Y-95553430D01*
X151218352Y-95553433D01*
X150991146Y-95684611D01*
X150786018Y-95848195D01*
X150607566Y-96040522D01*
X150607562Y-96040527D01*
X150459777Y-96257286D01*
X150459773Y-96257293D01*
X150345938Y-96493672D01*
X150345933Y-96493685D01*
X150268604Y-96744380D01*
X150246879Y-96888514D01*
X150229500Y-97003818D01*
X150229500Y-97266182D01*
X149083970Y-97266182D01*
X148361405Y-96543617D01*
X148327379Y-96481305D01*
X148324500Y-96454522D01*
X148324500Y-69534478D01*
X148344502Y-69466357D01*
X148361405Y-69445383D01*
X150196383Y-67610405D01*
X150258695Y-67576379D01*
X150285478Y-67573500D01*
X151237380Y-67573500D01*
X151305501Y-67593502D01*
X151351994Y-67647158D01*
X151362098Y-67717432D01*
X151333191Y-67781330D01*
X151175826Y-67965580D01*
X151175825Y-67965582D01*
X151051759Y-68168038D01*
X150960894Y-68387407D01*
X150905465Y-68618289D01*
X150886835Y-68855000D01*
X150905465Y-69091710D01*
X150960894Y-69322592D01*
X151048660Y-69534478D01*
X151051760Y-69541963D01*
X151170610Y-69735908D01*
X151175825Y-69744417D01*
X151175826Y-69744419D01*
X151293576Y-69882286D01*
X151330031Y-69924969D01*
X151364015Y-69953994D01*
X151452057Y-70029189D01*
X151490866Y-70088640D01*
X151491372Y-70159634D01*
X151453416Y-70219633D01*
X151452057Y-70220811D01*
X151330028Y-70325033D01*
X151175826Y-70505580D01*
X151175825Y-70505582D01*
X151051759Y-70708038D01*
X150960894Y-70927407D01*
X150905465Y-71158289D01*
X150886835Y-71395000D01*
X150905465Y-71631710D01*
X150960894Y-71862592D01*
X151051759Y-72081961D01*
X151175825Y-72284417D01*
X151175826Y-72284419D01*
X151330028Y-72464966D01*
X151330031Y-72464969D01*
X151409179Y-72532568D01*
X151452057Y-72569189D01*
X151490866Y-72628640D01*
X151491372Y-72699634D01*
X151453416Y-72759633D01*
X151452057Y-72760811D01*
X151330028Y-72865033D01*
X151175826Y-73045580D01*
X151175825Y-73045582D01*
X151051759Y-73248038D01*
X150960894Y-73467407D01*
X150905465Y-73698289D01*
X150886835Y-73935000D01*
X150905465Y-74171710D01*
X150960894Y-74402592D01*
X150960895Y-74402594D01*
X151051760Y-74621963D01*
X151135721Y-74758975D01*
X151175825Y-74824417D01*
X151175826Y-74824419D01*
X151265663Y-74929604D01*
X151330031Y-75004969D01*
X151364405Y-75034327D01*
X151452057Y-75109189D01*
X151490866Y-75168640D01*
X151491372Y-75239634D01*
X151453416Y-75299633D01*
X151452069Y-75300799D01*
X151427511Y-75321775D01*
X151330028Y-75405033D01*
X151175826Y-75585580D01*
X151175825Y-75585582D01*
X151051759Y-75788038D01*
X150960894Y-76007407D01*
X150905465Y-76238289D01*
X150886835Y-76475000D01*
X150905465Y-76711710D01*
X150960894Y-76942592D01*
X151050179Y-77158145D01*
X151051760Y-77161963D01*
X151174386Y-77362070D01*
X151175825Y-77364417D01*
X151175826Y-77364419D01*
X151322088Y-77535669D01*
X151330031Y-77544969D01*
X151382580Y-77589850D01*
X151452057Y-77649189D01*
X151490866Y-77708640D01*
X151491372Y-77779634D01*
X151453416Y-77839633D01*
X151452057Y-77840811D01*
X151330028Y-77945033D01*
X151175826Y-78125580D01*
X151175825Y-78125582D01*
X151051759Y-78328038D01*
X150960894Y-78547407D01*
X150905465Y-78778289D01*
X150886835Y-79015000D01*
X150905465Y-79251710D01*
X150960894Y-79482592D01*
X150960895Y-79482594D01*
X151051760Y-79701963D01*
X151160652Y-79879658D01*
X151175825Y-79904417D01*
X151175826Y-79904419D01*
X151330028Y-80084966D01*
X151330031Y-80084969D01*
X151428179Y-80168795D01*
X151452057Y-80189189D01*
X151490866Y-80248640D01*
X151491372Y-80319634D01*
X151453416Y-80379633D01*
X151452057Y-80380811D01*
X151330028Y-80485033D01*
X151175826Y-80665580D01*
X151175825Y-80665582D01*
X151051759Y-80868038D01*
X150960894Y-81087407D01*
X150905465Y-81318289D01*
X150886835Y-81555000D01*
X150905465Y-81791710D01*
X150960894Y-82022592D01*
X151047113Y-82230743D01*
X151051760Y-82241963D01*
X151165898Y-82428219D01*
X151175825Y-82444417D01*
X151175826Y-82444419D01*
X151309484Y-82600912D01*
X151330031Y-82624969D01*
X151452057Y-82729189D01*
X151490866Y-82788640D01*
X151491372Y-82859634D01*
X151453416Y-82919633D01*
X151452057Y-82920811D01*
X151330028Y-83025033D01*
X151175826Y-83205580D01*
X151175825Y-83205582D01*
X151051759Y-83408038D01*
X150960894Y-83627407D01*
X150905465Y-83858289D01*
X150886835Y-84095000D01*
X150905465Y-84331710D01*
X150960894Y-84562592D01*
X150960895Y-84562594D01*
X151051760Y-84781963D01*
X151165898Y-84968219D01*
X151175825Y-84984417D01*
X151175826Y-84984419D01*
X151303303Y-85133675D01*
X151330031Y-85164969D01*
X151424282Y-85245467D01*
X151452057Y-85269189D01*
X151490866Y-85328640D01*
X151491372Y-85399634D01*
X151453416Y-85459633D01*
X151452057Y-85460811D01*
X151330028Y-85565033D01*
X151175826Y-85745580D01*
X151175825Y-85745582D01*
X151051759Y-85948038D01*
X150960894Y-86167407D01*
X150905465Y-86398289D01*
X150886835Y-86635000D01*
X150905465Y-86871710D01*
X150960894Y-87102592D01*
X151051759Y-87321961D01*
X151175823Y-87524415D01*
X151177234Y-87526068D01*
X151184322Y-87534366D01*
X151213354Y-87599155D01*
X151202750Y-87669355D01*
X151160252Y-87717698D01*
X151161010Y-87718710D01*
X151156193Y-87722315D01*
X151155875Y-87722678D01*
X151155099Y-87723134D01*
X151036738Y-87811738D01*
X150949112Y-87928792D01*
X150949110Y-87928797D01*
X150898011Y-88065795D01*
X150898009Y-88065803D01*
X150891500Y-88126350D01*
X150891500Y-90223649D01*
X150898009Y-90284196D01*
X150898011Y-90284204D01*
X150949110Y-90421202D01*
X150949112Y-90421207D01*
X151036738Y-90538261D01*
X151153792Y-90625887D01*
X151153794Y-90625888D01*
X151153796Y-90625889D01*
X151212875Y-90647924D01*
X151290795Y-90676988D01*
X151290803Y-90676990D01*
X151351350Y-90683499D01*
X151351355Y-90683499D01*
X151351362Y-90683500D01*
X152076522Y-90683500D01*
X152144643Y-90703502D01*
X152165617Y-90720405D01*
X156489121Y-95043909D01*
X156498535Y-95054443D01*
X156520681Y-95082212D01*
X156520686Y-95082218D01*
X156545660Y-95104037D01*
X156570878Y-95126070D01*
X156577072Y-95131861D01*
X156584062Y-95138851D01*
X156584068Y-95138856D01*
X156584073Y-95138861D01*
X156615602Y-95165183D01*
X156617644Y-95166926D01*
X156691282Y-95231263D01*
X156694977Y-95233470D01*
X156711095Y-95244907D01*
X156714402Y-95247668D01*
X156714412Y-95247675D01*
X156765269Y-95276532D01*
X156799428Y-95295914D01*
X156801847Y-95297323D01*
X156885746Y-95347451D01*
X156885747Y-95347451D01*
X156885750Y-95347453D01*
X156889780Y-95348965D01*
X156907692Y-95357345D01*
X156911435Y-95359469D01*
X156943084Y-95370542D01*
X157003739Y-95391766D01*
X157006254Y-95392678D01*
X157097839Y-95427051D01*
X157102067Y-95427818D01*
X157121193Y-95432865D01*
X157125255Y-95434287D01*
X157221867Y-95449589D01*
X157224485Y-95450033D01*
X157308450Y-95465271D01*
X157320732Y-95467500D01*
X157320733Y-95467500D01*
X157325034Y-95467500D01*
X157344743Y-95469051D01*
X157347051Y-95469416D01*
X157349000Y-95469725D01*
X157446710Y-95467531D01*
X157449537Y-95467500D01*
X162396234Y-95467500D01*
X162464355Y-95487502D01*
X162471735Y-95492626D01*
X162494793Y-95509887D01*
X162494796Y-95509889D01*
X162631795Y-95560988D01*
X162631803Y-95560990D01*
X162692350Y-95567499D01*
X162692355Y-95567499D01*
X162692362Y-95567500D01*
X162692368Y-95567500D01*
X164489632Y-95567500D01*
X164489638Y-95567500D01*
X164489645Y-95567499D01*
X164489649Y-95567499D01*
X164550196Y-95560990D01*
X164550199Y-95560989D01*
X164550201Y-95560989D01*
X164687204Y-95509889D01*
X164705650Y-95496081D01*
X164804261Y-95422261D01*
X164891887Y-95305207D01*
X164891887Y-95305206D01*
X164891889Y-95305204D01*
X164942989Y-95168201D01*
X164943222Y-95166040D01*
X164949499Y-95107649D01*
X164949500Y-95107632D01*
X164949500Y-93310367D01*
X164949499Y-93310350D01*
X164942990Y-93249803D01*
X164942988Y-93249795D01*
X164904946Y-93147803D01*
X164891889Y-93112796D01*
X164891888Y-93112794D01*
X164891887Y-93112792D01*
X164804261Y-92995738D01*
X164687207Y-92908112D01*
X164687202Y-92908110D01*
X164550204Y-92857011D01*
X164550196Y-92857009D01*
X164489649Y-92850500D01*
X164489638Y-92850500D01*
X162692362Y-92850500D01*
X162692350Y-92850500D01*
X162631803Y-92857009D01*
X162631795Y-92857011D01*
X162494797Y-92908110D01*
X162494796Y-92908110D01*
X162487470Y-92913595D01*
X162471742Y-92925368D01*
X162405224Y-92950179D01*
X162396234Y-92950500D01*
X158007478Y-92950500D01*
X157939357Y-92930498D01*
X157918383Y-92913595D01*
X153945405Y-88940617D01*
X153911379Y-88878305D01*
X153908500Y-88851522D01*
X153908500Y-88126367D01*
X153908499Y-88126350D01*
X153901990Y-88065803D01*
X153901988Y-88065795D01*
X153859105Y-87950824D01*
X153850889Y-87928796D01*
X153850888Y-87928794D01*
X153850887Y-87928792D01*
X153763261Y-87811738D01*
X153638990Y-87718710D01*
X153640716Y-87716403D01*
X153600894Y-87676573D01*
X153585809Y-87607198D01*
X153610625Y-87540680D01*
X153615649Y-87534399D01*
X153624176Y-87524416D01*
X153748240Y-87321963D01*
X153839105Y-87102594D01*
X153894535Y-86871711D01*
X153913165Y-86635000D01*
X153894535Y-86398289D01*
X153839105Y-86167406D01*
X153748240Y-85948037D01*
X153624176Y-85745584D01*
X153624173Y-85745580D01*
X153469969Y-85565030D01*
X153347943Y-85460811D01*
X153309134Y-85401361D01*
X153308626Y-85330366D01*
X153346582Y-85270367D01*
X153347943Y-85269189D01*
X153378203Y-85243345D01*
X153469969Y-85164969D01*
X153624176Y-84984416D01*
X153748240Y-84781963D01*
X153839105Y-84562594D01*
X153894535Y-84331711D01*
X153913165Y-84095000D01*
X153894535Y-83858289D01*
X153839105Y-83627406D01*
X153748240Y-83408037D01*
X153624176Y-83205584D01*
X153624173Y-83205580D01*
X153469969Y-83025030D01*
X153347943Y-82920811D01*
X153309134Y-82861361D01*
X153308626Y-82790366D01*
X153346582Y-82730367D01*
X153347943Y-82729189D01*
X153356903Y-82721537D01*
X153469969Y-82624969D01*
X153624176Y-82444416D01*
X153748240Y-82241963D01*
X153839105Y-82022594D01*
X153894535Y-81791711D01*
X153913165Y-81555000D01*
X153894535Y-81318289D01*
X153839105Y-81087406D01*
X153748240Y-80868037D01*
X153624176Y-80665584D01*
X153558558Y-80588755D01*
X153469969Y-80485030D01*
X153347943Y-80380811D01*
X153309134Y-80321361D01*
X153308626Y-80250366D01*
X153346582Y-80190367D01*
X153347943Y-80189189D01*
X153389778Y-80153459D01*
X153469969Y-80084969D01*
X153624176Y-79904416D01*
X153748240Y-79701963D01*
X153839105Y-79482594D01*
X153894535Y-79251711D01*
X153913165Y-79015000D01*
X153894535Y-78778289D01*
X153839105Y-78547406D01*
X153748240Y-78328037D01*
X153624176Y-78125584D01*
X153620026Y-78120725D01*
X153466809Y-77941330D01*
X153437778Y-77876541D01*
X153448383Y-77806341D01*
X153495258Y-77753018D01*
X153562620Y-77733500D01*
X155274721Y-77733500D01*
X155342842Y-77753502D01*
X155357618Y-77764611D01*
X155359830Y-77766543D01*
X155371881Y-77777072D01*
X155378072Y-77782861D01*
X155385062Y-77789851D01*
X155385068Y-77789856D01*
X155385073Y-77789861D01*
X155416602Y-77816183D01*
X155418644Y-77817926D01*
X155492282Y-77882263D01*
X155495977Y-77884470D01*
X155512095Y-77895907D01*
X155515402Y-77898668D01*
X155515412Y-77898675D01*
X155555611Y-77921484D01*
X155600428Y-77946914D01*
X155602847Y-77948323D01*
X155686746Y-77998451D01*
X155686747Y-77998451D01*
X155686750Y-77998453D01*
X155690780Y-77999965D01*
X155708692Y-78008345D01*
X155711294Y-78009822D01*
X155712433Y-78010468D01*
X155804763Y-78042775D01*
X155807249Y-78043677D01*
X155898839Y-78078051D01*
X155903072Y-78078819D01*
X155922184Y-78083862D01*
X155926254Y-78085287D01*
X156022825Y-78100581D01*
X156025536Y-78101042D01*
X156121733Y-78118500D01*
X156126034Y-78118500D01*
X156145743Y-78120051D01*
X156148051Y-78120416D01*
X156150000Y-78120725D01*
X156247710Y-78118531D01*
X156250537Y-78118500D01*
X160496989Y-78118500D01*
X160537901Y-78125327D01*
X160592493Y-78144068D01*
X160701365Y-78181444D01*
X160923431Y-78218500D01*
X160923435Y-78218500D01*
X161148565Y-78218500D01*
X161148569Y-78218500D01*
X161370635Y-78181444D01*
X161583574Y-78108342D01*
X161781576Y-78001189D01*
X161959240Y-77862906D01*
X162111722Y-77697268D01*
X162200518Y-77561354D01*
X162254520Y-77515268D01*
X162324868Y-77505692D01*
X162389225Y-77535669D01*
X162411480Y-77561353D01*
X162444607Y-77612058D01*
X162500275Y-77697265D01*
X162500279Y-77697270D01*
X162586403Y-77790824D01*
X162631335Y-77839633D01*
X162652762Y-77862908D01*
X162698710Y-77898671D01*
X162830424Y-78001189D01*
X163028426Y-78108342D01*
X163028427Y-78108342D01*
X163028428Y-78108343D01*
X163111889Y-78136995D01*
X163241365Y-78181444D01*
X163463431Y-78218500D01*
X163463435Y-78218500D01*
X163688565Y-78218500D01*
X163688569Y-78218500D01*
X163910635Y-78181444D01*
X164123574Y-78108342D01*
X164321576Y-78001189D01*
X164499240Y-77862906D01*
X164651722Y-77697268D01*
X164774860Y-77508791D01*
X164865296Y-77302616D01*
X164920564Y-77084368D01*
X164939156Y-76860000D01*
X164920564Y-76635632D01*
X164899621Y-76552929D01*
X164865297Y-76417387D01*
X164865295Y-76417381D01*
X164845112Y-76371367D01*
X164834500Y-76320755D01*
X164834500Y-75735674D01*
X164835292Y-75721568D01*
X164836914Y-75707171D01*
X164839269Y-75686271D01*
X164834785Y-75619764D01*
X164834500Y-75611289D01*
X164834500Y-75601403D01*
X164834500Y-75601397D01*
X164830821Y-75560526D01*
X164830607Y-75557810D01*
X164824030Y-75460251D01*
X164824029Y-75460248D01*
X164824029Y-75460244D01*
X164822980Y-75456081D01*
X164819667Y-75436583D01*
X164819281Y-75432298D01*
X164811756Y-75405031D01*
X164793268Y-75338046D01*
X164792559Y-75335356D01*
X164781581Y-75291789D01*
X164768679Y-75240582D01*
X164768678Y-75240580D01*
X164768677Y-75240575D01*
X164766899Y-75236662D01*
X164760155Y-75218062D01*
X164759724Y-75216500D01*
X164759014Y-75213926D01*
X164716616Y-75125888D01*
X164715427Y-75123344D01*
X164674996Y-75034333D01*
X164674993Y-75034327D01*
X164672546Y-75030795D01*
X164662590Y-75013699D01*
X164660726Y-75009829D01*
X164660725Y-75009826D01*
X164603281Y-74930761D01*
X164601646Y-74928457D01*
X164545987Y-74848120D01*
X164545985Y-74848117D01*
X164545980Y-74848112D01*
X164545974Y-74848105D01*
X164542945Y-74845076D01*
X164530105Y-74830043D01*
X164527572Y-74826557D01*
X164527569Y-74826554D01*
X164456887Y-74758975D01*
X164454866Y-74756998D01*
X162797959Y-73100090D01*
X162788543Y-73089554D01*
X162766398Y-73061785D01*
X162766395Y-73061782D01*
X162716181Y-73017912D01*
X162710015Y-73012146D01*
X162703008Y-73005139D01*
X162671493Y-72978829D01*
X162669410Y-72977049D01*
X162595808Y-72912744D01*
X162595799Y-72912737D01*
X162592097Y-72910525D01*
X162575979Y-72899087D01*
X162572677Y-72896330D01*
X162563769Y-72891275D01*
X162487612Y-72848062D01*
X162485246Y-72846684D01*
X162401331Y-72796547D01*
X162401324Y-72796544D01*
X162401318Y-72796541D01*
X162397289Y-72795029D01*
X162379393Y-72786657D01*
X162375648Y-72784532D01*
X162375645Y-72784530D01*
X162324707Y-72766707D01*
X162283373Y-72752243D01*
X162280775Y-72751302D01*
X162189245Y-72716950D01*
X162189243Y-72716949D01*
X162189242Y-72716949D01*
X162189240Y-72716948D01*
X162189231Y-72716946D01*
X162184989Y-72716176D01*
X162165895Y-72711136D01*
X162161829Y-72709713D01*
X162065258Y-72694416D01*
X162062475Y-72693943D01*
X161966352Y-72676500D01*
X161966348Y-72676500D01*
X161962047Y-72676500D01*
X161942338Y-72674949D01*
X161938085Y-72674275D01*
X161938078Y-72674275D01*
X161840370Y-72676468D01*
X161837543Y-72676500D01*
X153562620Y-72676500D01*
X153494499Y-72656498D01*
X153448006Y-72602842D01*
X153437902Y-72532568D01*
X153466809Y-72468670D01*
X153624173Y-72284419D01*
X153624176Y-72284416D01*
X153748240Y-72081963D01*
X153839105Y-71862594D01*
X153894535Y-71631711D01*
X153913165Y-71395000D01*
X153894535Y-71158289D01*
X153839105Y-70927406D01*
X153748240Y-70708037D01*
X153624176Y-70505584D01*
X153592505Y-70468502D01*
X153466809Y-70321330D01*
X153437778Y-70256541D01*
X153448383Y-70186341D01*
X153495258Y-70133018D01*
X153562620Y-70113500D01*
X155984244Y-70113500D01*
X155998350Y-70114292D01*
X156003545Y-70114877D01*
X156033648Y-70118269D01*
X156100153Y-70113785D01*
X156108628Y-70113500D01*
X156118516Y-70113500D01*
X156118522Y-70113500D01*
X156159363Y-70109824D01*
X156162128Y-70109606D01*
X156259668Y-70103030D01*
X156263834Y-70101980D01*
X156283329Y-70098667D01*
X156287622Y-70098281D01*
X156381922Y-70072255D01*
X156384527Y-70071568D01*
X156479337Y-70047679D01*
X156483248Y-70045902D01*
X156501850Y-70039157D01*
X156505993Y-70038014D01*
X156594084Y-69995590D01*
X156596516Y-69994452D01*
X156685590Y-69953994D01*
X156689107Y-69951557D01*
X156706225Y-69941586D01*
X156710093Y-69939725D01*
X156789169Y-69882270D01*
X156791404Y-69880683D01*
X156871802Y-69824986D01*
X156874843Y-69821943D01*
X156889878Y-69809102D01*
X156893363Y-69806571D01*
X156960964Y-69735864D01*
X156962855Y-69733931D01*
X158187919Y-68508867D01*
X158198436Y-68499468D01*
X158226218Y-68477314D01*
X158270094Y-68427092D01*
X158275845Y-68420941D01*
X158282861Y-68413927D01*
X158309163Y-68382420D01*
X158310939Y-68380342D01*
X158375263Y-68306718D01*
X158377468Y-68303026D01*
X158388917Y-68286890D01*
X158391671Y-68283593D01*
X158439889Y-68198613D01*
X158441291Y-68196204D01*
X158491453Y-68112250D01*
X158492964Y-68108222D01*
X158501346Y-68090305D01*
X158503468Y-68086567D01*
X158535780Y-67994221D01*
X158536697Y-67991694D01*
X158571051Y-67900161D01*
X158571818Y-67895930D01*
X158576866Y-67876807D01*
X158578288Y-67872745D01*
X158593585Y-67776153D01*
X158594043Y-67773454D01*
X158611500Y-67677267D01*
X158611500Y-67672965D01*
X158613051Y-67653254D01*
X158613725Y-67649000D01*
X158611532Y-67551288D01*
X158611500Y-67548461D01*
X158611500Y-65593484D01*
X158611500Y-65593478D01*
X158596390Y-65425584D01*
X158596281Y-65424376D01*
X158536015Y-65206009D01*
X158453206Y-65034052D01*
X158441671Y-64963998D01*
X158469841Y-64898830D01*
X158495746Y-64875280D01*
X158548219Y-64839505D01*
X158563787Y-64825059D01*
X158599273Y-64792135D01*
X158662814Y-64760464D01*
X158684974Y-64758500D01*
X161097522Y-64758500D01*
X161165643Y-64778502D01*
X161186617Y-64795405D01*
X161645595Y-65254383D01*
X161679621Y-65316695D01*
X161682500Y-65343478D01*
X161682500Y-66902490D01*
X161662498Y-66970611D01*
X161616471Y-67013303D01*
X161580426Y-67032810D01*
X161580424Y-67032811D01*
X161402762Y-67171091D01*
X161250279Y-67336729D01*
X161250275Y-67336734D01*
X161127141Y-67525206D01*
X161036703Y-67731386D01*
X161036702Y-67731387D01*
X160981437Y-67949624D01*
X160981436Y-67949630D01*
X160981436Y-67949632D01*
X160962844Y-68174000D01*
X160980118Y-68382465D01*
X160981437Y-68398375D01*
X161036702Y-68616612D01*
X161036703Y-68616613D01*
X161036704Y-68616616D01*
X161095291Y-68750181D01*
X161127141Y-68822793D01*
X161250275Y-69011265D01*
X161250279Y-69011270D01*
X161402762Y-69176908D01*
X161419583Y-69190000D01*
X161580424Y-69315189D01*
X161778426Y-69422342D01*
X161778427Y-69422342D01*
X161778428Y-69422343D01*
X161845542Y-69445383D01*
X161991365Y-69495444D01*
X162213431Y-69532500D01*
X162213435Y-69532500D01*
X162438565Y-69532500D01*
X162438569Y-69532500D01*
X162660635Y-69495444D01*
X162873574Y-69422342D01*
X163071576Y-69315189D01*
X163249240Y-69176906D01*
X163401722Y-69011268D01*
X163524860Y-68822791D01*
X163568362Y-68723612D01*
X163594651Y-68685135D01*
X163775919Y-68503867D01*
X163786436Y-68494468D01*
X163814218Y-68472314D01*
X163858094Y-68422092D01*
X163863845Y-68415941D01*
X163870861Y-68408927D01*
X163897224Y-68377346D01*
X163898874Y-68375415D01*
X163963263Y-68301718D01*
X163965463Y-68298034D01*
X163976911Y-68281899D01*
X163979671Y-68278594D01*
X164027933Y-68193535D01*
X164029302Y-68191186D01*
X164079453Y-68107250D01*
X164080966Y-68103216D01*
X164089350Y-68085297D01*
X164091466Y-68081568D01*
X164091467Y-68081567D01*
X164123768Y-67989254D01*
X164124673Y-67986757D01*
X164159051Y-67895161D01*
X164159820Y-67890918D01*
X164164866Y-67871804D01*
X164166287Y-67867746D01*
X164181581Y-67771177D01*
X164182034Y-67768510D01*
X164199500Y-67672267D01*
X164199500Y-67667959D01*
X164201051Y-67648249D01*
X164201224Y-67647158D01*
X164201724Y-67644000D01*
X164199532Y-67546314D01*
X164199500Y-67543487D01*
X164199500Y-64847755D01*
X164200292Y-64833649D01*
X164203306Y-64806896D01*
X164204269Y-64798352D01*
X164199785Y-64731845D01*
X164199500Y-64723370D01*
X164199500Y-64713484D01*
X164199500Y-64713478D01*
X164195821Y-64672607D01*
X164195607Y-64669891D01*
X164189030Y-64572332D01*
X164189029Y-64572329D01*
X164189029Y-64572325D01*
X164187980Y-64568162D01*
X164184667Y-64548664D01*
X164184281Y-64544379D01*
X164184281Y-64544378D01*
X164158268Y-64450127D01*
X164157559Y-64447437D01*
X164133677Y-64352656D01*
X164131899Y-64348743D01*
X164125155Y-64330143D01*
X164124014Y-64326007D01*
X164081616Y-64237969D01*
X164080427Y-64235425D01*
X164039996Y-64146414D01*
X164039993Y-64146408D01*
X164037546Y-64142876D01*
X164027590Y-64125780D01*
X164025726Y-64121910D01*
X164025725Y-64121907D01*
X163968274Y-64042833D01*
X163966687Y-64040598D01*
X163910986Y-63960198D01*
X163907943Y-63957155D01*
X163895098Y-63942115D01*
X163892574Y-63938641D01*
X163892573Y-63938640D01*
X163892571Y-63938637D01*
X163821909Y-63871077D01*
X163819888Y-63869100D01*
X162615878Y-62665090D01*
X162606462Y-62654554D01*
X162584317Y-62626785D01*
X162584314Y-62626782D01*
X162534101Y-62582913D01*
X162527935Y-62577147D01*
X162520927Y-62570139D01*
X162489412Y-62543829D01*
X162487329Y-62542049D01*
X162413727Y-62477744D01*
X162413718Y-62477737D01*
X162410016Y-62475525D01*
X162393898Y-62464087D01*
X162390596Y-62461330D01*
X162381688Y-62456275D01*
X162305531Y-62413062D01*
X162303165Y-62411684D01*
X162298989Y-62409189D01*
X162219250Y-62361547D01*
X162219243Y-62361544D01*
X162219237Y-62361541D01*
X162215208Y-62360029D01*
X162197312Y-62351657D01*
X162193567Y-62349532D01*
X162193564Y-62349530D01*
X162142626Y-62331707D01*
X162101292Y-62317243D01*
X162098694Y-62316302D01*
X162007164Y-62281950D01*
X162007162Y-62281949D01*
X162007161Y-62281949D01*
X162007159Y-62281948D01*
X162007150Y-62281946D01*
X162002908Y-62281176D01*
X161983814Y-62276136D01*
X161979748Y-62274713D01*
X161883177Y-62259416D01*
X161880394Y-62258943D01*
X161784271Y-62241500D01*
X161784267Y-62241500D01*
X161779966Y-62241500D01*
X161760257Y-62239949D01*
X161756004Y-62239275D01*
X161755997Y-62239275D01*
X161658289Y-62241468D01*
X161655462Y-62241500D01*
X158684974Y-62241500D01*
X158616853Y-62221498D01*
X158599273Y-62207865D01*
X158548225Y-62160500D01*
X158548218Y-62160494D01*
X158336647Y-62016247D01*
X158336646Y-62016246D01*
X158336643Y-62016245D01*
X158336641Y-62016243D01*
X158336640Y-62016242D01*
X158105936Y-61905142D01*
X158105929Y-61905139D01*
X157861253Y-61829667D01*
X157861245Y-61829665D01*
X157861243Y-61829665D01*
X157608034Y-61791500D01*
X157351966Y-61791500D01*
X157098757Y-61829665D01*
X157098755Y-61829665D01*
X157098746Y-61829667D01*
X156854073Y-61905138D01*
X156854060Y-61905143D01*
X156623352Y-62016247D01*
X156623345Y-62016251D01*
X156411787Y-62160490D01*
X156411782Y-62160494D01*
X156280885Y-62281949D01*
X156224069Y-62334666D01*
X156212214Y-62349532D01*
X156064410Y-62534872D01*
X155936376Y-62756633D01*
X155936374Y-62756637D01*
X155842827Y-62994994D01*
X155842826Y-62994997D01*
X155785845Y-63244643D01*
X155766709Y-63500000D01*
X155785845Y-63755356D01*
X155842826Y-64005002D01*
X155842827Y-64005005D01*
X155936374Y-64243362D01*
X155936376Y-64243366D01*
X156064410Y-64465127D01*
X156064412Y-64465130D01*
X156064413Y-64465131D01*
X156224069Y-64665334D01*
X156291197Y-64727619D01*
X156310898Y-64745899D01*
X156347229Y-64806896D01*
X156344816Y-64877851D01*
X156333361Y-64902889D01*
X156214549Y-65101746D01*
X156214548Y-65101747D01*
X156134947Y-65313843D01*
X156094500Y-65536729D01*
X156094500Y-66990522D01*
X156074498Y-67058643D01*
X156057595Y-67079617D01*
X155577617Y-67559595D01*
X155515305Y-67593621D01*
X155488522Y-67596500D01*
X153562620Y-67596500D01*
X153494499Y-67576498D01*
X153448006Y-67522842D01*
X153437902Y-67452568D01*
X153466809Y-67388670D01*
X153624173Y-67204419D01*
X153624176Y-67204416D01*
X153748240Y-67001963D01*
X153839105Y-66782594D01*
X153894535Y-66551711D01*
X153913165Y-66315000D01*
X153894535Y-66078289D01*
X153839105Y-65847406D01*
X153748240Y-65628037D01*
X153624176Y-65425584D01*
X153623146Y-65424378D01*
X153469969Y-65245030D01*
X153347943Y-65140811D01*
X153309134Y-65081361D01*
X153308626Y-65010366D01*
X153346582Y-64950367D01*
X153347943Y-64949189D01*
X153389778Y-64913459D01*
X153469969Y-64844969D01*
X153624176Y-64664416D01*
X153748240Y-64461963D01*
X153839105Y-64242594D01*
X153894535Y-64011711D01*
X153913165Y-63775000D01*
X153894535Y-63538289D01*
X153839105Y-63307406D01*
X153748240Y-63088037D01*
X153624176Y-62885584D01*
X153514045Y-62756637D01*
X153469969Y-62705030D01*
X153347943Y-62600811D01*
X153309134Y-62541361D01*
X153308626Y-62470366D01*
X153346582Y-62410367D01*
X153347943Y-62409189D01*
X153469969Y-62304969D01*
X153489630Y-62281949D01*
X153624176Y-62124416D01*
X153748240Y-61921963D01*
X153839105Y-61702594D01*
X153894535Y-61471711D01*
X153913165Y-61235000D01*
X153894535Y-60998289D01*
X153839105Y-60767406D01*
X153748240Y-60548037D01*
X153624176Y-60345584D01*
X153624173Y-60345580D01*
X153469969Y-60165030D01*
X153347943Y-60060811D01*
X153309134Y-60001361D01*
X153308626Y-59930366D01*
X153346582Y-59870367D01*
X153347943Y-59869189D01*
X153469969Y-59764969D01*
X153624173Y-59584419D01*
X153624176Y-59584416D01*
X153748240Y-59381963D01*
X153839105Y-59162594D01*
X153894535Y-58931711D01*
X153913165Y-58695000D01*
X153894535Y-58458289D01*
X153839105Y-58227406D01*
X153777028Y-58077537D01*
X156027059Y-58077537D01*
X156027059Y-61405119D01*
X162925791Y-61405119D01*
X162925791Y-58077537D01*
X156027059Y-58077537D01*
X153777028Y-58077537D01*
X153748240Y-58008037D01*
X153624176Y-57805584D01*
X153624173Y-57805580D01*
X153466809Y-57621330D01*
X153437778Y-57556541D01*
X153448383Y-57486341D01*
X153495258Y-57433018D01*
X153562620Y-57413500D01*
X161953244Y-57413500D01*
X161967350Y-57414292D01*
X161972545Y-57414877D01*
X162002648Y-57418269D01*
X162069153Y-57413785D01*
X162077628Y-57413500D01*
X162087516Y-57413500D01*
X162087522Y-57413500D01*
X162128363Y-57409824D01*
X162131128Y-57409606D01*
X162228668Y-57403030D01*
X162232834Y-57401980D01*
X162252329Y-57398667D01*
X162256622Y-57398281D01*
X162350922Y-57372255D01*
X162353527Y-57371568D01*
X162448337Y-57347679D01*
X162452248Y-57345902D01*
X162470850Y-57339157D01*
X162474993Y-57338014D01*
X162563084Y-57295590D01*
X162565516Y-57294452D01*
X162654590Y-57253994D01*
X162658107Y-57251557D01*
X162675225Y-57241586D01*
X162679093Y-57239725D01*
X162758169Y-57182270D01*
X162760404Y-57180683D01*
X162840802Y-57124986D01*
X162843843Y-57121943D01*
X162858878Y-57109102D01*
X162862363Y-57106571D01*
X162929964Y-57035864D01*
X162931855Y-57033931D01*
X164078402Y-55887384D01*
X164119402Y-55861800D01*
X164118803Y-55860434D01*
X164123560Y-55858346D01*
X164123574Y-55858342D01*
X164321576Y-55751189D01*
X164499240Y-55612906D01*
X164651722Y-55447268D01*
X164774860Y-55258791D01*
X164865296Y-55052616D01*
X164920564Y-54834368D01*
X164939156Y-54610000D01*
X164920564Y-54385632D01*
X164865296Y-54167384D01*
X164774860Y-53961209D01*
X164768140Y-53950924D01*
X164651724Y-53772734D01*
X164651720Y-53772729D01*
X164499237Y-53607091D01*
X164349751Y-53490741D01*
X164321576Y-53468811D01*
X164123574Y-53361658D01*
X164123572Y-53361657D01*
X164123571Y-53361656D01*
X163910639Y-53288557D01*
X163910630Y-53288555D01*
X163866476Y-53281187D01*
X163688569Y-53251500D01*
X163463431Y-53251500D01*
X163315211Y-53276233D01*
X163241369Y-53288555D01*
X163241360Y-53288557D01*
X163028428Y-53361656D01*
X163028426Y-53361658D01*
X162830426Y-53468810D01*
X162830424Y-53468811D01*
X162652762Y-53607091D01*
X162500279Y-53772729D01*
X162500275Y-53772734D01*
X162377139Y-53961209D01*
X162333638Y-54060382D01*
X162307347Y-54098863D01*
X161546617Y-54859595D01*
X161484304Y-54893620D01*
X161457521Y-54896500D01*
X153562620Y-54896500D01*
X153494499Y-54876498D01*
X153448006Y-54822842D01*
X153437902Y-54752568D01*
X153466809Y-54688670D01*
X153624173Y-54504419D01*
X153624176Y-54504416D01*
X153748240Y-54301963D01*
X153839105Y-54082594D01*
X153894535Y-53851711D01*
X153913165Y-53615000D01*
X153894535Y-53378289D01*
X153839105Y-53147406D01*
X153748240Y-52928037D01*
X153624176Y-52725584D01*
X153616418Y-52716500D01*
X153469969Y-52545030D01*
X153289419Y-52390826D01*
X153289417Y-52390825D01*
X153289416Y-52390824D01*
X153086963Y-52266760D01*
X152872457Y-52177909D01*
X152867592Y-52175894D01*
X152690427Y-52133361D01*
X152636711Y-52120465D01*
X152515376Y-52110915D01*
X152449036Y-52085630D01*
X152406897Y-52028492D01*
X152402338Y-51957642D01*
X152436807Y-51895574D01*
X152493182Y-51864681D01*
X152492913Y-51863809D01*
X152497172Y-51862495D01*
X152497233Y-51862461D01*
X152497416Y-51862420D01*
X152741643Y-51766568D01*
X152741645Y-51766566D01*
X152741647Y-51766566D01*
X152855250Y-51700977D01*
X152968857Y-51635386D01*
X153173981Y-51471805D01*
X153352433Y-51279479D01*
X153500228Y-51062704D01*
X153614063Y-50826323D01*
X153691396Y-50575615D01*
X153730500Y-50316182D01*
X153730500Y-50053818D01*
X153691396Y-49794385D01*
X153691395Y-49794383D01*
X153691395Y-49794380D01*
X153614066Y-49543685D01*
X153614061Y-49543672D01*
X153541083Y-49392132D01*
X153500228Y-49307296D01*
X153500226Y-49307293D01*
X153500222Y-49307286D01*
X153352437Y-49090527D01*
X153352433Y-49090521D01*
X153173981Y-48898195D01*
X152968857Y-48734614D01*
X152968852Y-48734611D01*
X152968853Y-48734611D01*
X152741647Y-48603433D01*
X152741639Y-48603430D01*
X152497419Y-48507581D01*
X152497417Y-48507580D01*
X152241633Y-48449198D01*
X152094528Y-48438174D01*
X152045494Y-48434500D01*
X151914506Y-48434500D01*
X151875278Y-48437439D01*
X151718366Y-48449198D01*
X151462582Y-48507580D01*
X151462580Y-48507581D01*
X151218360Y-48603430D01*
X151218352Y-48603433D01*
X150991146Y-48734611D01*
X150786018Y-48898195D01*
X150607566Y-49090522D01*
X150607562Y-49090527D01*
X150459777Y-49307286D01*
X150459773Y-49307293D01*
X150345938Y-49543672D01*
X150345933Y-49543685D01*
X150268604Y-49794380D01*
X150261678Y-49840332D01*
X150229500Y-50053818D01*
X150229500Y-50316182D01*
X150251224Y-50460311D01*
X150268604Y-50575619D01*
X150345933Y-50826314D01*
X150345938Y-50826327D01*
X150459773Y-51062706D01*
X150459777Y-51062713D01*
X150607562Y-51279472D01*
X150607567Y-51279479D01*
X150786019Y-51471805D01*
X150991143Y-51635386D01*
X150991146Y-51635388D01*
X151218352Y-51766566D01*
X151218356Y-51766567D01*
X151218357Y-51766568D01*
X151462584Y-51862420D01*
X151718370Y-51920802D01*
X151893412Y-51933919D01*
X151959845Y-51958955D01*
X152002199Y-52015935D01*
X152007023Y-52086767D01*
X151972786Y-52148964D01*
X151932212Y-52175975D01*
X151713038Y-52266759D01*
X151510582Y-52390825D01*
X151510580Y-52390826D01*
X151330030Y-52545030D01*
X151175826Y-52725580D01*
X151175825Y-52725582D01*
X151051759Y-52928038D01*
X150960894Y-53147407D01*
X150905465Y-53378289D01*
X150886835Y-53615000D01*
X150905465Y-53851710D01*
X150960894Y-54082592D01*
X150960895Y-54082594D01*
X151051760Y-54301963D01*
X151156619Y-54473077D01*
X151175825Y-54504417D01*
X151175826Y-54504419D01*
X151330028Y-54684966D01*
X151330031Y-54684969D01*
X151406758Y-54750500D01*
X151452057Y-54789189D01*
X151490866Y-54848640D01*
X151491372Y-54919634D01*
X151453416Y-54979633D01*
X151452057Y-54980811D01*
X151330028Y-55085033D01*
X151175826Y-55265580D01*
X151175825Y-55265582D01*
X151051759Y-55468038D01*
X150960894Y-55687407D01*
X150905465Y-55918289D01*
X150886835Y-56155000D01*
X150905465Y-56391710D01*
X150960894Y-56622592D01*
X150960895Y-56622594D01*
X151051760Y-56841963D01*
X151170610Y-57035908D01*
X151175825Y-57044417D01*
X151175826Y-57044419D01*
X151293576Y-57182286D01*
X151330031Y-57224969D01*
X151452057Y-57329189D01*
X151490866Y-57388640D01*
X151491372Y-57459634D01*
X151453416Y-57519633D01*
X151452057Y-57520811D01*
X151330028Y-57625033D01*
X151175826Y-57805580D01*
X151175825Y-57805582D01*
X151051759Y-58008038D01*
X150960894Y-58227407D01*
X150905465Y-58458289D01*
X150886835Y-58695000D01*
X150905465Y-58931710D01*
X150960894Y-59162592D01*
X151051759Y-59381961D01*
X151175825Y-59584417D01*
X151175826Y-59584419D01*
X151330028Y-59764966D01*
X151330031Y-59764969D01*
X151452057Y-59869189D01*
X151490866Y-59928640D01*
X151491372Y-59999634D01*
X151453416Y-60059633D01*
X151452057Y-60060811D01*
X151330028Y-60165033D01*
X151175826Y-60345580D01*
X151175825Y-60345582D01*
X151051759Y-60548038D01*
X150960894Y-60767407D01*
X150905465Y-60998289D01*
X150886835Y-61235000D01*
X150891712Y-61296973D01*
X150905465Y-61471710D01*
X150960894Y-61702592D01*
X151044793Y-61905142D01*
X151051760Y-61921963D01*
X151064846Y-61943318D01*
X151175825Y-62124417D01*
X151175826Y-62124419D01*
X151320490Y-62293798D01*
X151330031Y-62304969D01*
X151408932Y-62372357D01*
X151452057Y-62409189D01*
X151490866Y-62468640D01*
X151491372Y-62539634D01*
X151453416Y-62599633D01*
X151452057Y-62600811D01*
X151330028Y-62705033D01*
X151175826Y-62885580D01*
X151175825Y-62885582D01*
X151051759Y-63088038D01*
X150960894Y-63307407D01*
X150905465Y-63538289D01*
X150886835Y-63775000D01*
X150905465Y-64011710D01*
X150960894Y-64242592D01*
X150995446Y-64326007D01*
X151051760Y-64461963D01*
X151119390Y-64572325D01*
X151175825Y-64664417D01*
X151175826Y-64664419D01*
X151333191Y-64848670D01*
X151362222Y-64913459D01*
X151351617Y-64983659D01*
X151304742Y-65036982D01*
X151237380Y-65056500D01*
X149789756Y-65056500D01*
X149775650Y-65055708D01*
X149740353Y-65051731D01*
X149740352Y-65051731D01*
X149681367Y-65055708D01*
X149673847Y-65056215D01*
X149665372Y-65056500D01*
X149655473Y-65056500D01*
X149614630Y-65060175D01*
X149611878Y-65060392D01*
X149549852Y-65064574D01*
X149514326Y-65066970D01*
X149514324Y-65066971D01*
X149510148Y-65068023D01*
X149490682Y-65071331D01*
X149486381Y-65071718D01*
X149392192Y-65097712D01*
X149389462Y-65098432D01*
X149294660Y-65122321D01*
X149294653Y-65122324D01*
X149290725Y-65124108D01*
X149272170Y-65130836D01*
X149268009Y-65131984D01*
X149179973Y-65174380D01*
X149177415Y-65175577D01*
X149088406Y-65216007D01*
X149084868Y-65218459D01*
X149067793Y-65228403D01*
X149063912Y-65230272D01*
X149063906Y-65230275D01*
X148984831Y-65287727D01*
X148982525Y-65289363D01*
X148902195Y-65345014D01*
X148899139Y-65348071D01*
X148884136Y-65360885D01*
X148880643Y-65363423D01*
X148813077Y-65434090D01*
X148811101Y-65436109D01*
X146231084Y-68016126D01*
X146220550Y-68025541D01*
X146192779Y-68047687D01*
X146148933Y-68097873D01*
X146143152Y-68104058D01*
X146136139Y-68111071D01*
X146109850Y-68142560D01*
X146108017Y-68144706D01*
X146043736Y-68218282D01*
X146043734Y-68218285D01*
X146041526Y-68221981D01*
X146030098Y-68238087D01*
X146027330Y-68241405D01*
X146027323Y-68241414D01*
X145979094Y-68326410D01*
X145977673Y-68328850D01*
X145927551Y-68412741D01*
X145927546Y-68412752D01*
X145926029Y-68416794D01*
X145917665Y-68434671D01*
X145915536Y-68438424D01*
X145915529Y-68438438D01*
X145883265Y-68530646D01*
X145882302Y-68533304D01*
X145847949Y-68624838D01*
X145847948Y-68624841D01*
X145847179Y-68629080D01*
X145842138Y-68648180D01*
X145840714Y-68652248D01*
X145840713Y-68652254D01*
X145825416Y-68748822D01*
X145824943Y-68751605D01*
X145807500Y-68847729D01*
X145807500Y-68852034D01*
X145805949Y-68871743D01*
X145805275Y-68875995D01*
X145805275Y-68876002D01*
X145807468Y-68973710D01*
X145807500Y-68976537D01*
X145807500Y-96950244D01*
X145806708Y-96964350D01*
X145802731Y-96999648D01*
X129219871Y-96999648D01*
X129181396Y-96744385D01*
X129181395Y-96744383D01*
X129181395Y-96744380D01*
X129104066Y-96493685D01*
X129104061Y-96493672D01*
X129040573Y-96361838D01*
X128990228Y-96257296D01*
X128990226Y-96257293D01*
X128990222Y-96257286D01*
X128842437Y-96040527D01*
X128842433Y-96040521D01*
X128663981Y-95848195D01*
X128458857Y-95684614D01*
X128458852Y-95684611D01*
X128458853Y-95684611D01*
X128231647Y-95553433D01*
X128231639Y-95553430D01*
X127987419Y-95457581D01*
X127987417Y-95457580D01*
X127731633Y-95399198D01*
X127584528Y-95388174D01*
X127535494Y-95384500D01*
X127404506Y-95384500D01*
X127365278Y-95387439D01*
X127208366Y-95399198D01*
X126952582Y-95457580D01*
X126952580Y-95457581D01*
X126708360Y-95553430D01*
X126708352Y-95553433D01*
X126481146Y-95684611D01*
X126276018Y-95848195D01*
X126097566Y-96040522D01*
X126097562Y-96040527D01*
X125949777Y-96257286D01*
X125949773Y-96257293D01*
X125835938Y-96493672D01*
X125835933Y-96493685D01*
X125758604Y-96744380D01*
X125736879Y-96888514D01*
X125719500Y-97003818D01*
X125719500Y-97266182D01*
X123813500Y-97266182D01*
X123813500Y-90559500D01*
X123833502Y-90491379D01*
X123887158Y-90444886D01*
X123939500Y-90433500D01*
X126131059Y-90433500D01*
X126196893Y-90452066D01*
X126313037Y-90523240D01*
X126532406Y-90614105D01*
X126763289Y-90669535D01*
X127000000Y-90688165D01*
X127236711Y-90669535D01*
X127467594Y-90614105D01*
X127686963Y-90523240D01*
X127889416Y-90399176D01*
X128069969Y-90244969D01*
X128224176Y-90064416D01*
X128348240Y-89861963D01*
X128439105Y-89642594D01*
X128494535Y-89411711D01*
X128513165Y-89175000D01*
X128494535Y-88938289D01*
X128439105Y-88707406D01*
X128348240Y-88488037D01*
X128224176Y-88285584D01*
X128171091Y-88223429D01*
X128069969Y-88105030D01*
X127947943Y-88000811D01*
X127909134Y-87941361D01*
X127908626Y-87870366D01*
X127946582Y-87810367D01*
X127947943Y-87809189D01*
X127989778Y-87773459D01*
X128069969Y-87704969D01*
X128224176Y-87524416D01*
X128348240Y-87321963D01*
X128439105Y-87102594D01*
X128494535Y-86871711D01*
X128513165Y-86635000D01*
X128494535Y-86398289D01*
X128439105Y-86167406D01*
X128348240Y-85948037D01*
X128224176Y-85745584D01*
X128224173Y-85745580D01*
X128069969Y-85565030D01*
X127947943Y-85460811D01*
X127909134Y-85401361D01*
X127908626Y-85330366D01*
X127946582Y-85270367D01*
X127947943Y-85269189D01*
X127978203Y-85243345D01*
X128069969Y-85164969D01*
X128224176Y-84984416D01*
X128348240Y-84781963D01*
X128439105Y-84562594D01*
X128494535Y-84331711D01*
X128513165Y-84095000D01*
X128494535Y-83858289D01*
X128439105Y-83627406D01*
X128348240Y-83408037D01*
X128224176Y-83205584D01*
X128224173Y-83205580D01*
X128069969Y-83025030D01*
X127947943Y-82920811D01*
X127909134Y-82861361D01*
X127908626Y-82790366D01*
X127946582Y-82730367D01*
X127947943Y-82729189D01*
X127956903Y-82721537D01*
X128069969Y-82624969D01*
X128224176Y-82444416D01*
X128348240Y-82241963D01*
X128439105Y-82022594D01*
X128494535Y-81791711D01*
X128513165Y-81555000D01*
X128494535Y-81318289D01*
X128439105Y-81087406D01*
X128348240Y-80868037D01*
X128224176Y-80665584D01*
X128158558Y-80588755D01*
X128069969Y-80485030D01*
X127947943Y-80380811D01*
X127909134Y-80321361D01*
X127908626Y-80250366D01*
X127946582Y-80190367D01*
X127947943Y-80189189D01*
X127989778Y-80153459D01*
X128069969Y-80084969D01*
X128224176Y-79904416D01*
X128348240Y-79701963D01*
X128439105Y-79482594D01*
X128494535Y-79251711D01*
X128513165Y-79015000D01*
X128494535Y-78778289D01*
X128439105Y-78547406D01*
X128348240Y-78328037D01*
X128224176Y-78125584D01*
X128220026Y-78120725D01*
X128069969Y-77945030D01*
X127947943Y-77840811D01*
X127909134Y-77781361D01*
X127908626Y-77710366D01*
X127946582Y-77650367D01*
X127947943Y-77649189D01*
X128018835Y-77588642D01*
X128069969Y-77544969D01*
X128224176Y-77364416D01*
X128348240Y-77161963D01*
X128439105Y-76942594D01*
X128494535Y-76711711D01*
X128513165Y-76475000D01*
X128494535Y-76238289D01*
X128439105Y-76007406D01*
X128348240Y-75788037D01*
X128224176Y-75585584D01*
X128224173Y-75585580D01*
X128069969Y-75405030D01*
X127965191Y-75315542D01*
X127947942Y-75300810D01*
X127909134Y-75241361D01*
X127908626Y-75170366D01*
X127946582Y-75110367D01*
X127947943Y-75109189D01*
X128069969Y-75004969D01*
X128135316Y-74928457D01*
X128224176Y-74824416D01*
X128348240Y-74621963D01*
X128439105Y-74402594D01*
X128494535Y-74171711D01*
X128513165Y-73935000D01*
X128494535Y-73698289D01*
X128439105Y-73467406D01*
X128348240Y-73248037D01*
X128224176Y-73045584D01*
X128224173Y-73045580D01*
X128069969Y-72865030D01*
X127947943Y-72760811D01*
X127909134Y-72701361D01*
X127908626Y-72630366D01*
X127946582Y-72570367D01*
X127947943Y-72569189D01*
X128069969Y-72464969D01*
X128224173Y-72284419D01*
X128224176Y-72284416D01*
X128348240Y-72081963D01*
X128439105Y-71862594D01*
X128494535Y-71631711D01*
X128513165Y-71395000D01*
X128494535Y-71158289D01*
X128439105Y-70927406D01*
X128348240Y-70708037D01*
X128224176Y-70505584D01*
X128192505Y-70468502D01*
X128069969Y-70325030D01*
X127947943Y-70220811D01*
X127909134Y-70161361D01*
X127908626Y-70090366D01*
X127946582Y-70030367D01*
X127947943Y-70029189D01*
X128069969Y-69924969D01*
X128155362Y-69824987D01*
X128224176Y-69744416D01*
X128348240Y-69541963D01*
X128439105Y-69322594D01*
X128494535Y-69091711D01*
X128513165Y-68855000D01*
X128494535Y-68618289D01*
X128439105Y-68387406D01*
X128348240Y-68168037D01*
X128224176Y-67965584D01*
X128210545Y-67949624D01*
X128069969Y-67785030D01*
X127947943Y-67680811D01*
X127909134Y-67621361D01*
X127908626Y-67550366D01*
X127946582Y-67490367D01*
X127947943Y-67489189D01*
X128069969Y-67384969D01*
X128224173Y-67204419D01*
X128224176Y-67204416D01*
X128348240Y-67001963D01*
X128439105Y-66782594D01*
X128494535Y-66551711D01*
X128513165Y-66315000D01*
X128494535Y-66078289D01*
X128439105Y-65847406D01*
X128348240Y-65628037D01*
X128224176Y-65425584D01*
X128223146Y-65424378D01*
X128069969Y-65245030D01*
X127947943Y-65140811D01*
X127909134Y-65081361D01*
X127908626Y-65010366D01*
X127946582Y-64950367D01*
X127947943Y-64949189D01*
X127989778Y-64913459D01*
X128069969Y-64844969D01*
X128224176Y-64664416D01*
X128348240Y-64461963D01*
X128439105Y-64242594D01*
X128494535Y-64011711D01*
X128513165Y-63775000D01*
X128494555Y-63538537D01*
X135877494Y-63538537D01*
X135877494Y-66366119D01*
X143705076Y-66366119D01*
X143705076Y-63538537D01*
X135877494Y-63538537D01*
X128494555Y-63538537D01*
X128494535Y-63538289D01*
X128439105Y-63307406D01*
X128348240Y-63088037D01*
X128224176Y-62885584D01*
X128114045Y-62756637D01*
X128069969Y-62705030D01*
X127947943Y-62600811D01*
X127909134Y-62541361D01*
X127908626Y-62470366D01*
X127946582Y-62410367D01*
X127947943Y-62409189D01*
X128069969Y-62304969D01*
X128089630Y-62281949D01*
X128224176Y-62124416D01*
X128348240Y-61921963D01*
X128439105Y-61702594D01*
X128494535Y-61471711D01*
X128513165Y-61235000D01*
X128494535Y-60998289D01*
X128439105Y-60767406D01*
X128348240Y-60548037D01*
X128224176Y-60345584D01*
X128224173Y-60345580D01*
X128069969Y-60165030D01*
X127947943Y-60060811D01*
X127909134Y-60001361D01*
X127908626Y-59930366D01*
X127946582Y-59870367D01*
X127947943Y-59869189D01*
X128069969Y-59764969D01*
X128224173Y-59584419D01*
X128224176Y-59584416D01*
X128348240Y-59381963D01*
X128439105Y-59162594D01*
X128494535Y-58931711D01*
X128513165Y-58695000D01*
X128494535Y-58458289D01*
X128439105Y-58227406D01*
X128348240Y-58008037D01*
X128224176Y-57805584D01*
X128224173Y-57805580D01*
X128069969Y-57625030D01*
X127947943Y-57520811D01*
X127909134Y-57461361D01*
X127908626Y-57390366D01*
X127946582Y-57330367D01*
X127947943Y-57329189D01*
X127969890Y-57310445D01*
X128069969Y-57224969D01*
X128224176Y-57044416D01*
X128348240Y-56841963D01*
X128439105Y-56622594D01*
X128494535Y-56391711D01*
X128513165Y-56155000D01*
X128494535Y-55918289D01*
X128439105Y-55687406D01*
X128348240Y-55468037D01*
X128224176Y-55265584D01*
X128218376Y-55258793D01*
X128069969Y-55085030D01*
X127947943Y-54980811D01*
X127909134Y-54921361D01*
X127908626Y-54850366D01*
X127946582Y-54790367D01*
X127947943Y-54789189D01*
X127995685Y-54748414D01*
X128069969Y-54684969D01*
X128224176Y-54504416D01*
X128348240Y-54301963D01*
X128439105Y-54082594D01*
X128494535Y-53851711D01*
X128513165Y-53615000D01*
X128494535Y-53378289D01*
X128439105Y-53147406D01*
X128348240Y-52928037D01*
X128224176Y-52725584D01*
X128216418Y-52716500D01*
X128069969Y-52545030D01*
X127889419Y-52390826D01*
X127889417Y-52390825D01*
X127889416Y-52390824D01*
X127686963Y-52266760D01*
X127472453Y-52177907D01*
X127417174Y-52133361D01*
X127394753Y-52065998D01*
X127412311Y-51997206D01*
X127464273Y-51948828D01*
X127520673Y-51935500D01*
X127535493Y-51935500D01*
X127535494Y-51935500D01*
X127731630Y-51920802D01*
X127987416Y-51862420D01*
X128231643Y-51766568D01*
X128231645Y-51766566D01*
X128231647Y-51766566D01*
X128345250Y-51700977D01*
X128458857Y-51635386D01*
X128663981Y-51471805D01*
X128842433Y-51279479D01*
X128990228Y-51062704D01*
X129104063Y-50826323D01*
X129181396Y-50575615D01*
X129220500Y-50316182D01*
X129220500Y-50053818D01*
X129181396Y-49794385D01*
X129181395Y-49794383D01*
X129181395Y-49794380D01*
X129104066Y-49543685D01*
X129104061Y-49543672D01*
X129031083Y-49392132D01*
X128990228Y-49307296D01*
X128990226Y-49307293D01*
X128990222Y-49307286D01*
X128842437Y-49090527D01*
X128842433Y-49090521D01*
X128663981Y-48898195D01*
X128458857Y-48734614D01*
X128458852Y-48734611D01*
X128458853Y-48734611D01*
X128231647Y-48603433D01*
X128231639Y-48603430D01*
X127987419Y-48507581D01*
X127987417Y-48507580D01*
X127731633Y-48449198D01*
X127584528Y-48438174D01*
X127535494Y-48434500D01*
X127404506Y-48434500D01*
X127365278Y-48437439D01*
X127208366Y-48449198D01*
X126952582Y-48507580D01*
X126952580Y-48507581D01*
X126708360Y-48603430D01*
X126708352Y-48603433D01*
X126481146Y-48734611D01*
X126276018Y-48898195D01*
X126097566Y-49090522D01*
X126097562Y-49090527D01*
X125949777Y-49307286D01*
X125949773Y-49307293D01*
X125835938Y-49543672D01*
X125835933Y-49543685D01*
X125758604Y-49794380D01*
X125751678Y-49840332D01*
X125719500Y-50053818D01*
X125719500Y-50316182D01*
X125741224Y-50460311D01*
X125758604Y-50575619D01*
X125835933Y-50826314D01*
X125835938Y-50826327D01*
X125949773Y-51062706D01*
X125949777Y-51062713D01*
X126097562Y-51279472D01*
X126097567Y-51279479D01*
X126276019Y-51471805D01*
X126481143Y-51635386D01*
X126481146Y-51635388D01*
X126708352Y-51766566D01*
X126708360Y-51766569D01*
X126956973Y-51864143D01*
X126956398Y-51865606D01*
X127009916Y-51901036D01*
X127038529Y-51966012D01*
X127027471Y-52036142D01*
X126980253Y-52089161D01*
X126923466Y-52107858D01*
X126763289Y-52120465D01*
X126532407Y-52175894D01*
X126313038Y-52266759D01*
X126110582Y-52390825D01*
X126110580Y-52390826D01*
X125930030Y-52545030D01*
X125775826Y-52725580D01*
X125775825Y-52725582D01*
X125651759Y-52928038D01*
X125560894Y-53147407D01*
X125505465Y-53378289D01*
X125486835Y-53615000D01*
X125505465Y-53851710D01*
X125560894Y-54082592D01*
X125560895Y-54082594D01*
X125651760Y-54301963D01*
X125775824Y-54504416D01*
X125893904Y-54642670D01*
X125922935Y-54707459D01*
X125912330Y-54777659D01*
X125865455Y-54830982D01*
X125798093Y-54850500D01*
X119040011Y-54850500D01*
X118999099Y-54843673D01*
X118835639Y-54787557D01*
X118835630Y-54787555D01*
X118776325Y-54777659D01*
X118613569Y-54750500D01*
X118388431Y-54750500D01*
X118240211Y-54775233D01*
X118166369Y-54787555D01*
X118166360Y-54787557D01*
X117953428Y-54860656D01*
X117953426Y-54860658D01*
X117779720Y-54954663D01*
X117755426Y-54967810D01*
X117755424Y-54967811D01*
X117577762Y-55106091D01*
X117425279Y-55271729D01*
X117336483Y-55407643D01*
X117282479Y-55453731D01*
X117212131Y-55463306D01*
X117147774Y-55433329D01*
X117125517Y-55407643D01*
X117036720Y-55271729D01*
X116884237Y-55106091D01*
X116734751Y-54989741D01*
X116706576Y-54967811D01*
X116508574Y-54860658D01*
X116508572Y-54860657D01*
X116508571Y-54860656D01*
X116295639Y-54787557D01*
X116295630Y-54787555D01*
X116236325Y-54777659D01*
X116073569Y-54750500D01*
X115848431Y-54750500D01*
X115700211Y-54775233D01*
X115626369Y-54787555D01*
X115626360Y-54787557D01*
X115413428Y-54860656D01*
X115413426Y-54860658D01*
X115239720Y-54954663D01*
X115215426Y-54967810D01*
X115215424Y-54967811D01*
X115037762Y-55106091D01*
X114885279Y-55271729D01*
X114885275Y-55271734D01*
X114762141Y-55460206D01*
X114671703Y-55666386D01*
X114671702Y-55666387D01*
X114616437Y-55884624D01*
X114616436Y-55884630D01*
X114616436Y-55884632D01*
X114611394Y-55945478D01*
X114597844Y-56109000D01*
X114616437Y-56333375D01*
X114671702Y-56551612D01*
X114671703Y-56551613D01*
X114762141Y-56757793D01*
X114885275Y-56946265D01*
X114885279Y-56946270D01*
X115037762Y-57111908D01*
X115054565Y-57124986D01*
X115215424Y-57250189D01*
X115413426Y-57357342D01*
X115413427Y-57357342D01*
X115413428Y-57357343D01*
X115477026Y-57379176D01*
X115626365Y-57430444D01*
X115848431Y-57467500D01*
X115848435Y-57467500D01*
X116073565Y-57467500D01*
X116073569Y-57467500D01*
X116295635Y-57430444D01*
X116508574Y-57357342D01*
X116706576Y-57250189D01*
X116884240Y-57111906D01*
X117036722Y-56946268D01*
X117125518Y-56810354D01*
X117179520Y-56764268D01*
X117249868Y-56754692D01*
X117314225Y-56784669D01*
X117336480Y-56810353D01*
X117357131Y-56841961D01*
X117425275Y-56946265D01*
X117425279Y-56946270D01*
X117577762Y-57111908D01*
X117594565Y-57124986D01*
X117755424Y-57250189D01*
X117953426Y-57357342D01*
X117953427Y-57357342D01*
X117953428Y-57357343D01*
X118017026Y-57379176D01*
X118166365Y-57430444D01*
X118388431Y-57467500D01*
X118388435Y-57467500D01*
X118613565Y-57467500D01*
X118613569Y-57467500D01*
X118835635Y-57430444D01*
X118999099Y-57374327D01*
X119040011Y-57367500D01*
X125890023Y-57367500D01*
X125958144Y-57387502D01*
X126004637Y-57441158D01*
X126014741Y-57511432D01*
X125985247Y-57576012D01*
X125971853Y-57589311D01*
X125930030Y-57625030D01*
X125775826Y-57805580D01*
X125775825Y-57805582D01*
X125651759Y-58008038D01*
X125560894Y-58227407D01*
X125505465Y-58458289D01*
X125486835Y-58695000D01*
X125505465Y-58931710D01*
X125560894Y-59162592D01*
X125651759Y-59381961D01*
X125775825Y-59584417D01*
X125775826Y-59584419D01*
X125930028Y-59764966D01*
X125930031Y-59764969D01*
X126052057Y-59869189D01*
X126090866Y-59928640D01*
X126091372Y-59999634D01*
X126053416Y-60059633D01*
X126052057Y-60060811D01*
X125930028Y-60165033D01*
X125775826Y-60345580D01*
X125775825Y-60345582D01*
X125651759Y-60548038D01*
X125560894Y-60767407D01*
X125505465Y-60998289D01*
X125486835Y-61235000D01*
X125491712Y-61296973D01*
X125505465Y-61471710D01*
X125560894Y-61702592D01*
X125644793Y-61905142D01*
X125651760Y-61921963D01*
X125664846Y-61943318D01*
X125775825Y-62124417D01*
X125775826Y-62124419D01*
X125920490Y-62293798D01*
X125930031Y-62304969D01*
X126008932Y-62372357D01*
X126052057Y-62409189D01*
X126090866Y-62468640D01*
X126091372Y-62539634D01*
X126053416Y-62599633D01*
X126052057Y-62600811D01*
X125930028Y-62705033D01*
X125775826Y-62885580D01*
X125775825Y-62885582D01*
X125651759Y-63088038D01*
X125560894Y-63307407D01*
X125505465Y-63538289D01*
X125486835Y-63775000D01*
X125505465Y-64011710D01*
X125560894Y-64242592D01*
X125595446Y-64326007D01*
X125651760Y-64461963D01*
X125719390Y-64572325D01*
X125775825Y-64664417D01*
X125775826Y-64664419D01*
X125926365Y-64840677D01*
X125930031Y-64844969D01*
X126045608Y-64943681D01*
X126052057Y-64949189D01*
X126090866Y-65008640D01*
X126091372Y-65079634D01*
X126053416Y-65139633D01*
X126052057Y-65140811D01*
X125930028Y-65245033D01*
X125775826Y-65425580D01*
X125775825Y-65425582D01*
X125651759Y-65628038D01*
X125560894Y-65847407D01*
X125505465Y-66078289D01*
X125486835Y-66315000D01*
X125505465Y-66551710D01*
X125560894Y-66782592D01*
X125638774Y-66970611D01*
X125651760Y-67001963D01*
X125755404Y-67171094D01*
X125775825Y-67204417D01*
X125775826Y-67204419D01*
X125888834Y-67336734D01*
X125930031Y-67384969D01*
X126009179Y-67452568D01*
X126052057Y-67489189D01*
X126090866Y-67548640D01*
X126091372Y-67619634D01*
X126053416Y-67679633D01*
X126052057Y-67680811D01*
X125930028Y-67785033D01*
X125842659Y-67887330D01*
X125783209Y-67926140D01*
X125746848Y-67931500D01*
X116505011Y-67931500D01*
X116464099Y-67924673D01*
X116300639Y-67868557D01*
X116300630Y-67868555D01*
X116256476Y-67861187D01*
X116078569Y-67831500D01*
X115853431Y-67831500D01*
X115705211Y-67856233D01*
X115631369Y-67868555D01*
X115631360Y-67868557D01*
X115418428Y-67941656D01*
X115418426Y-67941658D01*
X115374215Y-67965584D01*
X115220426Y-68048810D01*
X115220424Y-68048811D01*
X115042762Y-68187091D01*
X114890279Y-68352729D01*
X114890275Y-68352734D01*
X114767141Y-68541206D01*
X114676703Y-68747386D01*
X114676702Y-68747387D01*
X114621437Y-68965624D01*
X114621436Y-68965630D01*
X114621436Y-68965632D01*
X114610989Y-69091710D01*
X114602844Y-69190000D01*
X114621437Y-69414375D01*
X114676702Y-69632612D01*
X114676703Y-69632613D01*
X114676704Y-69632616D01*
X114753007Y-69806571D01*
X114767141Y-69838793D01*
X114890275Y-70027265D01*
X114890279Y-70027270D01*
X115018539Y-70166596D01*
X115036716Y-70186341D01*
X115042762Y-70192908D01*
X115077098Y-70219633D01*
X115220424Y-70331189D01*
X115418426Y-70438342D01*
X115418427Y-70438342D01*
X115418428Y-70438343D01*
X115506279Y-70468502D01*
X115631365Y-70511444D01*
X115853431Y-70548500D01*
X115853435Y-70548500D01*
X116078565Y-70548500D01*
X116078569Y-70548500D01*
X116300635Y-70511444D01*
X116464099Y-70455327D01*
X116505011Y-70448500D01*
X125585816Y-70448500D01*
X125653937Y-70468502D01*
X125700430Y-70522158D01*
X125710534Y-70592432D01*
X125693248Y-70640335D01*
X125651761Y-70708033D01*
X125560894Y-70927407D01*
X125505465Y-71158289D01*
X125486835Y-71395000D01*
X125505465Y-71631710D01*
X125560894Y-71862592D01*
X125651759Y-72081961D01*
X125775825Y-72284417D01*
X125775826Y-72284419D01*
X125930028Y-72464966D01*
X125930031Y-72464969D01*
X126009179Y-72532568D01*
X126052057Y-72569189D01*
X126090866Y-72628640D01*
X126091372Y-72699634D01*
X126053416Y-72759633D01*
X126052057Y-72760811D01*
X125930028Y-72865033D01*
X125775826Y-73045580D01*
X125775825Y-73045582D01*
X125651759Y-73248038D01*
X125560894Y-73467407D01*
X125505465Y-73698289D01*
X125486835Y-73935000D01*
X125505465Y-74171710D01*
X125560894Y-74402592D01*
X125560895Y-74402594D01*
X125651760Y-74621963D01*
X125735721Y-74758975D01*
X125775825Y-74824417D01*
X125775826Y-74824419D01*
X125865663Y-74929604D01*
X125930031Y-75004969D01*
X125964405Y-75034327D01*
X126052057Y-75109189D01*
X126090866Y-75168640D01*
X126091372Y-75239634D01*
X126053416Y-75299633D01*
X126052069Y-75300799D01*
X126027511Y-75321775D01*
X125930028Y-75405033D01*
X125775826Y-75585580D01*
X125775825Y-75585582D01*
X125651759Y-75788038D01*
X125560894Y-76007407D01*
X125505465Y-76238289D01*
X125486835Y-76475000D01*
X125505465Y-76711710D01*
X125560894Y-76942592D01*
X125650179Y-77158145D01*
X125651760Y-77161963D01*
X125774386Y-77362070D01*
X125775825Y-77364417D01*
X125775826Y-77364419D01*
X125922088Y-77535669D01*
X125930031Y-77544969D01*
X125982580Y-77589850D01*
X126052057Y-77649189D01*
X126090866Y-77708640D01*
X126091372Y-77779634D01*
X126053416Y-77839633D01*
X126052057Y-77840811D01*
X125930028Y-77945033D01*
X125775826Y-78125580D01*
X125775825Y-78125582D01*
X125651759Y-78328038D01*
X125560894Y-78547407D01*
X125505465Y-78778289D01*
X125486835Y-79015000D01*
X125505465Y-79251710D01*
X125560894Y-79482592D01*
X125560895Y-79482594D01*
X125651760Y-79701963D01*
X125760652Y-79879658D01*
X125775825Y-79904417D01*
X125775826Y-79904419D01*
X125933191Y-80088670D01*
X125962222Y-80153459D01*
X125951617Y-80223659D01*
X125904742Y-80276982D01*
X125837380Y-80296500D01*
X125082500Y-80296500D01*
X125014379Y-80276498D01*
X124967886Y-80222842D01*
X124956500Y-80170500D01*
X124956500Y-78055755D01*
X124957292Y-78041649D01*
X124960564Y-78012605D01*
X124961269Y-78006352D01*
X124956785Y-77939845D01*
X124956500Y-77931370D01*
X124956500Y-77921484D01*
X124956500Y-77921478D01*
X124952824Y-77880643D01*
X124952604Y-77877841D01*
X124946030Y-77780331D01*
X124944979Y-77776164D01*
X124941666Y-77756667D01*
X124941281Y-77752378D01*
X124915269Y-77658131D01*
X124914560Y-77655441D01*
X124890679Y-77560663D01*
X124888900Y-77556748D01*
X124882155Y-77538142D01*
X124881014Y-77534007D01*
X124865796Y-77502406D01*
X124838614Y-77445961D01*
X124837417Y-77443402D01*
X124796994Y-77354411D01*
X124796993Y-77354410D01*
X124796993Y-77354409D01*
X124794542Y-77350872D01*
X124784591Y-77333782D01*
X124782726Y-77329909D01*
X124782724Y-77329906D01*
X124725242Y-77250788D01*
X124723606Y-77248482D01*
X124667989Y-77168204D01*
X124667985Y-77168198D01*
X124667979Y-77168192D01*
X124667975Y-77168187D01*
X124664944Y-77165156D01*
X124652107Y-77150127D01*
X124649571Y-77146637D01*
X124649569Y-77146634D01*
X124578891Y-77079059D01*
X124576870Y-77077082D01*
X124134878Y-76635090D01*
X124125462Y-76624554D01*
X124103317Y-76596785D01*
X124103314Y-76596782D01*
X124053100Y-76552912D01*
X124046934Y-76547146D01*
X124039927Y-76540139D01*
X124008412Y-76513829D01*
X124006329Y-76512049D01*
X123932727Y-76447744D01*
X123932718Y-76447737D01*
X123929016Y-76445525D01*
X123912898Y-76434087D01*
X123909596Y-76431330D01*
X123885018Y-76417384D01*
X123824531Y-76383062D01*
X123822165Y-76381684D01*
X123817847Y-76379104D01*
X123738250Y-76331547D01*
X123738243Y-76331544D01*
X123738237Y-76331541D01*
X123734208Y-76330029D01*
X123716312Y-76321657D01*
X123712567Y-76319532D01*
X123712564Y-76319530D01*
X123661626Y-76301707D01*
X123620292Y-76287243D01*
X123617694Y-76286302D01*
X123616444Y-76285833D01*
X123568432Y-76267813D01*
X123526164Y-76251950D01*
X123526162Y-76251949D01*
X123526161Y-76251949D01*
X123526159Y-76251948D01*
X123526150Y-76251946D01*
X123521908Y-76251176D01*
X123502814Y-76246136D01*
X123498748Y-76244713D01*
X123402177Y-76229416D01*
X123399394Y-76228943D01*
X123303271Y-76211500D01*
X123303267Y-76211500D01*
X123298966Y-76211500D01*
X123279257Y-76209949D01*
X123275004Y-76209275D01*
X123274997Y-76209275D01*
X123177289Y-76211468D01*
X123174462Y-76211500D01*
X116663756Y-76211500D01*
X116649650Y-76210708D01*
X116614353Y-76206731D01*
X116614352Y-76206731D01*
X116566624Y-76209949D01*
X116547847Y-76211215D01*
X116539372Y-76211500D01*
X116529473Y-76211500D01*
X116488630Y-76215175D01*
X116485878Y-76215392D01*
X116423852Y-76219574D01*
X116388326Y-76221970D01*
X116388324Y-76221971D01*
X116384148Y-76223023D01*
X116364681Y-76226331D01*
X116360382Y-76226718D01*
X116360378Y-76226718D01*
X116360378Y-76226719D01*
X116351381Y-76229202D01*
X116266187Y-76252714D01*
X116263455Y-76253435D01*
X116168662Y-76277321D01*
X116168656Y-76277323D01*
X116164724Y-76279109D01*
X116146177Y-76285833D01*
X116142016Y-76286982D01*
X116142008Y-76286985D01*
X116142007Y-76286986D01*
X116141426Y-76287266D01*
X116053965Y-76329384D01*
X116051406Y-76330581D01*
X115962409Y-76371005D01*
X115962406Y-76371007D01*
X115958868Y-76373459D01*
X115941793Y-76383403D01*
X115937912Y-76385272D01*
X115937906Y-76385275D01*
X115858831Y-76442727D01*
X115856525Y-76444363D01*
X115776195Y-76500014D01*
X115773139Y-76503071D01*
X115758136Y-76515885D01*
X115754643Y-76518423D01*
X115687077Y-76589090D01*
X115685101Y-76591109D01*
X114999084Y-77277126D01*
X114988550Y-77286541D01*
X114960779Y-77308687D01*
X114916933Y-77358873D01*
X114911152Y-77365058D01*
X114904139Y-77372071D01*
X114877850Y-77403560D01*
X114876017Y-77405706D01*
X114811736Y-77479282D01*
X114811734Y-77479285D01*
X114809526Y-77482981D01*
X114798098Y-77499087D01*
X114795330Y-77502405D01*
X114795323Y-77502414D01*
X114747094Y-77587410D01*
X114745673Y-77589850D01*
X114695551Y-77673741D01*
X114695546Y-77673752D01*
X114694029Y-77677794D01*
X114685665Y-77695671D01*
X114683536Y-77699424D01*
X114683529Y-77699438D01*
X114651265Y-77791646D01*
X114650302Y-77794304D01*
X114615949Y-77885838D01*
X114615948Y-77885841D01*
X114615179Y-77890080D01*
X114610138Y-77909180D01*
X114608714Y-77913248D01*
X114608713Y-77913254D01*
X114593416Y-78009822D01*
X114592943Y-78012605D01*
X114575500Y-78108729D01*
X114575500Y-78113034D01*
X114573949Y-78132743D01*
X114573275Y-78136995D01*
X114573275Y-78137002D01*
X114575468Y-78234710D01*
X114575500Y-78237537D01*
X114575500Y-80588755D01*
X114564888Y-80639367D01*
X114544704Y-80685381D01*
X114544702Y-80685387D01*
X114489437Y-80903624D01*
X114489436Y-80903630D01*
X114489436Y-80903632D01*
X114470844Y-81128000D01*
X114484855Y-81297087D01*
X114489437Y-81352375D01*
X114544702Y-81570612D01*
X114544703Y-81570613D01*
X114544704Y-81570616D01*
X114633781Y-81773692D01*
X114635141Y-81776793D01*
X114758275Y-81965265D01*
X114758279Y-81965270D01*
X114870522Y-82087196D01*
X114892766Y-82111360D01*
X114910762Y-82130908D01*
X114965331Y-82173381D01*
X115088424Y-82269189D01*
X115286426Y-82376342D01*
X115286427Y-82376342D01*
X115286428Y-82376343D01*
X115325945Y-82389909D01*
X115499365Y-82449444D01*
X115721431Y-82486500D01*
X115721435Y-82486500D01*
X115946565Y-82486500D01*
X115946569Y-82486500D01*
X116168635Y-82449444D01*
X116381574Y-82376342D01*
X116579576Y-82269189D01*
X116757240Y-82130906D01*
X116909722Y-81965268D01*
X116998518Y-81829354D01*
X117052520Y-81783268D01*
X117122868Y-81773692D01*
X117187225Y-81803669D01*
X117209480Y-81829353D01*
X117242607Y-81880058D01*
X117298275Y-81965265D01*
X117298279Y-81965270D01*
X117410522Y-82087196D01*
X117432766Y-82111360D01*
X117450762Y-82130908D01*
X117505331Y-82173381D01*
X117628424Y-82269189D01*
X117826426Y-82376342D01*
X117826436Y-82376345D01*
X117831200Y-82378436D01*
X117830601Y-82379799D01*
X117871598Y-82405386D01*
X120396121Y-84929909D01*
X120405535Y-84940443D01*
X120427681Y-84968212D01*
X120427686Y-84968218D01*
X120446230Y-84984419D01*
X120477878Y-85012070D01*
X120484072Y-85017861D01*
X120491061Y-85024850D01*
X120491066Y-85024854D01*
X120491073Y-85024861D01*
X120522552Y-85051141D01*
X120524638Y-85052922D01*
X120598282Y-85117263D01*
X120601980Y-85119472D01*
X120618096Y-85130908D01*
X120621407Y-85133672D01*
X120621411Y-85133675D01*
X120621414Y-85133677D01*
X120706423Y-85181911D01*
X120708810Y-85183300D01*
X120792750Y-85233453D01*
X120796780Y-85234965D01*
X120814689Y-85243343D01*
X120818433Y-85245468D01*
X120910774Y-85277779D01*
X120913260Y-85278681D01*
X121004839Y-85313051D01*
X121009067Y-85313818D01*
X121028197Y-85318868D01*
X121032255Y-85320288D01*
X121128846Y-85335585D01*
X121131543Y-85336043D01*
X121227733Y-85353500D01*
X121232034Y-85353500D01*
X121251743Y-85355051D01*
X121254051Y-85355416D01*
X121256000Y-85355725D01*
X121353711Y-85353531D01*
X121356538Y-85353500D01*
X125837380Y-85353500D01*
X125905501Y-85373502D01*
X125951994Y-85427158D01*
X125962098Y-85497432D01*
X125933191Y-85561330D01*
X125775826Y-85745580D01*
X125775825Y-85745582D01*
X125651759Y-85948038D01*
X125560894Y-86167407D01*
X125505465Y-86398289D01*
X125486835Y-86635000D01*
X125505465Y-86871710D01*
X125560894Y-87102592D01*
X125560895Y-87102594D01*
X125651760Y-87321963D01*
X125775823Y-87524415D01*
X125775825Y-87524417D01*
X125775826Y-87524419D01*
X125933191Y-87708670D01*
X125962222Y-87773459D01*
X125951617Y-87843659D01*
X125904742Y-87896982D01*
X125837380Y-87916500D01*
X122865756Y-87916500D01*
X122851650Y-87915708D01*
X122816353Y-87911731D01*
X122816352Y-87911731D01*
X122757367Y-87915708D01*
X122749847Y-87916215D01*
X122741372Y-87916500D01*
X122731473Y-87916500D01*
X122690630Y-87920175D01*
X122687878Y-87920392D01*
X122625852Y-87924574D01*
X122590326Y-87926970D01*
X122590324Y-87926971D01*
X122586148Y-87928023D01*
X122566681Y-87931331D01*
X122562382Y-87931718D01*
X122562378Y-87931718D01*
X122562378Y-87931719D01*
X122468187Y-87957714D01*
X122465455Y-87958435D01*
X122370662Y-87982321D01*
X122370656Y-87982323D01*
X122366724Y-87984109D01*
X122348177Y-87990833D01*
X122344016Y-87991982D01*
X122344008Y-87991985D01*
X122344007Y-87991986D01*
X122287396Y-88019247D01*
X122255965Y-88034384D01*
X122253406Y-88035581D01*
X122164409Y-88076005D01*
X122164406Y-88076007D01*
X122160868Y-88078459D01*
X122143793Y-88088403D01*
X122139912Y-88090272D01*
X122139906Y-88090275D01*
X122060831Y-88147727D01*
X122058525Y-88149363D01*
X121978195Y-88205014D01*
X121975139Y-88208071D01*
X121960136Y-88220885D01*
X121956643Y-88223423D01*
X121889077Y-88294090D01*
X121887101Y-88296109D01*
X121720084Y-88463126D01*
X121709550Y-88472541D01*
X121681779Y-88494687D01*
X121637933Y-88544873D01*
X121632152Y-88551058D01*
X121625139Y-88558071D01*
X121598850Y-88589560D01*
X121597017Y-88591706D01*
X121532736Y-88665282D01*
X121532734Y-88665285D01*
X121530526Y-88668981D01*
X121519098Y-88685087D01*
X121516330Y-88688405D01*
X121516323Y-88688414D01*
X121468094Y-88773410D01*
X121466673Y-88775850D01*
X121416551Y-88859741D01*
X121416546Y-88859752D01*
X121415029Y-88863794D01*
X121406665Y-88881671D01*
X121404536Y-88885424D01*
X121404529Y-88885438D01*
X121372265Y-88977646D01*
X121371302Y-88980304D01*
X121336949Y-89071838D01*
X121336948Y-89071841D01*
X121336179Y-89076080D01*
X121331138Y-89095180D01*
X121329714Y-89099248D01*
X121329713Y-89099254D01*
X121314416Y-89195822D01*
X121313943Y-89198605D01*
X121296500Y-89294729D01*
X121296500Y-89299034D01*
X121294949Y-89318743D01*
X121294275Y-89322995D01*
X121294275Y-89323002D01*
X121296468Y-89420710D01*
X121296500Y-89423537D01*
X121296500Y-97802500D01*
X121276498Y-97870621D01*
X121222842Y-97917114D01*
X121170500Y-97928500D01*
X112128500Y-97928500D01*
X112060379Y-97908498D01*
X112013886Y-97854842D01*
X112002500Y-97802500D01*
X112002500Y-96539755D01*
X112003292Y-96525649D01*
X112004658Y-96513522D01*
X112007269Y-96490352D01*
X112002785Y-96423845D01*
X112002500Y-96415370D01*
X112002500Y-96405484D01*
X112002500Y-96405478D01*
X111998821Y-96364601D01*
X111998604Y-96361838D01*
X111997785Y-96349681D01*
X111997500Y-96341212D01*
X111997500Y-95301765D01*
X112017502Y-95233644D01*
X112022624Y-95226266D01*
X112039889Y-95203204D01*
X112090989Y-95066201D01*
X112097500Y-95005638D01*
X112097500Y-93208362D01*
X112097256Y-93206091D01*
X112090990Y-93147803D01*
X112090988Y-93147795D01*
X112039889Y-93010797D01*
X112039887Y-93010793D01*
X112022631Y-92987741D01*
X111997821Y-92921221D01*
X111997500Y-92912233D01*
X111997500Y-82342802D01*
X112017502Y-82274681D01*
X112022613Y-82267318D01*
X112054889Y-82224204D01*
X112105019Y-82089802D01*
X112105988Y-82087204D01*
X112105990Y-82087196D01*
X112112499Y-82026649D01*
X112112500Y-82026632D01*
X112112500Y-81307003D01*
X112114051Y-81287294D01*
X112119696Y-81251648D01*
X112126583Y-81208158D01*
X112127039Y-81205477D01*
X112144500Y-81109267D01*
X112144500Y-81104965D01*
X112146051Y-81085254D01*
X112146725Y-81081000D01*
X112144532Y-80983288D01*
X112144500Y-80980461D01*
X112144500Y-70384765D01*
X112164502Y-70316644D01*
X112169624Y-70309266D01*
X112186889Y-70286204D01*
X112237989Y-70149201D01*
X112241315Y-70118269D01*
X112244500Y-70088640D01*
X112244500Y-68291367D01*
X112244499Y-68291350D01*
X112237990Y-68230803D01*
X112237988Y-68230795D01*
X112191906Y-68107247D01*
X112186889Y-68093796D01*
X112186887Y-68093793D01*
X112169631Y-68070741D01*
X112144821Y-68004221D01*
X112144500Y-67995233D01*
X112144500Y-57297086D01*
X112164502Y-57228965D01*
X112169625Y-57221586D01*
X112181889Y-57205204D01*
X112232989Y-57068201D01*
X112236569Y-57034907D01*
X112239499Y-57007649D01*
X112239500Y-57007632D01*
X112239500Y-55210367D01*
X112239499Y-55210350D01*
X112232990Y-55149803D01*
X112232988Y-55149795D01*
X112196066Y-55050805D01*
X112181889Y-55012796D01*
X112181887Y-55012793D01*
X112164631Y-54989741D01*
X112139821Y-54923221D01*
X112139500Y-54914233D01*
X112139500Y-53026755D01*
X112140292Y-53012649D01*
X112142221Y-52995529D01*
X112144269Y-52977352D01*
X112139785Y-52910845D01*
X112139500Y-52902370D01*
X112139500Y-52892484D01*
X112139500Y-52892478D01*
X112135821Y-52851600D01*
X112135607Y-52848891D01*
X112129785Y-52762528D01*
X112129500Y-52754053D01*
X112129500Y-44564500D01*
X112149502Y-44496379D01*
X112203158Y-44449886D01*
X112255500Y-44438500D01*
X129553733Y-44438500D01*
X161224522Y-44438500D01*
X161292643Y-44458502D01*
X161313617Y-44475405D01*
X167360595Y-50522383D01*
X167394621Y-50584695D01*
X167397500Y-50611478D01*
X167397500Y-53415233D01*
X167377498Y-53483354D01*
X167372369Y-53490741D01*
X167355112Y-53513793D01*
X167355110Y-53513797D01*
X167304011Y-53650795D01*
X167304009Y-53650803D01*
X167297500Y-53711350D01*
X167297500Y-55508649D01*
X167304009Y-55569196D01*
X167340260Y-55666387D01*
X167355111Y-55706204D01*
X167372367Y-55729255D01*
X167397179Y-55795774D01*
X167397500Y-55804765D01*
X167397500Y-75665233D01*
X167377498Y-75733354D01*
X167372369Y-75740741D01*
X167355112Y-75763793D01*
X167355110Y-75763797D01*
X167304011Y-75900795D01*
X167304009Y-75900803D01*
X167297500Y-75961350D01*
X167297500Y-77758649D01*
X167304009Y-77819196D01*
X167304011Y-77819204D01*
X167355110Y-77956202D01*
X167355112Y-77956207D01*
X167442738Y-78073261D01*
X167559792Y-78160887D01*
X167559794Y-78160888D01*
X167559796Y-78160889D01*
X167614900Y-78181442D01*
X167696795Y-78211988D01*
X167696803Y-78211990D01*
X167757350Y-78218499D01*
X167757355Y-78218499D01*
X167757362Y-78218500D01*
X167757368Y-78218500D01*
X169554632Y-78218500D01*
X169554638Y-78218500D01*
X169554645Y-78218499D01*
X169554649Y-78218499D01*
X169615196Y-78211990D01*
X169615199Y-78211989D01*
X169615201Y-78211989D01*
X169752204Y-78160889D01*
X169821882Y-78108729D01*
X169869261Y-78073261D01*
X169956887Y-77956207D01*
X169956887Y-77956206D01*
X169956889Y-77956204D01*
X170007989Y-77819201D01*
X170008222Y-77817040D01*
X170014499Y-77758649D01*
X170014500Y-77758632D01*
X170014500Y-75961367D01*
X170014499Y-75961350D01*
X170007990Y-75900803D01*
X170007988Y-75900795D01*
X169965931Y-75788038D01*
X169956889Y-75763796D01*
X169956887Y-75763793D01*
X169939631Y-75740741D01*
X169914821Y-75674221D01*
X169914500Y-75665233D01*
X169914500Y-72572066D01*
X170980537Y-72572066D01*
X170980537Y-82328075D01*
X173808119Y-82328075D01*
X173808119Y-72572066D01*
X170980537Y-72572066D01*
X169914500Y-72572066D01*
X169914500Y-55804765D01*
X169934502Y-55736644D01*
X169939624Y-55729266D01*
X169956889Y-55706204D01*
X170007989Y-55569201D01*
X170014500Y-55508638D01*
X170014500Y-55359500D01*
X170034502Y-55291379D01*
X170088158Y-55244886D01*
X170140500Y-55233500D01*
X170622522Y-55233500D01*
X170690643Y-55253502D01*
X170711617Y-55270405D01*
X171297595Y-55856383D01*
X171331621Y-55918695D01*
X171334500Y-55945478D01*
X171334500Y-61644244D01*
X171333708Y-61658350D01*
X171329731Y-61693646D01*
X171334215Y-61760153D01*
X171334500Y-61768628D01*
X171334500Y-61778529D01*
X171338171Y-61819329D01*
X171338392Y-61822140D01*
X171344968Y-61919660D01*
X171344969Y-61919667D01*
X171344970Y-61919668D01*
X171346023Y-61923849D01*
X171349331Y-61943318D01*
X171349718Y-61947622D01*
X171375711Y-62041805D01*
X171376433Y-62044537D01*
X171396561Y-62124417D01*
X171400322Y-62139339D01*
X171402103Y-62143260D01*
X171408842Y-62161848D01*
X171409985Y-62165990D01*
X171409988Y-62165999D01*
X171446642Y-62242112D01*
X171458177Y-62312166D01*
X171431631Y-62375340D01*
X171304415Y-62534865D01*
X171304410Y-62534872D01*
X171176376Y-62756633D01*
X171176374Y-62756637D01*
X171082827Y-62994994D01*
X171082826Y-62994997D01*
X171025845Y-63244643D01*
X171006709Y-63500000D01*
X171025845Y-63755356D01*
X171082826Y-64005002D01*
X171082827Y-64005005D01*
X171176374Y-64243362D01*
X171176376Y-64243366D01*
X171304410Y-64465127D01*
X171304412Y-64465130D01*
X171304413Y-64465131D01*
X171464069Y-64665334D01*
X171651781Y-64839505D01*
X171651787Y-64839509D01*
X171863345Y-64983748D01*
X171863352Y-64983752D01*
X171863355Y-64983754D01*
X171967800Y-65034052D01*
X172094060Y-65094856D01*
X172094073Y-65094861D01*
X172338746Y-65170332D01*
X172338748Y-65170332D01*
X172338757Y-65170335D01*
X172591966Y-65208500D01*
X172591970Y-65208500D01*
X172848030Y-65208500D01*
X172848034Y-65208500D01*
X173101243Y-65170335D01*
X173200777Y-65139633D01*
X173345929Y-65094860D01*
X173345930Y-65094859D01*
X173345935Y-65094858D01*
X173576646Y-64983754D01*
X173788219Y-64839505D01*
X173975931Y-64665334D01*
X174135587Y-64465131D01*
X174263622Y-64243369D01*
X174265735Y-64237987D01*
X174311293Y-64121905D01*
X174357174Y-64005001D01*
X174372399Y-63938296D01*
X174407056Y-63876336D01*
X174469711Y-63842947D01*
X174540472Y-63848733D01*
X174596871Y-63891856D01*
X174621003Y-63958626D01*
X174621239Y-63966355D01*
X174614652Y-104386638D01*
X174594639Y-104454755D01*
X174540976Y-104501239D01*
X174487963Y-104512615D01*
X105016963Y-104132992D01*
X104948953Y-104112618D01*
X104902754Y-104058709D01*
X104891652Y-104006975D01*
X104893849Y-90605923D01*
X105575537Y-90605923D01*
X105575537Y-98076363D01*
X108403119Y-98076363D01*
X108403119Y-90605923D01*
X105575537Y-90605923D01*
X104893849Y-90605923D01*
X104896407Y-75005344D01*
X105448537Y-75005344D01*
X105448537Y-87118084D01*
X108276119Y-87118084D01*
X108276119Y-75005344D01*
X105448537Y-75005344D01*
X104896407Y-75005344D01*
X104898267Y-63662355D01*
X105448537Y-63662355D01*
X105448537Y-72846933D01*
X108276119Y-72846933D01*
X108276119Y-63662355D01*
X105448537Y-63662355D01*
X104898267Y-63662355D01*
X104900110Y-52423224D01*
X105575537Y-52423224D01*
X105575537Y-60678512D01*
X108545697Y-60678512D01*
X108545697Y-52423224D01*
X105575537Y-52423224D01*
X104900110Y-52423224D01*
X104901979Y-41019977D01*
X104921992Y-40951862D01*
X104975656Y-40905378D01*
X105027979Y-40894000D01*
X174498979Y-40894000D01*
X174567100Y-40914002D01*
G37*
%TD.AperFunction*%
%TD*%
M02*
