M48
; DRILL file {KiCad 7.0.10} date Wed Feb 21 10:37:31 2024
; FORMAT={-:-/ absolute / inch / decimal}
; #@! TF.CreationDate,2024-02-21T10:37:31+05:00
; #@! TF.GenerationSoftware,Kicad,Pcbnew,7.0.10
; #@! TF.FileFunction,Plated,1,2,PTH
FMAT,2
INCH
; #@! TA.AperFunction,Plated,PTH,ComponentDrill
T1C0.0315
; #@! TA.AperFunction,Plated,PTH,ComponentDrill
T2C0.0354
; #@! TA.AperFunction,Plated,PTH,ComponentDrill
T3C0.0394
; #@! TA.AperFunction,Plated,PTH,ComponentDrill
T4C0.0402
; #@! TA.AperFunction,Plated,PTH,ComponentDrill
T5C0.0433
%
G90
G05
T1
X2.0Y-5.4
X2.05Y-4.5
X2.05Y-4.7
X2.0984Y-5.4
X2.4016Y-5.4
X2.45Y-4.5
X2.45Y-4.7
X2.5Y-5.4
X4.3Y-4.375
X4.7Y-4.375
T2
X2.05Y-5.0
X2.15Y-5.0
X2.35Y-5.0
X2.45Y-5.0
T3
X4.6Y-3.25
X4.6Y-3.35
X4.6Y-3.45
X4.6Y-3.55
X4.6Y-4.85
X4.6Y-4.95
X4.6Y-5.05
X4.6Y-5.15
X4.7Y-3.875
X4.7Y-3.975
X4.7Y-4.075
T4
X3.0Y-3.7108
X3.0Y-3.8108
X3.0Y-3.9108
X3.0Y-4.0108
X3.0Y-4.1108
X3.0Y-4.2108
X3.0Y-4.3108
X3.0Y-4.4108
X3.0Y-4.5108
X3.0Y-4.6108
X3.0Y-4.7108
X3.0Y-4.8108
X3.0Y-4.9108
X3.0Y-5.0108
X3.0Y-5.1108
X4.0Y-3.7108
X4.0Y-3.8108
X4.0Y-3.9108
X4.0Y-4.0108
X4.0Y-4.1108
X4.0Y-4.2108
X4.0Y-4.3108
X4.0Y-4.4108
X4.0Y-4.5108
X4.0Y-4.6108
X4.0Y-4.7108
X4.0Y-4.8108
X4.0Y-4.9108
X4.0Y-5.0108
X4.0Y-5.1108
T5
X2.15Y-4.15
X2.25Y-4.15
X2.35Y-4.15
T3
G00X2.2638Y-3.6606
M15
G01X2.2638Y-3.7394
M16
G05
G00X2.3425Y-3.885
M15
G01X2.4213Y-3.885
M16
G05
G00X2.5Y-3.6606
M15
G01X2.5Y-3.7394
M16
G05
M30
