%TF.GenerationSoftware,KiCad,Pcbnew,7.0.10*%
%TF.CreationDate,2024-02-21T13:04:12+05:00*%
%TF.ProjectId,Circuit for 3rd Milestone,43697263-7569-4742-9066-6f7220337264,rev?*%
%TF.SameCoordinates,Original*%
%TF.FileFunction,Legend,Top*%
%TF.FilePolarity,Positive*%
%FSLAX46Y46*%
G04 Gerber Fmt 4.6, Leading zero omitted, Abs format (unit mm)*
G04 Created by KiCad (PCBNEW 7.0.10) date 2024-02-21 13:04:12*
%MOMM*%
%LPD*%
G01*
G04 APERTURE LIST*
%ADD10C,0.150000*%
%ADD11C,0.120000*%
%ADD12C,0.127000*%
%ADD13C,0.200000*%
G04 APERTURE END LIST*
D10*
X202390476Y-119044819D02*
X202390476Y-119759104D01*
X202390476Y-119759104D02*
X202342857Y-119901961D01*
X202342857Y-119901961D02*
X202247619Y-119997200D01*
X202247619Y-119997200D02*
X202104762Y-120044819D01*
X202104762Y-120044819D02*
X202009524Y-120044819D01*
X203390476Y-120044819D02*
X202819048Y-120044819D01*
X203104762Y-120044819D02*
X203104762Y-119044819D01*
X203104762Y-119044819D02*
X203009524Y-119187676D01*
X203009524Y-119187676D02*
X202914286Y-119282914D01*
X202914286Y-119282914D02*
X202819048Y-119330533D01*
X204009524Y-119044819D02*
X204104762Y-119044819D01*
X204104762Y-119044819D02*
X204200000Y-119092438D01*
X204200000Y-119092438D02*
X204247619Y-119140057D01*
X204247619Y-119140057D02*
X204295238Y-119235295D01*
X204295238Y-119235295D02*
X204342857Y-119425771D01*
X204342857Y-119425771D02*
X204342857Y-119663866D01*
X204342857Y-119663866D02*
X204295238Y-119854342D01*
X204295238Y-119854342D02*
X204247619Y-119949580D01*
X204247619Y-119949580D02*
X204200000Y-119997200D01*
X204200000Y-119997200D02*
X204104762Y-120044819D01*
X204104762Y-120044819D02*
X204009524Y-120044819D01*
X204009524Y-120044819D02*
X203914286Y-119997200D01*
X203914286Y-119997200D02*
X203866667Y-119949580D01*
X203866667Y-119949580D02*
X203819048Y-119854342D01*
X203819048Y-119854342D02*
X203771429Y-119663866D01*
X203771429Y-119663866D02*
X203771429Y-119425771D01*
X203771429Y-119425771D02*
X203819048Y-119235295D01*
X203819048Y-119235295D02*
X203866667Y-119140057D01*
X203866667Y-119140057D02*
X203914286Y-119092438D01*
X203914286Y-119092438D02*
X204009524Y-119044819D01*
X215510819Y-114573333D02*
X216225104Y-114573333D01*
X216225104Y-114573333D02*
X216367961Y-114620952D01*
X216367961Y-114620952D02*
X216463200Y-114716190D01*
X216463200Y-114716190D02*
X216510819Y-114859047D01*
X216510819Y-114859047D02*
X216510819Y-114954285D01*
X215844152Y-113668571D02*
X216510819Y-113668571D01*
X215463200Y-113906666D02*
X216177485Y-114144761D01*
X216177485Y-114144761D02*
X216177485Y-113525714D01*
X202390476Y-113964819D02*
X202390476Y-114679104D01*
X202390476Y-114679104D02*
X202342857Y-114821961D01*
X202342857Y-114821961D02*
X202247619Y-114917200D01*
X202247619Y-114917200D02*
X202104762Y-114964819D01*
X202104762Y-114964819D02*
X202009524Y-114964819D01*
X202819048Y-114060057D02*
X202866667Y-114012438D01*
X202866667Y-114012438D02*
X202961905Y-113964819D01*
X202961905Y-113964819D02*
X203200000Y-113964819D01*
X203200000Y-113964819D02*
X203295238Y-114012438D01*
X203295238Y-114012438D02*
X203342857Y-114060057D01*
X203342857Y-114060057D02*
X203390476Y-114155295D01*
X203390476Y-114155295D02*
X203390476Y-114250533D01*
X203390476Y-114250533D02*
X203342857Y-114393390D01*
X203342857Y-114393390D02*
X202771429Y-114964819D01*
X202771429Y-114964819D02*
X203390476Y-114964819D01*
X203771429Y-114060057D02*
X203819048Y-114012438D01*
X203819048Y-114012438D02*
X203914286Y-113964819D01*
X203914286Y-113964819D02*
X204152381Y-113964819D01*
X204152381Y-113964819D02*
X204247619Y-114012438D01*
X204247619Y-114012438D02*
X204295238Y-114060057D01*
X204295238Y-114060057D02*
X204342857Y-114155295D01*
X204342857Y-114155295D02*
X204342857Y-114250533D01*
X204342857Y-114250533D02*
X204295238Y-114393390D01*
X204295238Y-114393390D02*
X203723810Y-114964819D01*
X203723810Y-114964819D02*
X204342857Y-114964819D01*
X144113819Y-113323333D02*
X144828104Y-113323333D01*
X144828104Y-113323333D02*
X144970961Y-113370952D01*
X144970961Y-113370952D02*
X145066200Y-113466190D01*
X145066200Y-113466190D02*
X145113819Y-113609047D01*
X145113819Y-113609047D02*
X145113819Y-113704285D01*
X144113819Y-112370952D02*
X144113819Y-112847142D01*
X144113819Y-112847142D02*
X144590009Y-112894761D01*
X144590009Y-112894761D02*
X144542390Y-112847142D01*
X144542390Y-112847142D02*
X144494771Y-112751904D01*
X144494771Y-112751904D02*
X144494771Y-112513809D01*
X144494771Y-112513809D02*
X144542390Y-112418571D01*
X144542390Y-112418571D02*
X144590009Y-112370952D01*
X144590009Y-112370952D02*
X144685247Y-112323333D01*
X144685247Y-112323333D02*
X144923342Y-112323333D01*
X144923342Y-112323333D02*
X145018580Y-112370952D01*
X145018580Y-112370952D02*
X145066200Y-112418571D01*
X145066200Y-112418571D02*
X145113819Y-112513809D01*
X145113819Y-112513809D02*
X145113819Y-112751904D01*
X145113819Y-112751904D02*
X145066200Y-112847142D01*
X145066200Y-112847142D02*
X145018580Y-112894761D01*
X159210476Y-113964819D02*
X159210476Y-114679104D01*
X159210476Y-114679104D02*
X159162857Y-114821961D01*
X159162857Y-114821961D02*
X159067619Y-114917200D01*
X159067619Y-114917200D02*
X158924762Y-114964819D01*
X158924762Y-114964819D02*
X158829524Y-114964819D01*
X160210476Y-114964819D02*
X159639048Y-114964819D01*
X159924762Y-114964819D02*
X159924762Y-113964819D01*
X159924762Y-113964819D02*
X159829524Y-114107676D01*
X159829524Y-114107676D02*
X159734286Y-114202914D01*
X159734286Y-114202914D02*
X159639048Y-114250533D01*
X161067619Y-113964819D02*
X160877143Y-113964819D01*
X160877143Y-113964819D02*
X160781905Y-114012438D01*
X160781905Y-114012438D02*
X160734286Y-114060057D01*
X160734286Y-114060057D02*
X160639048Y-114202914D01*
X160639048Y-114202914D02*
X160591429Y-114393390D01*
X160591429Y-114393390D02*
X160591429Y-114774342D01*
X160591429Y-114774342D02*
X160639048Y-114869580D01*
X160639048Y-114869580D02*
X160686667Y-114917200D01*
X160686667Y-114917200D02*
X160781905Y-114964819D01*
X160781905Y-114964819D02*
X160972381Y-114964819D01*
X160972381Y-114964819D02*
X161067619Y-114917200D01*
X161067619Y-114917200D02*
X161115238Y-114869580D01*
X161115238Y-114869580D02*
X161162857Y-114774342D01*
X161162857Y-114774342D02*
X161162857Y-114536247D01*
X161162857Y-114536247D02*
X161115238Y-114441009D01*
X161115238Y-114441009D02*
X161067619Y-114393390D01*
X161067619Y-114393390D02*
X160972381Y-114345771D01*
X160972381Y-114345771D02*
X160781905Y-114345771D01*
X160781905Y-114345771D02*
X160686667Y-114393390D01*
X160686667Y-114393390D02*
X160639048Y-114441009D01*
X160639048Y-114441009D02*
X160591429Y-114536247D01*
X159210476Y-116504819D02*
X159210476Y-117219104D01*
X159210476Y-117219104D02*
X159162857Y-117361961D01*
X159162857Y-117361961D02*
X159067619Y-117457200D01*
X159067619Y-117457200D02*
X158924762Y-117504819D01*
X158924762Y-117504819D02*
X158829524Y-117504819D01*
X159639048Y-116600057D02*
X159686667Y-116552438D01*
X159686667Y-116552438D02*
X159781905Y-116504819D01*
X159781905Y-116504819D02*
X160020000Y-116504819D01*
X160020000Y-116504819D02*
X160115238Y-116552438D01*
X160115238Y-116552438D02*
X160162857Y-116600057D01*
X160162857Y-116600057D02*
X160210476Y-116695295D01*
X160210476Y-116695295D02*
X160210476Y-116790533D01*
X160210476Y-116790533D02*
X160162857Y-116933390D01*
X160162857Y-116933390D02*
X159591429Y-117504819D01*
X159591429Y-117504819D02*
X160210476Y-117504819D01*
X161067619Y-116838152D02*
X161067619Y-117504819D01*
X160829524Y-116457200D02*
X160591429Y-117171485D01*
X160591429Y-117171485D02*
X161210476Y-117171485D01*
X208015819Y-93662333D02*
X207539628Y-93995666D01*
X208015819Y-94233761D02*
X207015819Y-94233761D01*
X207015819Y-94233761D02*
X207015819Y-93852809D01*
X207015819Y-93852809D02*
X207063438Y-93757571D01*
X207063438Y-93757571D02*
X207111057Y-93709952D01*
X207111057Y-93709952D02*
X207206295Y-93662333D01*
X207206295Y-93662333D02*
X207349152Y-93662333D01*
X207349152Y-93662333D02*
X207444390Y-93709952D01*
X207444390Y-93709952D02*
X207492009Y-93757571D01*
X207492009Y-93757571D02*
X207539628Y-93852809D01*
X207539628Y-93852809D02*
X207539628Y-94233761D01*
X207492009Y-93233761D02*
X207492009Y-92900428D01*
X208015819Y-92757571D02*
X208015819Y-93233761D01*
X208015819Y-93233761D02*
X207015819Y-93233761D01*
X207015819Y-93233761D02*
X207015819Y-92757571D01*
X207492009Y-91995666D02*
X207492009Y-92328999D01*
X208015819Y-92328999D02*
X207015819Y-92328999D01*
X207015819Y-92328999D02*
X207015819Y-91852809D01*
X207015819Y-91328999D02*
X207253914Y-91328999D01*
X207158676Y-91567094D02*
X207253914Y-91328999D01*
X207253914Y-91328999D02*
X207158676Y-91090904D01*
X207444390Y-91471856D02*
X207253914Y-91328999D01*
X207253914Y-91328999D02*
X207444390Y-91186142D01*
X207015819Y-90567094D02*
X207253914Y-90567094D01*
X207158676Y-90805189D02*
X207253914Y-90567094D01*
X207253914Y-90567094D02*
X207158676Y-90328999D01*
X207444390Y-90709951D02*
X207253914Y-90567094D01*
X207253914Y-90567094D02*
X207444390Y-90424237D01*
X143859819Y-129873333D02*
X144574104Y-129873333D01*
X144574104Y-129873333D02*
X144716961Y-129920952D01*
X144716961Y-129920952D02*
X144812200Y-130016190D01*
X144812200Y-130016190D02*
X144859819Y-130159047D01*
X144859819Y-130159047D02*
X144859819Y-130254285D01*
X144859819Y-128873333D02*
X144859819Y-129444761D01*
X144859819Y-129159047D02*
X143859819Y-129159047D01*
X143859819Y-129159047D02*
X144002676Y-129254285D01*
X144002676Y-129254285D02*
X144097914Y-129349523D01*
X144097914Y-129349523D02*
X144145533Y-129444761D01*
X202866666Y-129204819D02*
X202866666Y-129919104D01*
X202866666Y-129919104D02*
X202819047Y-130061961D01*
X202819047Y-130061961D02*
X202723809Y-130157200D01*
X202723809Y-130157200D02*
X202580952Y-130204819D01*
X202580952Y-130204819D02*
X202485714Y-130204819D01*
X203771428Y-129204819D02*
X203580952Y-129204819D01*
X203580952Y-129204819D02*
X203485714Y-129252438D01*
X203485714Y-129252438D02*
X203438095Y-129300057D01*
X203438095Y-129300057D02*
X203342857Y-129442914D01*
X203342857Y-129442914D02*
X203295238Y-129633390D01*
X203295238Y-129633390D02*
X203295238Y-130014342D01*
X203295238Y-130014342D02*
X203342857Y-130109580D01*
X203342857Y-130109580D02*
X203390476Y-130157200D01*
X203390476Y-130157200D02*
X203485714Y-130204819D01*
X203485714Y-130204819D02*
X203676190Y-130204819D01*
X203676190Y-130204819D02*
X203771428Y-130157200D01*
X203771428Y-130157200D02*
X203819047Y-130109580D01*
X203819047Y-130109580D02*
X203866666Y-130014342D01*
X203866666Y-130014342D02*
X203866666Y-129776247D01*
X203866666Y-129776247D02*
X203819047Y-129681009D01*
X203819047Y-129681009D02*
X203771428Y-129633390D01*
X203771428Y-129633390D02*
X203676190Y-129585771D01*
X203676190Y-129585771D02*
X203485714Y-129585771D01*
X203485714Y-129585771D02*
X203390476Y-129633390D01*
X203390476Y-129633390D02*
X203342857Y-129681009D01*
X203342857Y-129681009D02*
X203295238Y-129776247D01*
X137751819Y-97127333D02*
X138466104Y-97127333D01*
X138466104Y-97127333D02*
X138608961Y-97174952D01*
X138608961Y-97174952D02*
X138704200Y-97270190D01*
X138704200Y-97270190D02*
X138751819Y-97413047D01*
X138751819Y-97413047D02*
X138751819Y-97508285D01*
X137751819Y-96746380D02*
X137751819Y-96079714D01*
X137751819Y-96079714D02*
X138751819Y-96508285D01*
X202390476Y-116504819D02*
X202390476Y-117219104D01*
X202390476Y-117219104D02*
X202342857Y-117361961D01*
X202342857Y-117361961D02*
X202247619Y-117457200D01*
X202247619Y-117457200D02*
X202104762Y-117504819D01*
X202104762Y-117504819D02*
X202009524Y-117504819D01*
X202819048Y-116600057D02*
X202866667Y-116552438D01*
X202866667Y-116552438D02*
X202961905Y-116504819D01*
X202961905Y-116504819D02*
X203200000Y-116504819D01*
X203200000Y-116504819D02*
X203295238Y-116552438D01*
X203295238Y-116552438D02*
X203342857Y-116600057D01*
X203342857Y-116600057D02*
X203390476Y-116695295D01*
X203390476Y-116695295D02*
X203390476Y-116790533D01*
X203390476Y-116790533D02*
X203342857Y-116933390D01*
X203342857Y-116933390D02*
X202771429Y-117504819D01*
X202771429Y-117504819D02*
X203390476Y-117504819D01*
X203723810Y-116504819D02*
X204342857Y-116504819D01*
X204342857Y-116504819D02*
X204009524Y-116885771D01*
X204009524Y-116885771D02*
X204152381Y-116885771D01*
X204152381Y-116885771D02*
X204247619Y-116933390D01*
X204247619Y-116933390D02*
X204295238Y-116981009D01*
X204295238Y-116981009D02*
X204342857Y-117076247D01*
X204342857Y-117076247D02*
X204342857Y-117314342D01*
X204342857Y-117314342D02*
X204295238Y-117409580D01*
X204295238Y-117409580D02*
X204247619Y-117457200D01*
X204247619Y-117457200D02*
X204152381Y-117504819D01*
X204152381Y-117504819D02*
X203866667Y-117504819D01*
X203866667Y-117504819D02*
X203771429Y-117457200D01*
X203771429Y-117457200D02*
X203723810Y-117409580D01*
X136747819Y-119907333D02*
X137462104Y-119907333D01*
X137462104Y-119907333D02*
X137604961Y-119954952D01*
X137604961Y-119954952D02*
X137700200Y-120050190D01*
X137700200Y-120050190D02*
X137747819Y-120193047D01*
X137747819Y-120193047D02*
X137747819Y-120288285D01*
X137176390Y-119288285D02*
X137128771Y-119383523D01*
X137128771Y-119383523D02*
X137081152Y-119431142D01*
X137081152Y-119431142D02*
X136985914Y-119478761D01*
X136985914Y-119478761D02*
X136938295Y-119478761D01*
X136938295Y-119478761D02*
X136843057Y-119431142D01*
X136843057Y-119431142D02*
X136795438Y-119383523D01*
X136795438Y-119383523D02*
X136747819Y-119288285D01*
X136747819Y-119288285D02*
X136747819Y-119097809D01*
X136747819Y-119097809D02*
X136795438Y-119002571D01*
X136795438Y-119002571D02*
X136843057Y-118954952D01*
X136843057Y-118954952D02*
X136938295Y-118907333D01*
X136938295Y-118907333D02*
X136985914Y-118907333D01*
X136985914Y-118907333D02*
X137081152Y-118954952D01*
X137081152Y-118954952D02*
X137128771Y-119002571D01*
X137128771Y-119002571D02*
X137176390Y-119097809D01*
X137176390Y-119097809D02*
X137176390Y-119288285D01*
X137176390Y-119288285D02*
X137224009Y-119383523D01*
X137224009Y-119383523D02*
X137271628Y-119431142D01*
X137271628Y-119431142D02*
X137366866Y-119478761D01*
X137366866Y-119478761D02*
X137557342Y-119478761D01*
X137557342Y-119478761D02*
X137652580Y-119431142D01*
X137652580Y-119431142D02*
X137700200Y-119383523D01*
X137700200Y-119383523D02*
X137747819Y-119288285D01*
X137747819Y-119288285D02*
X137747819Y-119097809D01*
X137747819Y-119097809D02*
X137700200Y-119002571D01*
X137700200Y-119002571D02*
X137652580Y-118954952D01*
X137652580Y-118954952D02*
X137557342Y-118907333D01*
X137557342Y-118907333D02*
X137366866Y-118907333D01*
X137366866Y-118907333D02*
X137271628Y-118954952D01*
X137271628Y-118954952D02*
X137224009Y-119002571D01*
X137224009Y-119002571D02*
X137176390Y-119097809D01*
X148960819Y-101790333D02*
X148484628Y-102123666D01*
X148960819Y-102361761D02*
X147960819Y-102361761D01*
X147960819Y-102361761D02*
X147960819Y-101980809D01*
X147960819Y-101980809D02*
X148008438Y-101885571D01*
X148008438Y-101885571D02*
X148056057Y-101837952D01*
X148056057Y-101837952D02*
X148151295Y-101790333D01*
X148151295Y-101790333D02*
X148294152Y-101790333D01*
X148294152Y-101790333D02*
X148389390Y-101837952D01*
X148389390Y-101837952D02*
X148437009Y-101885571D01*
X148437009Y-101885571D02*
X148484628Y-101980809D01*
X148484628Y-101980809D02*
X148484628Y-102361761D01*
X148437009Y-101361761D02*
X148437009Y-101028428D01*
X148960819Y-100885571D02*
X148960819Y-101361761D01*
X148960819Y-101361761D02*
X147960819Y-101361761D01*
X147960819Y-101361761D02*
X147960819Y-100885571D01*
X148437009Y-100123666D02*
X148437009Y-100456999D01*
X148960819Y-100456999D02*
X147960819Y-100456999D01*
X147960819Y-100456999D02*
X147960819Y-99980809D01*
X147960819Y-99456999D02*
X148198914Y-99456999D01*
X148103676Y-99695094D02*
X148198914Y-99456999D01*
X148198914Y-99456999D02*
X148103676Y-99218904D01*
X148389390Y-99599856D02*
X148198914Y-99456999D01*
X148198914Y-99456999D02*
X148389390Y-99314142D01*
X147960819Y-98695094D02*
X148198914Y-98695094D01*
X148103676Y-98933189D02*
X148198914Y-98695094D01*
X148198914Y-98695094D02*
X148103676Y-98456999D01*
X148389390Y-98837951D02*
X148198914Y-98695094D01*
X148198914Y-98695094D02*
X148389390Y-98552237D01*
X202390476Y-106344819D02*
X202390476Y-107059104D01*
X202390476Y-107059104D02*
X202342857Y-107201961D01*
X202342857Y-107201961D02*
X202247619Y-107297200D01*
X202247619Y-107297200D02*
X202104762Y-107344819D01*
X202104762Y-107344819D02*
X202009524Y-107344819D01*
X202819048Y-106440057D02*
X202866667Y-106392438D01*
X202866667Y-106392438D02*
X202961905Y-106344819D01*
X202961905Y-106344819D02*
X203200000Y-106344819D01*
X203200000Y-106344819D02*
X203295238Y-106392438D01*
X203295238Y-106392438D02*
X203342857Y-106440057D01*
X203342857Y-106440057D02*
X203390476Y-106535295D01*
X203390476Y-106535295D02*
X203390476Y-106630533D01*
X203390476Y-106630533D02*
X203342857Y-106773390D01*
X203342857Y-106773390D02*
X202771429Y-107344819D01*
X202771429Y-107344819D02*
X203390476Y-107344819D01*
X204342857Y-107344819D02*
X203771429Y-107344819D01*
X204057143Y-107344819D02*
X204057143Y-106344819D01*
X204057143Y-106344819D02*
X203961905Y-106487676D01*
X203961905Y-106487676D02*
X203866667Y-106582914D01*
X203866667Y-106582914D02*
X203771429Y-106630533D01*
X145531819Y-98869333D02*
X145055628Y-99202666D01*
X145531819Y-99440761D02*
X144531819Y-99440761D01*
X144531819Y-99440761D02*
X144531819Y-99059809D01*
X144531819Y-99059809D02*
X144579438Y-98964571D01*
X144579438Y-98964571D02*
X144627057Y-98916952D01*
X144627057Y-98916952D02*
X144722295Y-98869333D01*
X144722295Y-98869333D02*
X144865152Y-98869333D01*
X144865152Y-98869333D02*
X144960390Y-98916952D01*
X144960390Y-98916952D02*
X145008009Y-98964571D01*
X145008009Y-98964571D02*
X145055628Y-99059809D01*
X145055628Y-99059809D02*
X145055628Y-99440761D01*
X145008009Y-98440761D02*
X145008009Y-98107428D01*
X145531819Y-97964571D02*
X145531819Y-98440761D01*
X145531819Y-98440761D02*
X144531819Y-98440761D01*
X144531819Y-98440761D02*
X144531819Y-97964571D01*
X145008009Y-97202666D02*
X145008009Y-97535999D01*
X145531819Y-97535999D02*
X144531819Y-97535999D01*
X144531819Y-97535999D02*
X144531819Y-97059809D01*
X144531819Y-96535999D02*
X144769914Y-96535999D01*
X144674676Y-96774094D02*
X144769914Y-96535999D01*
X144769914Y-96535999D02*
X144674676Y-96297904D01*
X144960390Y-96678856D02*
X144769914Y-96535999D01*
X144769914Y-96535999D02*
X144960390Y-96393142D01*
X144531819Y-95774094D02*
X144769914Y-95774094D01*
X144674676Y-96012189D02*
X144769914Y-95774094D01*
X144769914Y-95774094D02*
X144674676Y-95535999D01*
X144960390Y-95916951D02*
X144769914Y-95774094D01*
X144769914Y-95774094D02*
X144960390Y-95631237D01*
X209793819Y-113982333D02*
X209317628Y-114315666D01*
X209793819Y-114553761D02*
X208793819Y-114553761D01*
X208793819Y-114553761D02*
X208793819Y-114172809D01*
X208793819Y-114172809D02*
X208841438Y-114077571D01*
X208841438Y-114077571D02*
X208889057Y-114029952D01*
X208889057Y-114029952D02*
X208984295Y-113982333D01*
X208984295Y-113982333D02*
X209127152Y-113982333D01*
X209127152Y-113982333D02*
X209222390Y-114029952D01*
X209222390Y-114029952D02*
X209270009Y-114077571D01*
X209270009Y-114077571D02*
X209317628Y-114172809D01*
X209317628Y-114172809D02*
X209317628Y-114553761D01*
X209270009Y-113553761D02*
X209270009Y-113220428D01*
X209793819Y-113077571D02*
X209793819Y-113553761D01*
X209793819Y-113553761D02*
X208793819Y-113553761D01*
X208793819Y-113553761D02*
X208793819Y-113077571D01*
X209270009Y-112315666D02*
X209270009Y-112648999D01*
X209793819Y-112648999D02*
X208793819Y-112648999D01*
X208793819Y-112648999D02*
X208793819Y-112172809D01*
X208793819Y-111648999D02*
X209031914Y-111648999D01*
X208936676Y-111887094D02*
X209031914Y-111648999D01*
X209031914Y-111648999D02*
X208936676Y-111410904D01*
X209222390Y-111791856D02*
X209031914Y-111648999D01*
X209031914Y-111648999D02*
X209222390Y-111506142D01*
X208793819Y-110887094D02*
X209031914Y-110887094D01*
X208936676Y-111125189D02*
X209031914Y-110887094D01*
X209031914Y-110887094D02*
X208936676Y-110648999D01*
X209222390Y-111029951D02*
X209031914Y-110887094D01*
X209031914Y-110887094D02*
X209222390Y-110744237D01*
X202390476Y-97708819D02*
X202390476Y-98423104D01*
X202390476Y-98423104D02*
X202342857Y-98565961D01*
X202342857Y-98565961D02*
X202247619Y-98661200D01*
X202247619Y-98661200D02*
X202104762Y-98708819D01*
X202104762Y-98708819D02*
X202009524Y-98708819D01*
X202819048Y-97804057D02*
X202866667Y-97756438D01*
X202866667Y-97756438D02*
X202961905Y-97708819D01*
X202961905Y-97708819D02*
X203200000Y-97708819D01*
X203200000Y-97708819D02*
X203295238Y-97756438D01*
X203295238Y-97756438D02*
X203342857Y-97804057D01*
X203342857Y-97804057D02*
X203390476Y-97899295D01*
X203390476Y-97899295D02*
X203390476Y-97994533D01*
X203390476Y-97994533D02*
X203342857Y-98137390D01*
X203342857Y-98137390D02*
X202771429Y-98708819D01*
X202771429Y-98708819D02*
X203390476Y-98708819D01*
X204009524Y-97708819D02*
X204104762Y-97708819D01*
X204104762Y-97708819D02*
X204200000Y-97756438D01*
X204200000Y-97756438D02*
X204247619Y-97804057D01*
X204247619Y-97804057D02*
X204295238Y-97899295D01*
X204295238Y-97899295D02*
X204342857Y-98089771D01*
X204342857Y-98089771D02*
X204342857Y-98327866D01*
X204342857Y-98327866D02*
X204295238Y-98518342D01*
X204295238Y-98518342D02*
X204247619Y-98613580D01*
X204247619Y-98613580D02*
X204200000Y-98661200D01*
X204200000Y-98661200D02*
X204104762Y-98708819D01*
X204104762Y-98708819D02*
X204009524Y-98708819D01*
X204009524Y-98708819D02*
X203914286Y-98661200D01*
X203914286Y-98661200D02*
X203866667Y-98613580D01*
X203866667Y-98613580D02*
X203819048Y-98518342D01*
X203819048Y-98518342D02*
X203771429Y-98327866D01*
X203771429Y-98327866D02*
X203771429Y-98089771D01*
X203771429Y-98089771D02*
X203819048Y-97899295D01*
X203819048Y-97899295D02*
X203866667Y-97804057D01*
X203866667Y-97804057D02*
X203914286Y-97756438D01*
X203914286Y-97756438D02*
X204009524Y-97708819D01*
X159210476Y-108464819D02*
X159210476Y-109179104D01*
X159210476Y-109179104D02*
X159162857Y-109321961D01*
X159162857Y-109321961D02*
X159067619Y-109417200D01*
X159067619Y-109417200D02*
X158924762Y-109464819D01*
X158924762Y-109464819D02*
X158829524Y-109464819D01*
X160210476Y-109464819D02*
X159639048Y-109464819D01*
X159924762Y-109464819D02*
X159924762Y-108464819D01*
X159924762Y-108464819D02*
X159829524Y-108607676D01*
X159829524Y-108607676D02*
X159734286Y-108702914D01*
X159734286Y-108702914D02*
X159639048Y-108750533D01*
X160543810Y-108464819D02*
X161162857Y-108464819D01*
X161162857Y-108464819D02*
X160829524Y-108845771D01*
X160829524Y-108845771D02*
X160972381Y-108845771D01*
X160972381Y-108845771D02*
X161067619Y-108893390D01*
X161067619Y-108893390D02*
X161115238Y-108941009D01*
X161115238Y-108941009D02*
X161162857Y-109036247D01*
X161162857Y-109036247D02*
X161162857Y-109274342D01*
X161162857Y-109274342D02*
X161115238Y-109369580D01*
X161115238Y-109369580D02*
X161067619Y-109417200D01*
X161067619Y-109417200D02*
X160972381Y-109464819D01*
X160972381Y-109464819D02*
X160686667Y-109464819D01*
X160686667Y-109464819D02*
X160591429Y-109417200D01*
X160591429Y-109417200D02*
X160543810Y-109369580D01*
X170343095Y-76849819D02*
X170343095Y-77659342D01*
X170343095Y-77659342D02*
X170390714Y-77754580D01*
X170390714Y-77754580D02*
X170438333Y-77802200D01*
X170438333Y-77802200D02*
X170533571Y-77849819D01*
X170533571Y-77849819D02*
X170724047Y-77849819D01*
X170724047Y-77849819D02*
X170819285Y-77802200D01*
X170819285Y-77802200D02*
X170866904Y-77754580D01*
X170866904Y-77754580D02*
X170914523Y-77659342D01*
X170914523Y-77659342D02*
X170914523Y-76849819D01*
X171914523Y-77849819D02*
X171343095Y-77849819D01*
X171628809Y-77849819D02*
X171628809Y-76849819D01*
X171628809Y-76849819D02*
X171533571Y-76992676D01*
X171533571Y-76992676D02*
X171438333Y-77087914D01*
X171438333Y-77087914D02*
X171343095Y-77135533D01*
X202390476Y-103804819D02*
X202390476Y-104519104D01*
X202390476Y-104519104D02*
X202342857Y-104661961D01*
X202342857Y-104661961D02*
X202247619Y-104757200D01*
X202247619Y-104757200D02*
X202104762Y-104804819D01*
X202104762Y-104804819D02*
X202009524Y-104804819D01*
X203390476Y-104804819D02*
X202819048Y-104804819D01*
X203104762Y-104804819D02*
X203104762Y-103804819D01*
X203104762Y-103804819D02*
X203009524Y-103947676D01*
X203009524Y-103947676D02*
X202914286Y-104042914D01*
X202914286Y-104042914D02*
X202819048Y-104090533D01*
X203866667Y-104804819D02*
X204057143Y-104804819D01*
X204057143Y-104804819D02*
X204152381Y-104757200D01*
X204152381Y-104757200D02*
X204200000Y-104709580D01*
X204200000Y-104709580D02*
X204295238Y-104566723D01*
X204295238Y-104566723D02*
X204342857Y-104376247D01*
X204342857Y-104376247D02*
X204342857Y-103995295D01*
X204342857Y-103995295D02*
X204295238Y-103900057D01*
X204295238Y-103900057D02*
X204247619Y-103852438D01*
X204247619Y-103852438D02*
X204152381Y-103804819D01*
X204152381Y-103804819D02*
X203961905Y-103804819D01*
X203961905Y-103804819D02*
X203866667Y-103852438D01*
X203866667Y-103852438D02*
X203819048Y-103900057D01*
X203819048Y-103900057D02*
X203771429Y-103995295D01*
X203771429Y-103995295D02*
X203771429Y-104233390D01*
X203771429Y-104233390D02*
X203819048Y-104328628D01*
X203819048Y-104328628D02*
X203866667Y-104376247D01*
X203866667Y-104376247D02*
X203961905Y-104423866D01*
X203961905Y-104423866D02*
X204152381Y-104423866D01*
X204152381Y-104423866D02*
X204247619Y-104376247D01*
X204247619Y-104376247D02*
X204295238Y-104328628D01*
X204295238Y-104328628D02*
X204342857Y-104233390D01*
X159210476Y-123704819D02*
X159210476Y-124419104D01*
X159210476Y-124419104D02*
X159162857Y-124561961D01*
X159162857Y-124561961D02*
X159067619Y-124657200D01*
X159067619Y-124657200D02*
X158924762Y-124704819D01*
X158924762Y-124704819D02*
X158829524Y-124704819D01*
X160210476Y-124704819D02*
X159639048Y-124704819D01*
X159924762Y-124704819D02*
X159924762Y-123704819D01*
X159924762Y-123704819D02*
X159829524Y-123847676D01*
X159829524Y-123847676D02*
X159734286Y-123942914D01*
X159734286Y-123942914D02*
X159639048Y-123990533D01*
X160543810Y-123704819D02*
X161210476Y-123704819D01*
X161210476Y-123704819D02*
X160781905Y-124704819D01*
X159210476Y-106344819D02*
X159210476Y-107059104D01*
X159210476Y-107059104D02*
X159162857Y-107201961D01*
X159162857Y-107201961D02*
X159067619Y-107297200D01*
X159067619Y-107297200D02*
X158924762Y-107344819D01*
X158924762Y-107344819D02*
X158829524Y-107344819D01*
X160210476Y-107344819D02*
X159639048Y-107344819D01*
X159924762Y-107344819D02*
X159924762Y-106344819D01*
X159924762Y-106344819D02*
X159829524Y-106487676D01*
X159829524Y-106487676D02*
X159734286Y-106582914D01*
X159734286Y-106582914D02*
X159639048Y-106630533D01*
X161115238Y-106344819D02*
X160639048Y-106344819D01*
X160639048Y-106344819D02*
X160591429Y-106821009D01*
X160591429Y-106821009D02*
X160639048Y-106773390D01*
X160639048Y-106773390D02*
X160734286Y-106725771D01*
X160734286Y-106725771D02*
X160972381Y-106725771D01*
X160972381Y-106725771D02*
X161067619Y-106773390D01*
X161067619Y-106773390D02*
X161115238Y-106821009D01*
X161115238Y-106821009D02*
X161162857Y-106916247D01*
X161162857Y-106916247D02*
X161162857Y-107154342D01*
X161162857Y-107154342D02*
X161115238Y-107249580D01*
X161115238Y-107249580D02*
X161067619Y-107297200D01*
X161067619Y-107297200D02*
X160972381Y-107344819D01*
X160972381Y-107344819D02*
X160734286Y-107344819D01*
X160734286Y-107344819D02*
X160639048Y-107297200D01*
X160639048Y-107297200D02*
X160591429Y-107249580D01*
X158956476Y-93644819D02*
X158956476Y-94359104D01*
X158956476Y-94359104D02*
X158908857Y-94501961D01*
X158908857Y-94501961D02*
X158813619Y-94597200D01*
X158813619Y-94597200D02*
X158670762Y-94644819D01*
X158670762Y-94644819D02*
X158575524Y-94644819D01*
X159956476Y-94644819D02*
X159385048Y-94644819D01*
X159670762Y-94644819D02*
X159670762Y-93644819D01*
X159670762Y-93644819D02*
X159575524Y-93787676D01*
X159575524Y-93787676D02*
X159480286Y-93882914D01*
X159480286Y-93882914D02*
X159385048Y-93930533D01*
X160337429Y-93740057D02*
X160385048Y-93692438D01*
X160385048Y-93692438D02*
X160480286Y-93644819D01*
X160480286Y-93644819D02*
X160718381Y-93644819D01*
X160718381Y-93644819D02*
X160813619Y-93692438D01*
X160813619Y-93692438D02*
X160861238Y-93740057D01*
X160861238Y-93740057D02*
X160908857Y-93835295D01*
X160908857Y-93835295D02*
X160908857Y-93930533D01*
X160908857Y-93930533D02*
X160861238Y-94073390D01*
X160861238Y-94073390D02*
X160289810Y-94644819D01*
X160289810Y-94644819D02*
X160908857Y-94644819D01*
X158956476Y-91104819D02*
X158956476Y-91819104D01*
X158956476Y-91819104D02*
X158908857Y-91961961D01*
X158908857Y-91961961D02*
X158813619Y-92057200D01*
X158813619Y-92057200D02*
X158670762Y-92104819D01*
X158670762Y-92104819D02*
X158575524Y-92104819D01*
X159956476Y-92104819D02*
X159385048Y-92104819D01*
X159670762Y-92104819D02*
X159670762Y-91104819D01*
X159670762Y-91104819D02*
X159575524Y-91247676D01*
X159575524Y-91247676D02*
X159480286Y-91342914D01*
X159480286Y-91342914D02*
X159385048Y-91390533D01*
X160908857Y-92104819D02*
X160337429Y-92104819D01*
X160623143Y-92104819D02*
X160623143Y-91104819D01*
X160623143Y-91104819D02*
X160527905Y-91247676D01*
X160527905Y-91247676D02*
X160432667Y-91342914D01*
X160432667Y-91342914D02*
X160337429Y-91390533D01*
X202390476Y-95168819D02*
X202390476Y-95883104D01*
X202390476Y-95883104D02*
X202342857Y-96025961D01*
X202342857Y-96025961D02*
X202247619Y-96121200D01*
X202247619Y-96121200D02*
X202104762Y-96168819D01*
X202104762Y-96168819D02*
X202009524Y-96168819D01*
X203390476Y-96168819D02*
X202819048Y-96168819D01*
X203104762Y-96168819D02*
X203104762Y-95168819D01*
X203104762Y-95168819D02*
X203009524Y-95311676D01*
X203009524Y-95311676D02*
X202914286Y-95406914D01*
X202914286Y-95406914D02*
X202819048Y-95454533D01*
X204247619Y-95502152D02*
X204247619Y-96168819D01*
X204009524Y-95121200D02*
X203771429Y-95835485D01*
X203771429Y-95835485D02*
X204390476Y-95835485D01*
X158956476Y-88564819D02*
X158956476Y-89279104D01*
X158956476Y-89279104D02*
X158908857Y-89421961D01*
X158908857Y-89421961D02*
X158813619Y-89517200D01*
X158813619Y-89517200D02*
X158670762Y-89564819D01*
X158670762Y-89564819D02*
X158575524Y-89564819D01*
X159385048Y-88660057D02*
X159432667Y-88612438D01*
X159432667Y-88612438D02*
X159527905Y-88564819D01*
X159527905Y-88564819D02*
X159766000Y-88564819D01*
X159766000Y-88564819D02*
X159861238Y-88612438D01*
X159861238Y-88612438D02*
X159908857Y-88660057D01*
X159908857Y-88660057D02*
X159956476Y-88755295D01*
X159956476Y-88755295D02*
X159956476Y-88850533D01*
X159956476Y-88850533D02*
X159908857Y-88993390D01*
X159908857Y-88993390D02*
X159337429Y-89564819D01*
X159337429Y-89564819D02*
X159956476Y-89564819D01*
X160861238Y-88564819D02*
X160385048Y-88564819D01*
X160385048Y-88564819D02*
X160337429Y-89041009D01*
X160337429Y-89041009D02*
X160385048Y-88993390D01*
X160385048Y-88993390D02*
X160480286Y-88945771D01*
X160480286Y-88945771D02*
X160718381Y-88945771D01*
X160718381Y-88945771D02*
X160813619Y-88993390D01*
X160813619Y-88993390D02*
X160861238Y-89041009D01*
X160861238Y-89041009D02*
X160908857Y-89136247D01*
X160908857Y-89136247D02*
X160908857Y-89374342D01*
X160908857Y-89374342D02*
X160861238Y-89469580D01*
X160861238Y-89469580D02*
X160813619Y-89517200D01*
X160813619Y-89517200D02*
X160718381Y-89564819D01*
X160718381Y-89564819D02*
X160480286Y-89564819D01*
X160480286Y-89564819D02*
X160385048Y-89517200D01*
X160385048Y-89517200D02*
X160337429Y-89469580D01*
X215510819Y-128523333D02*
X216225104Y-128523333D01*
X216225104Y-128523333D02*
X216367961Y-128570952D01*
X216367961Y-128570952D02*
X216463200Y-128666190D01*
X216463200Y-128666190D02*
X216510819Y-128809047D01*
X216510819Y-128809047D02*
X216510819Y-128904285D01*
X215606057Y-128094761D02*
X215558438Y-128047142D01*
X215558438Y-128047142D02*
X215510819Y-127951904D01*
X215510819Y-127951904D02*
X215510819Y-127713809D01*
X215510819Y-127713809D02*
X215558438Y-127618571D01*
X215558438Y-127618571D02*
X215606057Y-127570952D01*
X215606057Y-127570952D02*
X215701295Y-127523333D01*
X215701295Y-127523333D02*
X215796533Y-127523333D01*
X215796533Y-127523333D02*
X215939390Y-127570952D01*
X215939390Y-127570952D02*
X216510819Y-128142380D01*
X216510819Y-128142380D02*
X216510819Y-127523333D01*
X221664819Y-103123333D02*
X222379104Y-103123333D01*
X222379104Y-103123333D02*
X222521961Y-103170952D01*
X222521961Y-103170952D02*
X222617200Y-103266190D01*
X222617200Y-103266190D02*
X222664819Y-103409047D01*
X222664819Y-103409047D02*
X222664819Y-103504285D01*
X222664819Y-102599523D02*
X222664819Y-102409047D01*
X222664819Y-102409047D02*
X222617200Y-102313809D01*
X222617200Y-102313809D02*
X222569580Y-102266190D01*
X222569580Y-102266190D02*
X222426723Y-102170952D01*
X222426723Y-102170952D02*
X222236247Y-102123333D01*
X222236247Y-102123333D02*
X221855295Y-102123333D01*
X221855295Y-102123333D02*
X221760057Y-102170952D01*
X221760057Y-102170952D02*
X221712438Y-102218571D01*
X221712438Y-102218571D02*
X221664819Y-102313809D01*
X221664819Y-102313809D02*
X221664819Y-102504285D01*
X221664819Y-102504285D02*
X221712438Y-102599523D01*
X221712438Y-102599523D02*
X221760057Y-102647142D01*
X221760057Y-102647142D02*
X221855295Y-102694761D01*
X221855295Y-102694761D02*
X222093390Y-102694761D01*
X222093390Y-102694761D02*
X222188628Y-102647142D01*
X222188628Y-102647142D02*
X222236247Y-102599523D01*
X222236247Y-102599523D02*
X222283866Y-102504285D01*
X222283866Y-102504285D02*
X222283866Y-102313809D01*
X222283866Y-102313809D02*
X222236247Y-102218571D01*
X222236247Y-102218571D02*
X222188628Y-102170952D01*
X222188628Y-102170952D02*
X222093390Y-102123333D01*
X159210476Y-129204819D02*
X159210476Y-129919104D01*
X159210476Y-129919104D02*
X159162857Y-130061961D01*
X159162857Y-130061961D02*
X159067619Y-130157200D01*
X159067619Y-130157200D02*
X158924762Y-130204819D01*
X158924762Y-130204819D02*
X158829524Y-130204819D01*
X160210476Y-130204819D02*
X159639048Y-130204819D01*
X159924762Y-130204819D02*
X159924762Y-129204819D01*
X159924762Y-129204819D02*
X159829524Y-129347676D01*
X159829524Y-129347676D02*
X159734286Y-129442914D01*
X159734286Y-129442914D02*
X159639048Y-129490533D01*
X160781905Y-129633390D02*
X160686667Y-129585771D01*
X160686667Y-129585771D02*
X160639048Y-129538152D01*
X160639048Y-129538152D02*
X160591429Y-129442914D01*
X160591429Y-129442914D02*
X160591429Y-129395295D01*
X160591429Y-129395295D02*
X160639048Y-129300057D01*
X160639048Y-129300057D02*
X160686667Y-129252438D01*
X160686667Y-129252438D02*
X160781905Y-129204819D01*
X160781905Y-129204819D02*
X160972381Y-129204819D01*
X160972381Y-129204819D02*
X161067619Y-129252438D01*
X161067619Y-129252438D02*
X161115238Y-129300057D01*
X161115238Y-129300057D02*
X161162857Y-129395295D01*
X161162857Y-129395295D02*
X161162857Y-129442914D01*
X161162857Y-129442914D02*
X161115238Y-129538152D01*
X161115238Y-129538152D02*
X161067619Y-129585771D01*
X161067619Y-129585771D02*
X160972381Y-129633390D01*
X160972381Y-129633390D02*
X160781905Y-129633390D01*
X160781905Y-129633390D02*
X160686667Y-129681009D01*
X160686667Y-129681009D02*
X160639048Y-129728628D01*
X160639048Y-129728628D02*
X160591429Y-129823866D01*
X160591429Y-129823866D02*
X160591429Y-130014342D01*
X160591429Y-130014342D02*
X160639048Y-130109580D01*
X160639048Y-130109580D02*
X160686667Y-130157200D01*
X160686667Y-130157200D02*
X160781905Y-130204819D01*
X160781905Y-130204819D02*
X160972381Y-130204819D01*
X160972381Y-130204819D02*
X161067619Y-130157200D01*
X161067619Y-130157200D02*
X161115238Y-130109580D01*
X161115238Y-130109580D02*
X161162857Y-130014342D01*
X161162857Y-130014342D02*
X161162857Y-129823866D01*
X161162857Y-129823866D02*
X161115238Y-129728628D01*
X161115238Y-129728628D02*
X161067619Y-129681009D01*
X161067619Y-129681009D02*
X160972381Y-129633390D01*
X221710819Y-90697333D02*
X222425104Y-90697333D01*
X222425104Y-90697333D02*
X222567961Y-90744952D01*
X222567961Y-90744952D02*
X222663200Y-90840190D01*
X222663200Y-90840190D02*
X222710819Y-90983047D01*
X222710819Y-90983047D02*
X222710819Y-91078285D01*
X221710819Y-90316380D02*
X221710819Y-89697333D01*
X221710819Y-89697333D02*
X222091771Y-90030666D01*
X222091771Y-90030666D02*
X222091771Y-89887809D01*
X222091771Y-89887809D02*
X222139390Y-89792571D01*
X222139390Y-89792571D02*
X222187009Y-89744952D01*
X222187009Y-89744952D02*
X222282247Y-89697333D01*
X222282247Y-89697333D02*
X222520342Y-89697333D01*
X222520342Y-89697333D02*
X222615580Y-89744952D01*
X222615580Y-89744952D02*
X222663200Y-89792571D01*
X222663200Y-89792571D02*
X222710819Y-89887809D01*
X222710819Y-89887809D02*
X222710819Y-90173523D01*
X222710819Y-90173523D02*
X222663200Y-90268761D01*
X222663200Y-90268761D02*
X222615580Y-90316380D01*
D11*
%TO.C,J10*%
X201870000Y-120590000D02*
X203200000Y-120590000D01*
X201870000Y-123190000D02*
X201870000Y-123250000D01*
X201870000Y-121920000D02*
X201870000Y-120590000D01*
X201870000Y-123190000D02*
X204530000Y-123190000D01*
X204530000Y-123190000D02*
X204530000Y-123250000D01*
X201870000Y-123250000D02*
X204530000Y-123250000D01*
%TO.C,J4*%
X218856000Y-118850000D02*
X217646000Y-118850000D01*
X221166000Y-109130000D02*
X217146000Y-109130000D01*
X218856000Y-109630000D02*
X218856000Y-109130000D01*
X219666000Y-109130000D02*
X219666000Y-110130000D01*
X219666000Y-119350000D02*
X219666000Y-118350000D01*
X217146000Y-109130000D02*
X217146000Y-119350000D01*
X221166000Y-119350000D02*
X221166000Y-109130000D01*
X217646000Y-109630000D02*
X218856000Y-109630000D01*
X221466000Y-119650000D02*
X221466000Y-117150000D01*
X218966000Y-119650000D02*
X221466000Y-119650000D01*
X219666000Y-110130000D02*
X221166000Y-110130000D01*
X217146000Y-119350000D02*
X221166000Y-119350000D01*
X218856000Y-119350000D02*
X218856000Y-118850000D01*
X219666000Y-118350000D02*
X221166000Y-118350000D01*
X217646000Y-118850000D02*
X217646000Y-109630000D01*
%TO.C,J22*%
X201870000Y-116840000D02*
X201870000Y-115510000D01*
X204530000Y-118110000D02*
X204530000Y-118170000D01*
X201870000Y-115510000D02*
X203200000Y-115510000D01*
X201870000Y-118170000D02*
X204530000Y-118170000D01*
X201870000Y-118110000D02*
X201870000Y-118170000D01*
X201870000Y-118110000D02*
X204530000Y-118110000D01*
%TO.C,J5*%
X141049000Y-107880000D02*
X141049000Y-108880000D01*
X141049000Y-118100000D02*
X141049000Y-117100000D01*
X141749000Y-107580000D02*
X139249000Y-107580000D01*
X141859000Y-108380000D02*
X143069000Y-108380000D01*
X141859000Y-107880000D02*
X141859000Y-108380000D01*
X139549000Y-118100000D02*
X143569000Y-118100000D01*
X141049000Y-108880000D02*
X139549000Y-108880000D01*
X139249000Y-107580000D02*
X139249000Y-110080000D01*
X141049000Y-117100000D02*
X139549000Y-117100000D01*
X143569000Y-118100000D02*
X143569000Y-107880000D01*
X143069000Y-117600000D02*
X141859000Y-117600000D01*
X143569000Y-107880000D02*
X139549000Y-107880000D01*
X143069000Y-108380000D02*
X143069000Y-117600000D01*
X139549000Y-107880000D02*
X139549000Y-118100000D01*
X141859000Y-117600000D02*
X141859000Y-118100000D01*
%TO.C,J16*%
X158690000Y-118110000D02*
X161350000Y-118110000D01*
X158690000Y-115510000D02*
X160020000Y-115510000D01*
X158690000Y-118110000D02*
X158690000Y-118170000D01*
X161350000Y-118110000D02*
X161350000Y-118170000D01*
X158690000Y-116840000D02*
X158690000Y-115510000D01*
X158690000Y-118170000D02*
X161350000Y-118170000D01*
%TO.C,J24*%
X158690000Y-120650000D02*
X161350000Y-120650000D01*
X158690000Y-120710000D02*
X161350000Y-120710000D01*
X161350000Y-120650000D02*
X161350000Y-120710000D01*
X158690000Y-120650000D02*
X158690000Y-120710000D01*
X158690000Y-119380000D02*
X158690000Y-118050000D01*
X158690000Y-118050000D02*
X160020000Y-118050000D01*
%TO.C,REF\u002A\u002A*%
X211301000Y-89059000D02*
X208561000Y-89059000D01*
X208561000Y-95599000D02*
X211301000Y-95599000D01*
X211301000Y-95599000D02*
X211301000Y-89059000D01*
X209931000Y-88289000D02*
X209931000Y-89059000D01*
X208561000Y-89059000D02*
X208561000Y-95599000D01*
X209931000Y-96369000D02*
X209931000Y-95599000D01*
%TO.C,J1*%
X141495000Y-124130000D02*
X138995000Y-124130000D01*
X140795000Y-134650000D02*
X140795000Y-133650000D01*
X141605000Y-124430000D02*
X141605000Y-124930000D01*
X138995000Y-124130000D02*
X138995000Y-126630000D01*
X141605000Y-124930000D02*
X142815000Y-124930000D01*
X140795000Y-125430000D02*
X139295000Y-125430000D01*
X142815000Y-134150000D02*
X141605000Y-134150000D01*
X143315000Y-124430000D02*
X139295000Y-124430000D01*
X140795000Y-133650000D02*
X139295000Y-133650000D01*
X142815000Y-124930000D02*
X142815000Y-134150000D01*
X143315000Y-134650000D02*
X143315000Y-124430000D01*
X139295000Y-124430000D02*
X139295000Y-134650000D01*
X141605000Y-134150000D02*
X141605000Y-134650000D01*
X139295000Y-134650000D02*
X143315000Y-134650000D01*
X140795000Y-124430000D02*
X140795000Y-125430000D01*
%TO.C,J6*%
X201870000Y-133350000D02*
X201870000Y-133410000D01*
X204530000Y-133350000D02*
X204530000Y-133410000D01*
X201870000Y-133350000D02*
X204530000Y-133350000D01*
X201870000Y-130750000D02*
X203200000Y-130750000D01*
X201870000Y-133410000D02*
X204530000Y-133410000D01*
X201870000Y-132080000D02*
X201870000Y-130750000D01*
%TO.C,J7*%
X143407000Y-103154000D02*
X143407000Y-90434000D01*
X143707000Y-103454000D02*
X143707000Y-100954000D01*
X139887000Y-90934000D02*
X141097000Y-90934000D01*
X141097000Y-90934000D02*
X141097000Y-90434000D01*
X141097000Y-102654000D02*
X139887000Y-102654000D01*
X141097000Y-103154000D02*
X141097000Y-102654000D01*
X139887000Y-102654000D02*
X139887000Y-90934000D01*
X141907000Y-90434000D02*
X141907000Y-91434000D01*
X141907000Y-103154000D02*
X141907000Y-102154000D01*
X141907000Y-91434000D02*
X143407000Y-91434000D01*
X143407000Y-90434000D02*
X139387000Y-90434000D01*
X141207000Y-103454000D02*
X143707000Y-103454000D01*
X139387000Y-90434000D02*
X139387000Y-103154000D01*
X141907000Y-102154000D02*
X143407000Y-102154000D01*
X139387000Y-103154000D02*
X143407000Y-103154000D01*
%TO.C,J23*%
X204530000Y-120650000D02*
X204530000Y-120710000D01*
X201870000Y-120710000D02*
X204530000Y-120710000D01*
X201870000Y-118050000D02*
X203200000Y-118050000D01*
X201870000Y-120650000D02*
X201870000Y-120710000D01*
X201870000Y-120650000D02*
X204530000Y-120650000D01*
X201870000Y-119380000D02*
X201870000Y-118050000D01*
%TO.C,J8*%
X136203000Y-115714000D02*
X132183000Y-115714000D01*
X134493000Y-115714000D02*
X134493000Y-116214000D01*
X136203000Y-123434000D02*
X136203000Y-115714000D01*
X135703000Y-116214000D02*
X135703000Y-122934000D01*
X132183000Y-115714000D02*
X132183000Y-123434000D01*
X135703000Y-122934000D02*
X134493000Y-122934000D01*
X131883000Y-115414000D02*
X131883000Y-117914000D01*
X134493000Y-122934000D02*
X134493000Y-123434000D01*
X132183000Y-123434000D02*
X136203000Y-123434000D01*
X133683000Y-116714000D02*
X132183000Y-116714000D01*
X133683000Y-123434000D02*
X133683000Y-122434000D01*
X134383000Y-115414000D02*
X131883000Y-115414000D01*
X134493000Y-116214000D02*
X135703000Y-116214000D01*
X133683000Y-122434000D02*
X132183000Y-122434000D01*
X133683000Y-115714000D02*
X133683000Y-116714000D01*
%TO.C,REF\u002A\u002A*%
X149506000Y-103727000D02*
X152246000Y-103727000D01*
X149506000Y-97187000D02*
X149506000Y-103727000D01*
X150876000Y-96417000D02*
X150876000Y-97187000D01*
X150876000Y-104497000D02*
X150876000Y-103727000D01*
X152246000Y-97187000D02*
X149506000Y-97187000D01*
X152246000Y-103727000D02*
X152246000Y-97187000D01*
%TO.C,J21*%
X201870000Y-109220000D02*
X201870000Y-107890000D01*
X204530000Y-110490000D02*
X204530000Y-110550000D01*
X201870000Y-110490000D02*
X201870000Y-110550000D01*
X201870000Y-110490000D02*
X204530000Y-110490000D01*
X201870000Y-110550000D02*
X204530000Y-110550000D01*
X201870000Y-107890000D02*
X203200000Y-107890000D01*
%TO.C,REF\u002A\u002A*%
X148817000Y-100806000D02*
X148817000Y-94266000D01*
X147447000Y-93496000D02*
X147447000Y-94266000D01*
X146077000Y-94266000D02*
X146077000Y-100806000D01*
X147447000Y-101576000D02*
X147447000Y-100806000D01*
X148817000Y-94266000D02*
X146077000Y-94266000D01*
X146077000Y-100806000D02*
X148817000Y-100806000D01*
X213079000Y-109379000D02*
X210339000Y-109379000D01*
X211709000Y-108609000D02*
X211709000Y-109379000D01*
X210339000Y-109379000D02*
X210339000Y-115919000D01*
X210339000Y-115919000D02*
X213079000Y-115919000D01*
X213079000Y-115919000D02*
X213079000Y-109379000D01*
X211709000Y-116689000D02*
X211709000Y-115919000D01*
%TO.C,J20*%
X201870000Y-101854000D02*
X204530000Y-101854000D01*
X201870000Y-101854000D02*
X201870000Y-101914000D01*
X201870000Y-101914000D02*
X204530000Y-101914000D01*
X201870000Y-99254000D02*
X203200000Y-99254000D01*
X201870000Y-100584000D02*
X201870000Y-99254000D01*
X204530000Y-101854000D02*
X204530000Y-101914000D01*
%TO.C,J13*%
X161350000Y-106680000D02*
X161350000Y-108010000D01*
X161350000Y-105350000D02*
X158690000Y-105350000D01*
X161350000Y-105410000D02*
X161350000Y-105350000D01*
X158690000Y-105410000D02*
X158690000Y-105350000D01*
X161350000Y-105410000D02*
X158690000Y-105410000D01*
X161350000Y-108010000D02*
X160020000Y-108010000D01*
D12*
%TO.C,U1*%
X168180000Y-79280000D02*
X179249000Y-79280000D01*
X168180000Y-79280000D02*
X196690000Y-79280000D01*
X196690000Y-79280000D02*
X196690000Y-130230000D01*
X173550000Y-130230000D02*
X191240000Y-130230000D01*
X168180000Y-130230000D02*
X168180000Y-79280000D01*
X196690000Y-79280000D02*
X196690000Y-130230000D01*
X168180000Y-130230000D02*
X173550000Y-130230000D01*
X168180000Y-130230000D02*
X168180000Y-79280000D01*
X185960000Y-79280000D02*
X196690000Y-79280000D01*
X179249000Y-79280000D02*
X185960000Y-79280000D01*
X196690000Y-130230000D02*
X168180000Y-130230000D01*
X191240000Y-130230000D02*
X196690000Y-130230000D01*
D13*
X167710000Y-89240000D02*
G75*
G03*
X167510000Y-89240000I-100000J0D01*
G01*
X167510000Y-89240000D02*
G75*
G03*
X167710000Y-89240000I100000J0D01*
G01*
D11*
%TO.C,J19*%
X201870000Y-107950000D02*
X204530000Y-107950000D01*
X201870000Y-106680000D02*
X201870000Y-105350000D01*
X204530000Y-107950000D02*
X204530000Y-108010000D01*
X201870000Y-107950000D02*
X201870000Y-108010000D01*
X201870000Y-105350000D02*
X203200000Y-105350000D01*
X201870000Y-108010000D02*
X204530000Y-108010000D01*
%TO.C,J17*%
X161350000Y-120590000D02*
X158690000Y-120590000D01*
X161350000Y-123250000D02*
X160020000Y-123250000D01*
X161350000Y-121920000D02*
X161350000Y-123250000D01*
X161350000Y-120650000D02*
X161350000Y-120590000D01*
X161350000Y-120650000D02*
X158690000Y-120650000D01*
X158690000Y-120650000D02*
X158690000Y-120590000D01*
%TO.C,J15*%
X158690000Y-110550000D02*
X161350000Y-110550000D01*
X158690000Y-110490000D02*
X161350000Y-110490000D01*
X161350000Y-110490000D02*
X161350000Y-110550000D01*
X158690000Y-110490000D02*
X158690000Y-110550000D01*
X158690000Y-109220000D02*
X158690000Y-107890000D01*
X158690000Y-107890000D02*
X160020000Y-107890000D01*
%TO.C,J12*%
X158436000Y-97790000D02*
X161096000Y-97790000D01*
X158436000Y-97850000D02*
X161096000Y-97850000D01*
X161096000Y-97790000D02*
X161096000Y-97850000D01*
X158436000Y-97790000D02*
X158436000Y-97850000D01*
X158436000Y-96520000D02*
X158436000Y-95190000D01*
X158436000Y-95190000D02*
X159766000Y-95190000D01*
%TO.C,J11*%
X158436000Y-95310000D02*
X161096000Y-95310000D01*
X158436000Y-92650000D02*
X159766000Y-92650000D01*
X158436000Y-95250000D02*
X158436000Y-95310000D01*
X158436000Y-95250000D02*
X161096000Y-95250000D01*
X158436000Y-93980000D02*
X158436000Y-92650000D01*
X161096000Y-95250000D02*
X161096000Y-95310000D01*
%TO.C,J14*%
X201870000Y-99314000D02*
X201870000Y-99374000D01*
X201870000Y-96714000D02*
X203200000Y-96714000D01*
X204530000Y-99314000D02*
X204530000Y-99374000D01*
X201870000Y-99314000D02*
X204530000Y-99314000D01*
X201870000Y-98044000D02*
X201870000Y-96714000D01*
X201870000Y-99374000D02*
X204530000Y-99374000D01*
%TO.C,J25*%
X158436000Y-90110000D02*
X159766000Y-90110000D01*
X158436000Y-92710000D02*
X158436000Y-92770000D01*
X158436000Y-92710000D02*
X161096000Y-92710000D01*
X158436000Y-92770000D02*
X161096000Y-92770000D01*
X161096000Y-92710000D02*
X161096000Y-92770000D01*
X158436000Y-91440000D02*
X158436000Y-90110000D01*
%TO.C,J2*%
X218856000Y-134050000D02*
X217646000Y-134050000D01*
X219666000Y-122830000D02*
X221166000Y-122830000D01*
X219666000Y-121830000D02*
X219666000Y-122830000D01*
X221166000Y-121830000D02*
X217146000Y-121830000D01*
X217646000Y-134050000D02*
X217646000Y-122330000D01*
X218966000Y-134850000D02*
X221466000Y-134850000D01*
X218856000Y-122330000D02*
X218856000Y-121830000D01*
X219666000Y-133550000D02*
X221166000Y-133550000D01*
X217146000Y-134550000D02*
X221166000Y-134550000D01*
X219666000Y-134550000D02*
X219666000Y-133550000D01*
X217146000Y-121830000D02*
X217146000Y-134550000D01*
X217646000Y-122330000D02*
X218856000Y-122330000D01*
X221466000Y-134850000D02*
X221466000Y-132350000D01*
X221166000Y-134550000D02*
X221166000Y-121830000D01*
X218856000Y-134550000D02*
X218856000Y-134050000D01*
%TO.C,J9*%
X221120000Y-98930000D02*
X217100000Y-98930000D01*
X220620000Y-99430000D02*
X220620000Y-106150000D01*
X217100000Y-98930000D02*
X217100000Y-106650000D01*
X218600000Y-106650000D02*
X218600000Y-105650000D01*
X219410000Y-99430000D02*
X220620000Y-99430000D01*
X218600000Y-98930000D02*
X218600000Y-99930000D01*
X220620000Y-106150000D02*
X219410000Y-106150000D01*
X217100000Y-106650000D02*
X221120000Y-106650000D01*
X218600000Y-99930000D02*
X217100000Y-99930000D01*
X219410000Y-106150000D02*
X219410000Y-106650000D01*
X221120000Y-106650000D02*
X221120000Y-98930000D01*
X216800000Y-98630000D02*
X216800000Y-101130000D01*
X219300000Y-98630000D02*
X216800000Y-98630000D01*
X219410000Y-98930000D02*
X219410000Y-99430000D01*
X218600000Y-105650000D02*
X217100000Y-105650000D01*
%TO.C,J18*%
X158690000Y-133350000D02*
X161350000Y-133350000D01*
X158690000Y-133350000D02*
X158690000Y-133410000D01*
X158690000Y-130750000D02*
X160020000Y-130750000D01*
X158690000Y-133410000D02*
X161350000Y-133410000D01*
X161350000Y-133350000D02*
X161350000Y-133410000D01*
X158690000Y-132080000D02*
X158690000Y-130750000D01*
%TO.C,J3*%
X220666000Y-96224000D02*
X219456000Y-96224000D01*
X218646000Y-95724000D02*
X217146000Y-95724000D01*
X219456000Y-84004000D02*
X219456000Y-84504000D01*
X219456000Y-96224000D02*
X219456000Y-96724000D01*
X219456000Y-84504000D02*
X220666000Y-84504000D01*
X216846000Y-83704000D02*
X216846000Y-86204000D01*
X217146000Y-96724000D02*
X221166000Y-96724000D01*
X217146000Y-84004000D02*
X217146000Y-96724000D01*
X218646000Y-85004000D02*
X217146000Y-85004000D01*
X221166000Y-84004000D02*
X217146000Y-84004000D01*
X219346000Y-83704000D02*
X216846000Y-83704000D01*
X221166000Y-96724000D02*
X221166000Y-84004000D01*
X218646000Y-84004000D02*
X218646000Y-85004000D01*
X218646000Y-96724000D02*
X218646000Y-95724000D01*
X220666000Y-84504000D02*
X220666000Y-96224000D01*
%TD*%
M02*
