M48
; DRILL file {KiCad 7.0.10} date Wed Feb 21 12:35:21 2024
; FORMAT={-:-/ absolute / inch / decimal}
; #@! TF.CreationDate,2024-02-21T12:35:21+05:00
; #@! TF.GenerationSoftware,Kicad,Pcbnew,7.0.10
; #@! TF.FileFunction,Plated,1,2,PTH
FMAT,2
INCH
; #@! TA.AperFunction,Plated,PTH,ComponentDrill
T1C0.0394
; #@! TA.AperFunction,Plated,PTH,ComponentDrill
T2C0.0402
; #@! TA.AperFunction,Plated,PTH,ComponentDrill
T3C0.0472
%
G90
G05
T1
X4.3598Y-3.705
X4.3604Y-3.194
X4.3654Y-2.209
X4.3656Y-2.724
X4.4598Y-3.705
X4.4604Y-3.194
X4.4654Y-2.209
X4.4656Y-2.724
X4.5604Y-3.194
X4.5654Y-2.209
X4.5656Y-2.724
X4.6604Y-3.194
X4.6654Y-2.209
X6.2908Y-2.684
X6.34Y-3.026
X6.3908Y-2.684
X6.44Y-2.15
X6.44Y-3.026
X6.4406Y-3.709
X6.54Y-2.15
X6.54Y-3.026
X6.5406Y-3.709
X6.64Y-2.15
X6.64Y-3.026
X6.6406Y-3.709
T2
X5.0Y-2.1108
X5.0Y-2.2108
X5.0Y-2.3108
X5.0Y-2.4108
X5.0Y-2.5108
X5.0Y-2.6108
X5.0Y-2.7108
X5.0Y-2.8108
X5.0Y-2.9108
X5.0Y-3.0108
X5.0Y-3.1108
X5.0Y-3.2108
X5.0Y-3.3108
X5.0Y-3.4108
X5.0Y-3.5108
X6.0Y-2.1108
X6.0Y-2.2108
X6.0Y-2.3108
X6.0Y-2.4108
X6.0Y-2.5108
X6.0Y-2.6108
X6.0Y-2.7108
X6.0Y-2.8108
X6.0Y-2.9108
X6.0Y-3.0108
X6.0Y-3.1108
X6.0Y-3.2108
X6.0Y-3.3108
X6.0Y-3.4108
X6.0Y-3.5108
T3
X6.2Y-2.5
X6.8Y-2.5
M30
