%TF.GenerationSoftware,KiCad,Pcbnew,(5.1.10)-1*%
%TF.CreationDate,2023-01-02T20:25:28+05:00*%
%TF.ProjectId,Circuit for 1st Milestone,43697263-7569-4742-9066-6f7220317374,rev?*%
%TF.SameCoordinates,Original*%
%TF.FileFunction,Copper,L2,Bot*%
%TF.FilePolarity,Positive*%
%FSLAX46Y46*%
G04 Gerber Fmt 4.6, Leading zero omitted, Abs format (unit mm)*
G04 Created by KiCad (PCBNEW (5.1.10)-1) date 2023-01-02 20:25:28*
%MOMM*%
%LPD*%
G01*
G04 APERTURE LIST*
%TA.AperFunction,NonConductor*%
%ADD10C,0.750000*%
%TD*%
%TA.AperFunction,NonConductor*%
%ADD11C,1.000000*%
%TD*%
%TA.AperFunction,ComponentPad*%
%ADD12R,1.600000X1.600000*%
%TD*%
%TA.AperFunction,ComponentPad*%
%ADD13C,1.600000*%
%TD*%
%TA.AperFunction,ComponentPad*%
%ADD14R,1.800000X1.800000*%
%TD*%
%TA.AperFunction,ComponentPad*%
%ADD15C,1.800000*%
%TD*%
%TA.AperFunction,ComponentPad*%
%ADD16R,3.500000X3.500000*%
%TD*%
%TA.AperFunction,ComponentPad*%
%ADD17R,1.700000X1.700000*%
%TD*%
%TA.AperFunction,ComponentPad*%
%ADD18O,1.700000X1.700000*%
%TD*%
%TA.AperFunction,ComponentPad*%
%ADD19O,1.600000X1.600000*%
%TD*%
%TA.AperFunction,ComponentPad*%
%ADD20R,2.000000X2.000000*%
%TD*%
%TA.AperFunction,ComponentPad*%
%ADD21C,2.000000*%
%TD*%
%TA.AperFunction,ComponentPad*%
%ADD22R,1.905000X2.000000*%
%TD*%
%TA.AperFunction,ComponentPad*%
%ADD23O,1.905000X2.000000*%
%TD*%
%TA.AperFunction,Conductor*%
%ADD24C,2.000000*%
%TD*%
G04 APERTURE END LIST*
D10*
X124695714Y-144565714D02*
X125695714Y-144565714D01*
X125695714Y-146137142D02*
X125695714Y-143137142D01*
X124267142Y-143137142D01*
X122552857Y-144708571D02*
X122552857Y-146137142D01*
X123552857Y-143137142D02*
X122552857Y-144708571D01*
X121552857Y-143137142D01*
X120552857Y-146137142D02*
X120552857Y-143137142D01*
X119410000Y-143137142D01*
X119124285Y-143280000D01*
X118981428Y-143422857D01*
X118838571Y-143708571D01*
X118838571Y-144137142D01*
X118981428Y-144422857D01*
X119124285Y-144565714D01*
X119410000Y-144708571D01*
X120552857Y-144708571D01*
X117552857Y-144994285D02*
X115267142Y-144994285D01*
X112267142Y-146137142D02*
X113981428Y-146137142D01*
X113124285Y-146137142D02*
X113124285Y-143137142D01*
X113410000Y-143565714D01*
X113695714Y-143851428D01*
X113981428Y-143994285D01*
X110838571Y-146137142D02*
X110267142Y-146137142D01*
X109981428Y-145994285D01*
X109838571Y-145851428D01*
X109552857Y-145422857D01*
X109410000Y-144851428D01*
X109410000Y-143708571D01*
X109552857Y-143422857D01*
X109695714Y-143280000D01*
X109981428Y-143137142D01*
X110552857Y-143137142D01*
X110838571Y-143280000D01*
X110981428Y-143422857D01*
X111124285Y-143708571D01*
X111124285Y-144422857D01*
X110981428Y-144708571D01*
X110838571Y-144851428D01*
X110552857Y-144994285D01*
X109981428Y-144994285D01*
X109695714Y-144851428D01*
X109552857Y-144708571D01*
X109410000Y-144422857D01*
X107124285Y-144565714D02*
X106695714Y-144708571D01*
X106552857Y-144851428D01*
X106409999Y-145137142D01*
X106409999Y-145565714D01*
X106552857Y-145851428D01*
X106695714Y-145994285D01*
X106981428Y-146137142D01*
X108124285Y-146137142D01*
X108124285Y-143137142D01*
X107124285Y-143137142D01*
X106838571Y-143280000D01*
X106695714Y-143422857D01*
X106552857Y-143708571D01*
X106552857Y-143994285D01*
X106695714Y-144280000D01*
X106838571Y-144422857D01*
X107124285Y-144565714D01*
X108124285Y-144565714D01*
X105124285Y-144994285D02*
X102838571Y-144994285D01*
X100838571Y-143137142D02*
X100552857Y-143137142D01*
X100267142Y-143280000D01*
X100124285Y-143422857D01*
X99981428Y-143708571D01*
X99838571Y-144280000D01*
X99838571Y-144994285D01*
X99981428Y-145565714D01*
X100124285Y-145851428D01*
X100267142Y-145994285D01*
X100552857Y-146137142D01*
X100838571Y-146137142D01*
X101124285Y-145994285D01*
X101267142Y-145851428D01*
X101409999Y-145565714D01*
X101552857Y-144994285D01*
X101552857Y-144280000D01*
X101409999Y-143708571D01*
X101267142Y-143422857D01*
X101124285Y-143280000D01*
X100838571Y-143137142D01*
X97981428Y-143137142D02*
X97695714Y-143137142D01*
X97409999Y-143280000D01*
X97267142Y-143422857D01*
X97124285Y-143708571D01*
X96981428Y-144280000D01*
X96981428Y-144994285D01*
X97124285Y-145565714D01*
X97267142Y-145851428D01*
X97409999Y-145994285D01*
X97695714Y-146137142D01*
X97981428Y-146137142D01*
X98267142Y-145994285D01*
X98409999Y-145851428D01*
X98552857Y-145565714D01*
X98695714Y-144994285D01*
X98695714Y-144280000D01*
X98552857Y-143708571D01*
X98409999Y-143422857D01*
X98267142Y-143280000D01*
X97981428Y-143137142D01*
X95267142Y-144422857D02*
X95552857Y-144280000D01*
X95695714Y-144137142D01*
X95838571Y-143851428D01*
X95838571Y-143708571D01*
X95695714Y-143422857D01*
X95552857Y-143280000D01*
X95267142Y-143137142D01*
X94695714Y-143137142D01*
X94409999Y-143280000D01*
X94267142Y-143422857D01*
X94124285Y-143708571D01*
X94124285Y-143851428D01*
X94267142Y-144137142D01*
X94409999Y-144280000D01*
X94695714Y-144422857D01*
X95267142Y-144422857D01*
X95552857Y-144565714D01*
X95695714Y-144708571D01*
X95838571Y-144994285D01*
X95838571Y-145565714D01*
X95695714Y-145851428D01*
X95552857Y-145994285D01*
X95267142Y-146137142D01*
X94695714Y-146137142D01*
X94409999Y-145994285D01*
X94267142Y-145851428D01*
X94124285Y-145565714D01*
X94124285Y-144994285D01*
X94267142Y-144708571D01*
X94409999Y-144565714D01*
X94695714Y-144422857D01*
X92838571Y-144994285D02*
X90552857Y-144994285D01*
X89124285Y-144565714D02*
X88124285Y-144565714D01*
X87695714Y-146137142D02*
X89124285Y-146137142D01*
X89124285Y-143137142D01*
X87695714Y-143137142D01*
X86409999Y-144565714D02*
X85409999Y-144565714D01*
X84981428Y-146137142D02*
X86409999Y-146137142D01*
X86409999Y-143137142D01*
X84981428Y-143137142D01*
D11*
X129540000Y-148590000D02*
X46990000Y-148590000D01*
X46990000Y-148590000D02*
G75*
G02*
X44450000Y-146050000I0J2540000D01*
G01*
X132080000Y-146050000D02*
G75*
G02*
X129540000Y-148590000I-2540000J0D01*
G01*
X44450000Y-78740000D02*
G75*
G02*
X46990000Y-76200000I2540000J0D01*
G01*
X129540000Y-76200000D02*
G75*
G02*
X132080000Y-78740000I0J-2540000D01*
G01*
X44450000Y-146050000D02*
X44450000Y-78740000D01*
X132080000Y-146050000D02*
X132080000Y-78740000D01*
X129540000Y-76200000D02*
X46990000Y-76200000D01*
D10*
X84992857Y-81282142D02*
X84992857Y-78282142D01*
X83850000Y-78282142D01*
X83564285Y-78425000D01*
X83421428Y-78567857D01*
X83278571Y-78853571D01*
X83278571Y-79282142D01*
X83421428Y-79567857D01*
X83564285Y-79710714D01*
X83850000Y-79853571D01*
X84992857Y-79853571D01*
X81421428Y-78282142D02*
X80850000Y-78282142D01*
X80564285Y-78425000D01*
X80278571Y-78710714D01*
X80135714Y-79282142D01*
X80135714Y-80282142D01*
X80278571Y-80853571D01*
X80564285Y-81139285D01*
X80850000Y-81282142D01*
X81421428Y-81282142D01*
X81707142Y-81139285D01*
X81992857Y-80853571D01*
X82135714Y-80282142D01*
X82135714Y-79282142D01*
X81992857Y-78710714D01*
X81707142Y-78425000D01*
X81421428Y-78282142D01*
X78850000Y-78282142D02*
X78850000Y-80710714D01*
X78707142Y-80996428D01*
X78564285Y-81139285D01*
X78278571Y-81282142D01*
X77707142Y-81282142D01*
X77421428Y-81139285D01*
X77278571Y-80996428D01*
X77135714Y-80710714D01*
X77135714Y-78282142D01*
X74278571Y-81282142D02*
X75707142Y-81282142D01*
X75707142Y-78282142D01*
X73707142Y-78282142D02*
X71992857Y-78282142D01*
X72850000Y-81282142D02*
X72850000Y-78282142D01*
X69278571Y-81282142D02*
X70278571Y-79853571D01*
X70992857Y-81282142D02*
X70992857Y-78282142D01*
X69850000Y-78282142D01*
X69564285Y-78425000D01*
X69421428Y-78567857D01*
X69278571Y-78853571D01*
X69278571Y-79282142D01*
X69421428Y-79567857D01*
X69564285Y-79710714D01*
X69850000Y-79853571D01*
X70992857Y-79853571D01*
X67421428Y-79853571D02*
X67421428Y-81282142D01*
X68421428Y-78282142D02*
X67421428Y-79853571D01*
X66421428Y-78282142D01*
X62135714Y-79710714D02*
X61707142Y-79853571D01*
X61564285Y-79996428D01*
X61421428Y-80282142D01*
X61421428Y-80710714D01*
X61564285Y-80996428D01*
X61707142Y-81139285D01*
X61992857Y-81282142D01*
X63135714Y-81282142D01*
X63135714Y-78282142D01*
X62135714Y-78282142D01*
X61850000Y-78425000D01*
X61707142Y-78567857D01*
X61564285Y-78853571D01*
X61564285Y-79139285D01*
X61707142Y-79425000D01*
X61850000Y-79567857D01*
X62135714Y-79710714D01*
X63135714Y-79710714D01*
X59564285Y-78282142D02*
X58992857Y-78282142D01*
X58707142Y-78425000D01*
X58421428Y-78710714D01*
X58278571Y-79282142D01*
X58278571Y-80282142D01*
X58421428Y-80853571D01*
X58707142Y-81139285D01*
X58992857Y-81282142D01*
X59564285Y-81282142D01*
X59850000Y-81139285D01*
X60135714Y-80853571D01*
X60278571Y-80282142D01*
X60278571Y-79282142D01*
X60135714Y-78710714D01*
X59850000Y-78425000D01*
X59564285Y-78282142D01*
X57421428Y-78282142D02*
X55707142Y-78282142D01*
X56564285Y-81282142D02*
X56564285Y-78282142D01*
X54707142Y-80996428D02*
X54564285Y-81139285D01*
X54707142Y-81282142D01*
X54850000Y-81139285D01*
X54707142Y-80996428D01*
X54707142Y-81282142D01*
X54707142Y-79425000D02*
X54564285Y-79567857D01*
X54707142Y-79710714D01*
X54850000Y-79567857D01*
X54707142Y-79425000D01*
X54707142Y-79710714D01*
X92207142Y-86532142D02*
X92207142Y-83532142D01*
X91207142Y-85675000D01*
X90207142Y-83532142D01*
X90207142Y-86532142D01*
X88207142Y-83532142D02*
X87635714Y-83532142D01*
X87350000Y-83675000D01*
X87064285Y-83960714D01*
X86921428Y-84532142D01*
X86921428Y-85532142D01*
X87064285Y-86103571D01*
X87350000Y-86389285D01*
X87635714Y-86532142D01*
X88207142Y-86532142D01*
X88492857Y-86389285D01*
X88778571Y-86103571D01*
X88921428Y-85532142D01*
X88921428Y-84532142D01*
X88778571Y-83960714D01*
X88492857Y-83675000D01*
X88207142Y-83532142D01*
X85635714Y-86532142D02*
X85635714Y-83532142D01*
X83921428Y-86532142D01*
X83921428Y-83532142D01*
X82492857Y-86532142D02*
X82492857Y-83532142D01*
X81492857Y-83532142D02*
X79778571Y-83532142D01*
X80635714Y-86532142D02*
X80635714Y-83532142D01*
X78207142Y-83532142D02*
X77635714Y-83532142D01*
X77350000Y-83675000D01*
X77064285Y-83960714D01*
X76921428Y-84532142D01*
X76921428Y-85532142D01*
X77064285Y-86103571D01*
X77350000Y-86389285D01*
X77635714Y-86532142D01*
X78207142Y-86532142D01*
X78492857Y-86389285D01*
X78778571Y-86103571D01*
X78921428Y-85532142D01*
X78921428Y-84532142D01*
X78778571Y-83960714D01*
X78492857Y-83675000D01*
X78207142Y-83532142D01*
X73921428Y-86532142D02*
X74921428Y-85103571D01*
X75635714Y-86532142D02*
X75635714Y-83532142D01*
X74492857Y-83532142D01*
X74207142Y-83675000D01*
X74064285Y-83817857D01*
X73921428Y-84103571D01*
X73921428Y-84532142D01*
X74064285Y-84817857D01*
X74207142Y-84960714D01*
X74492857Y-85103571D01*
X75635714Y-85103571D01*
X72635714Y-86532142D02*
X72635714Y-83532142D01*
X71207142Y-86532142D02*
X71207142Y-83532142D01*
X69492857Y-86532142D01*
X69492857Y-83532142D01*
X66492857Y-83675000D02*
X66778571Y-83532142D01*
X67207142Y-83532142D01*
X67635714Y-83675000D01*
X67921428Y-83960714D01*
X68064285Y-84246428D01*
X68207142Y-84817857D01*
X68207142Y-85246428D01*
X68064285Y-85817857D01*
X67921428Y-86103571D01*
X67635714Y-86389285D01*
X67207142Y-86532142D01*
X66921428Y-86532142D01*
X66492857Y-86389285D01*
X66350000Y-86246428D01*
X66350000Y-85246428D01*
X66921428Y-85246428D01*
X62921428Y-86389285D02*
X62492857Y-86532142D01*
X61778571Y-86532142D01*
X61492857Y-86389285D01*
X61350000Y-86246428D01*
X61207142Y-85960714D01*
X61207142Y-85675000D01*
X61350000Y-85389285D01*
X61492857Y-85246428D01*
X61778571Y-85103571D01*
X62350000Y-84960714D01*
X62635714Y-84817857D01*
X62778571Y-84675000D01*
X62921428Y-84389285D01*
X62921428Y-84103571D01*
X62778571Y-83817857D01*
X62635714Y-83675000D01*
X62350000Y-83532142D01*
X61635714Y-83532142D01*
X61207142Y-83675000D01*
X59350000Y-85103571D02*
X59350000Y-86532142D01*
X60350000Y-83532142D02*
X59350000Y-85103571D01*
X58350000Y-83532142D01*
X57492857Y-86389285D02*
X57064285Y-86532142D01*
X56350000Y-86532142D01*
X56064285Y-86389285D01*
X55921428Y-86246428D01*
X55778571Y-85960714D01*
X55778571Y-85675000D01*
X55921428Y-85389285D01*
X56064285Y-85246428D01*
X56350000Y-85103571D01*
X56921428Y-84960714D01*
X57207142Y-84817857D01*
X57350000Y-84675000D01*
X57492857Y-84389285D01*
X57492857Y-84103571D01*
X57350000Y-83817857D01*
X57207142Y-83675000D01*
X56921428Y-83532142D01*
X56207142Y-83532142D01*
X55778571Y-83675000D01*
X54921428Y-83532142D02*
X53207142Y-83532142D01*
X54064285Y-86532142D02*
X54064285Y-83532142D01*
X52207142Y-84960714D02*
X51207142Y-84960714D01*
X50778571Y-86532142D02*
X52207142Y-86532142D01*
X52207142Y-83532142D01*
X50778571Y-83532142D01*
X49492857Y-86532142D02*
X49492857Y-83532142D01*
X48492857Y-85675000D01*
X47492857Y-83532142D01*
X47492857Y-86532142D01*
D12*
%TO.P,C1,1*%
%TO.N,Net-(C1-Pad1)*%
X63500000Y-137160000D03*
D13*
%TO.P,C1,2*%
%TO.N,GND*%
X61000000Y-137160000D03*
%TD*%
%TO.P,C2,2*%
%TO.N,GND*%
X53300000Y-137160000D03*
D12*
%TO.P,C2,1*%
%TO.N,5V*%
X50800000Y-137160000D03*
%TD*%
D14*
%TO.P,D1,1*%
%TO.N,GND*%
X54610000Y-127000000D03*
D15*
%TO.P,D1,2*%
%TO.N,Net-(D1-Pad2)*%
X52070000Y-127000000D03*
%TD*%
%TO.P,D2,2*%
%TO.N,Net-(D2-Pad2)*%
X62230000Y-127000000D03*
D14*
%TO.P,D2,1*%
%TO.N,GND*%
X59690000Y-127000000D03*
%TD*%
D16*
%TO.P,J0,1*%
%TO.N,Net-(C1-Pad1)*%
X63500000Y-93980000D03*
%TO.P,J0,2*%
%TO.N,GND*%
%TA.AperFunction,ComponentPad*%
G36*
G01*
X56000000Y-94980000D02*
X56000000Y-92980000D01*
G75*
G02*
X56750000Y-92230000I750000J0D01*
G01*
X58250000Y-92230000D01*
G75*
G02*
X59000000Y-92980000I0J-750000D01*
G01*
X59000000Y-94980000D01*
G75*
G02*
X58250000Y-95730000I-750000J0D01*
G01*
X56750000Y-95730000D01*
G75*
G02*
X56000000Y-94980000I0J750000D01*
G01*
G37*
%TD.AperFunction*%
%TO.P,J0,3*%
%TA.AperFunction,ComponentPad*%
G36*
G01*
X58750000Y-99555000D02*
X58750000Y-97805000D01*
G75*
G02*
X59625000Y-96930000I875000J0D01*
G01*
X61375000Y-96930000D01*
G75*
G02*
X62250000Y-97805000I0J-875000D01*
G01*
X62250000Y-99555000D01*
G75*
G02*
X61375000Y-100430000I-875000J0D01*
G01*
X59625000Y-100430000D01*
G75*
G02*
X58750000Y-99555000I0J875000D01*
G01*
G37*
%TD.AperFunction*%
%TD*%
D17*
%TO.P,J1,1*%
%TO.N,GND*%
X119380000Y-98425000D03*
D18*
%TO.P,J1,2*%
%TO.N,DHT22_DATA*%
X119380000Y-100965000D03*
%TO.P,J1,3*%
%TO.N,5V*%
X119380000Y-103505000D03*
%TD*%
D17*
%TO.P,J2,1*%
%TO.N,MQ135_DATA*%
X116840000Y-123190000D03*
D18*
%TO.P,J2,2*%
%TO.N,Net-(J2-Pad2)*%
X116840000Y-125730000D03*
%TO.P,J2,3*%
%TO.N,GND*%
X116840000Y-128270000D03*
%TO.P,J2,4*%
%TO.N,3.3V*%
X116840000Y-130810000D03*
%TD*%
D17*
%TO.P,J3,1*%
%TO.N,5V*%
X116840000Y-90170000D03*
D18*
%TO.P,J3,2*%
%TO.N,LCD_TX*%
X116840000Y-87630000D03*
%TO.P,J3,3*%
%TO.N,LCD_RX*%
X116840000Y-85090000D03*
%TO.P,J3,4*%
%TO.N,GND*%
X116840000Y-82550000D03*
%TD*%
D19*
%TO.P,R1,2*%
%TO.N,Net-(C1-Pad1)*%
X62230000Y-114300000D03*
D13*
%TO.P,R1,1*%
%TO.N,Net-(D1-Pad2)*%
X52070000Y-114300000D03*
%TD*%
%TO.P,R2,1*%
%TO.N,Net-(D2-Pad2)*%
X62230000Y-119380000D03*
D19*
%TO.P,R2,2*%
%TO.N,5V*%
X52070000Y-119380000D03*
%TD*%
D13*
%TO.P,R3,1*%
%TO.N,DHT22_DATA*%
X109220000Y-111125000D03*
D19*
%TO.P,R3,2*%
%TO.N,5V*%
X119380000Y-111125000D03*
%TD*%
D20*
%TO.P,U1,1*%
%TO.N,3.3V*%
X101600000Y-129815000D03*
D21*
%TO.P,U1,2*%
%TO.N,GND*%
X101600000Y-127275000D03*
%TO.P,U1,3*%
%TO.N,MQ135_DATA*%
X101600000Y-124735000D03*
%TO.P,U1,4*%
%TO.N,Net-(U1-Pad4)*%
X101600000Y-122195000D03*
%TO.P,U1,5*%
%TO.N,Net-(U1-Pad5)*%
X101600000Y-119655000D03*
%TO.P,U1,6*%
%TO.N,Net-(U1-Pad6)*%
X101600000Y-117115000D03*
%TO.P,U1,7*%
%TO.N,DHT22_DATA*%
X101600000Y-114575000D03*
%TO.P,U1,8*%
%TO.N,Net-(U1-Pad8)*%
X101600000Y-112035000D03*
%TO.P,U1,9*%
%TO.N,Net-(U1-Pad9)*%
X101600000Y-109495000D03*
%TO.P,U1,10*%
%TO.N,Net-(U1-Pad10)*%
X101600000Y-106955000D03*
%TO.P,U1,11*%
%TO.N,Net-(U1-Pad11)*%
X101600000Y-104415000D03*
%TO.P,U1,12*%
%TO.N,LCD_TX*%
X101600000Y-101875000D03*
%TO.P,U1,13*%
%TO.N,LCD_RX*%
X101600000Y-99335000D03*
%TO.P,U1,14*%
%TO.N,Net-(U1-Pad14)*%
X101600000Y-96795000D03*
%TO.P,U1,15*%
%TO.N,Net-(U1-Pad15)*%
X101600000Y-94255000D03*
%TO.P,U1,30*%
%TO.N,5V*%
X76200000Y-129815000D03*
%TO.P,U1,29*%
%TO.N,GND*%
X76200000Y-127275000D03*
%TO.P,U1,28*%
%TO.N,Net-(U1-Pad28)*%
X76200000Y-124735000D03*
%TO.P,U1,27*%
%TO.N,Net-(U1-Pad27)*%
X76200000Y-122195000D03*
%TO.P,U1,26*%
%TO.N,Net-(U1-Pad26)*%
X76200000Y-119655000D03*
%TO.P,U1,25*%
%TO.N,Net-(U1-Pad25)*%
X76200000Y-117115000D03*
%TO.P,U1,24*%
%TO.N,Net-(U1-Pad24)*%
X76200000Y-114575000D03*
%TO.P,U1,23*%
%TO.N,Net-(U1-Pad23)*%
X76200000Y-112035000D03*
%TO.P,U1,22*%
%TO.N,Net-(U1-Pad22)*%
X76200000Y-109495000D03*
%TO.P,U1,21*%
%TO.N,Net-(U1-Pad21)*%
X76200000Y-106955000D03*
%TO.P,U1,20*%
%TO.N,Net-(U1-Pad20)*%
X76200000Y-104415000D03*
%TO.P,U1,19*%
%TO.N,Net-(U1-Pad19)*%
X76200000Y-101875000D03*
%TO.P,U1,18*%
%TO.N,Net-(U1-Pad18)*%
X76200000Y-99335000D03*
%TO.P,U1,17*%
%TO.N,Net-(U1-Pad17)*%
X76200000Y-96795000D03*
%TO.P,U1,16*%
%TO.N,Net-(U1-Pad16)*%
X76200000Y-94255000D03*
%TD*%
D22*
%TO.P,U2,1*%
%TO.N,Net-(C1-Pad1)*%
X59690000Y-105410000D03*
D23*
%TO.P,U2,2*%
%TO.N,GND*%
X57150000Y-105410000D03*
%TO.P,U2,3*%
%TO.N,5V*%
X54610000Y-105410000D03*
%TD*%
D24*
%TO.N,GND*%
X57500000Y-95680000D02*
X60500000Y-98680000D01*
X57500000Y-93980000D02*
X57500000Y-95680000D01*
X57150000Y-102030000D02*
X57150000Y-105410000D01*
X60500000Y-98680000D02*
X57150000Y-102030000D01*
X57150000Y-105410000D02*
X57150000Y-111760000D01*
X57150000Y-111760000D02*
X59690000Y-114300000D01*
X59690000Y-114300000D02*
X59690000Y-125730000D01*
X58420000Y-127000000D02*
X59690000Y-127000000D01*
X59690000Y-125730000D02*
X58420000Y-127000000D01*
X54610000Y-127000000D02*
X58420000Y-127000000D01*
X53300000Y-137160000D02*
X54610000Y-135850000D01*
X54610000Y-133350000D02*
X54610000Y-127000000D01*
X54610000Y-135850000D02*
X54610000Y-133350000D01*
X93705000Y-127275000D02*
X101600000Y-127275000D01*
X76200000Y-127275000D02*
X93705000Y-127275000D01*
X61000000Y-137160000D02*
X58420000Y-137160000D01*
X57150000Y-140970000D02*
X57150000Y-137160000D01*
X64770000Y-140970000D02*
X57150000Y-140970000D01*
X67310000Y-137160000D02*
X67310000Y-138430000D01*
X67440787Y-137029213D02*
X67310000Y-137160000D01*
X67440787Y-134620000D02*
X67440787Y-137029213D01*
X74785787Y-127275000D02*
X67440787Y-134620000D01*
X76200000Y-127275000D02*
X74785787Y-127275000D01*
X67310000Y-138430000D02*
X64770000Y-140970000D01*
X57150000Y-137160000D02*
X53300000Y-137160000D01*
X58420000Y-137160000D02*
X57150000Y-137160000D01*
X112035000Y-127275000D02*
X101600000Y-127275000D01*
X113030000Y-128270000D02*
X112035000Y-127275000D01*
X116840000Y-128270000D02*
X113030000Y-128270000D01*
X123190000Y-98425000D02*
X119380000Y-98425000D01*
X125730000Y-100965000D02*
X123190000Y-98425000D01*
X124527919Y-121852081D02*
X125730000Y-120650000D01*
X118042081Y-128270000D02*
X124460000Y-121852081D01*
X125730000Y-120650000D02*
X125730000Y-100965000D01*
X124460000Y-121852081D02*
X124527919Y-121852081D01*
X116840000Y-128270000D02*
X118042081Y-128270000D01*
X114300000Y-80010000D02*
X116840000Y-82550000D01*
X105410000Y-80010000D02*
X114300000Y-80010000D01*
X93705000Y-91715000D02*
X105410000Y-80010000D01*
X93705000Y-127275000D02*
X93705000Y-91715000D01*
%TO.N,Net-(C1-Pad1)*%
X66040000Y-101600000D02*
X62230000Y-105410000D01*
X66040000Y-96520000D02*
X66040000Y-101600000D01*
X63500000Y-93980000D02*
X66040000Y-96520000D01*
X62230000Y-106680000D02*
X60960000Y-105410000D01*
X60960000Y-105410000D02*
X59690000Y-105410000D01*
X62230000Y-105410000D02*
X60960000Y-105410000D01*
X62230000Y-114300000D02*
X62230000Y-106680000D01*
X63500000Y-132080000D02*
X63500000Y-137160000D01*
X67310000Y-128270000D02*
X63500000Y-132080000D01*
X67310000Y-114300000D02*
X67310000Y-128270000D01*
X62230000Y-114300000D02*
X67310000Y-114300000D01*
%TO.N,5V*%
X50800000Y-142240000D02*
X50800000Y-137160000D01*
X50800000Y-144780000D02*
X50800000Y-142240000D01*
X67310000Y-144780000D02*
X50800000Y-144780000D01*
X71120000Y-140970000D02*
X67310000Y-144780000D01*
X71120000Y-134895000D02*
X71120000Y-140970000D01*
X76200000Y-129815000D02*
X71120000Y-134895000D01*
X48260000Y-111760000D02*
X54610000Y-105410000D01*
X50800000Y-137160000D02*
X48260000Y-134620000D01*
X52070000Y-119380000D02*
X48260000Y-119380000D01*
X48260000Y-119380000D02*
X48260000Y-111760000D01*
X48260000Y-134620000D02*
X48260000Y-119380000D01*
X119380000Y-103505000D02*
X119380000Y-111125000D01*
X119380000Y-103505000D02*
X115570000Y-103505000D01*
X116840000Y-90170000D02*
X115570000Y-91440000D01*
X115570000Y-91440000D02*
X115570000Y-103505000D01*
X128905000Y-92075000D02*
X127000000Y-90170000D01*
X128905000Y-123190000D02*
X128905000Y-92075000D01*
X117475000Y-134620000D02*
X128905000Y-123190000D01*
X81005000Y-134620000D02*
X117475000Y-134620000D01*
X127000000Y-90170000D02*
X116840000Y-90170000D01*
X76200000Y-129815000D02*
X81005000Y-134620000D01*
%TO.N,Net-(D1-Pad2)*%
X52070000Y-114300000D02*
X54610000Y-114300000D01*
X52070000Y-123190000D02*
X52070000Y-127000000D01*
X55880000Y-119380000D02*
X52070000Y-123190000D01*
X54610000Y-114300000D02*
X55880000Y-115570000D01*
X55880000Y-115570000D02*
X55880000Y-119380000D01*
%TO.N,Net-(D2-Pad2)*%
X62230000Y-127000000D02*
X63500000Y-125730000D01*
X63500000Y-120650000D02*
X62230000Y-119380000D01*
X63500000Y-125730000D02*
X63500000Y-120650000D01*
%TO.N,MQ135_DATA*%
X107675000Y-124735000D02*
X101600000Y-124735000D01*
X109220000Y-123190000D02*
X107675000Y-124735000D01*
X116840000Y-123190000D02*
X109220000Y-123190000D01*
%TO.N,3.3V*%
X102595000Y-130810000D02*
X101600000Y-129815000D01*
X116840000Y-130810000D02*
X102595000Y-130810000D01*
%TO.N,LCD_TX*%
X101600000Y-101875000D02*
X105770000Y-101875000D01*
X105770000Y-101875000D02*
X111760000Y-95885000D01*
X111760000Y-95885000D02*
X111760000Y-88265000D01*
X112395000Y-87630000D02*
X116840000Y-87630000D01*
X111760000Y-88265000D02*
X112395000Y-87630000D01*
%TO.N,LCD_RX*%
X102656001Y-98995001D02*
X107950000Y-93701002D01*
X101664999Y-98995001D02*
X102656001Y-98995001D01*
X107950000Y-85090000D02*
X116840000Y-85090000D01*
X101600000Y-99060000D02*
X101664999Y-98995001D01*
X107950000Y-93701002D02*
X107950000Y-85090000D01*
X101600000Y-99335000D02*
X101600000Y-99060000D01*
%TO.N,DHT22_DATA*%
X120015000Y-116205000D02*
X114300000Y-116205000D01*
X114300000Y-116205000D02*
X109220000Y-111125000D01*
X122555000Y-113665000D02*
X120015000Y-116205000D01*
X122555000Y-102235000D02*
X122555000Y-113665000D01*
X121285000Y-100965000D02*
X122555000Y-102235000D01*
X119380000Y-100965000D02*
X121285000Y-100965000D01*
X105770000Y-114575000D02*
X101600000Y-114575000D01*
X109220000Y-111125000D02*
X105770000Y-114575000D01*
%TD*%
M02*
