%TF.GenerationSoftware,KiCad,Pcbnew,7.0.10*%
%TF.CreationDate,2024-02-21T12:26:18+05:00*%
%TF.ProjectId,Circuit for 2nd Milestone,43697263-7569-4742-9066-6f7220326e64,rev?*%
%TF.SameCoordinates,Original*%
%TF.FileFunction,Legend,Top*%
%TF.FilePolarity,Positive*%
%FSLAX46Y46*%
G04 Gerber Fmt 4.6, Leading zero omitted, Abs format (unit mm)*
G04 Created by KiCad (PCBNEW 7.0.10) date 2024-02-21 12:26:18*
%MOMM*%
%LPD*%
G01*
G04 APERTURE LIST*
%ADD10C,0.750000*%
%ADD11C,0.500000*%
%ADD12C,0.150000*%
%ADD13C,0.120000*%
%ADD14C,0.127000*%
%ADD15C,0.200000*%
G04 APERTURE END LIST*
D10*
X120719084Y-42589128D02*
X119719084Y-42589128D01*
X119719084Y-44160557D02*
X119719084Y-41160557D01*
X119719084Y-41160557D02*
X121147656Y-41160557D01*
X122861942Y-42731985D02*
X122861942Y-44160557D01*
X121861942Y-41160557D02*
X122861942Y-42731985D01*
X122861942Y-42731985D02*
X123861942Y-41160557D01*
X124861942Y-44160557D02*
X124861942Y-41160557D01*
X124861942Y-41160557D02*
X126004799Y-41160557D01*
X126004799Y-41160557D02*
X126290514Y-41303414D01*
X126290514Y-41303414D02*
X126433371Y-41446271D01*
X126433371Y-41446271D02*
X126576228Y-41731985D01*
X126576228Y-41731985D02*
X126576228Y-42160557D01*
X126576228Y-42160557D02*
X126433371Y-42446271D01*
X126433371Y-42446271D02*
X126290514Y-42589128D01*
X126290514Y-42589128D02*
X126004799Y-42731985D01*
X126004799Y-42731985D02*
X124861942Y-42731985D01*
X127861942Y-43017700D02*
X130147657Y-43017700D01*
X133147657Y-44160557D02*
X131433371Y-44160557D01*
X132290514Y-44160557D02*
X132290514Y-41160557D01*
X132290514Y-41160557D02*
X132004800Y-41589128D01*
X132004800Y-41589128D02*
X131719085Y-41874842D01*
X131719085Y-41874842D02*
X131433371Y-42017700D01*
X134576228Y-44160557D02*
X135147657Y-44160557D01*
X135147657Y-44160557D02*
X135433371Y-44017700D01*
X135433371Y-44017700D02*
X135576228Y-43874842D01*
X135576228Y-43874842D02*
X135861943Y-43446271D01*
X135861943Y-43446271D02*
X136004800Y-42874842D01*
X136004800Y-42874842D02*
X136004800Y-41731985D01*
X136004800Y-41731985D02*
X135861943Y-41446271D01*
X135861943Y-41446271D02*
X135719086Y-41303414D01*
X135719086Y-41303414D02*
X135433371Y-41160557D01*
X135433371Y-41160557D02*
X134861943Y-41160557D01*
X134861943Y-41160557D02*
X134576228Y-41303414D01*
X134576228Y-41303414D02*
X134433371Y-41446271D01*
X134433371Y-41446271D02*
X134290514Y-41731985D01*
X134290514Y-41731985D02*
X134290514Y-42446271D01*
X134290514Y-42446271D02*
X134433371Y-42731985D01*
X134433371Y-42731985D02*
X134576228Y-42874842D01*
X134576228Y-42874842D02*
X134861943Y-43017700D01*
X134861943Y-43017700D02*
X135433371Y-43017700D01*
X135433371Y-43017700D02*
X135719086Y-42874842D01*
X135719086Y-42874842D02*
X135861943Y-42731985D01*
X135861943Y-42731985D02*
X136004800Y-42446271D01*
X138290514Y-42589128D02*
X138719086Y-42731985D01*
X138719086Y-42731985D02*
X138861943Y-42874842D01*
X138861943Y-42874842D02*
X139004800Y-43160557D01*
X139004800Y-43160557D02*
X139004800Y-43589128D01*
X139004800Y-43589128D02*
X138861943Y-43874842D01*
X138861943Y-43874842D02*
X138719086Y-44017700D01*
X138719086Y-44017700D02*
X138433371Y-44160557D01*
X138433371Y-44160557D02*
X137290514Y-44160557D01*
X137290514Y-44160557D02*
X137290514Y-41160557D01*
X137290514Y-41160557D02*
X138290514Y-41160557D01*
X138290514Y-41160557D02*
X138576229Y-41303414D01*
X138576229Y-41303414D02*
X138719086Y-41446271D01*
X138719086Y-41446271D02*
X138861943Y-41731985D01*
X138861943Y-41731985D02*
X138861943Y-42017700D01*
X138861943Y-42017700D02*
X138719086Y-42303414D01*
X138719086Y-42303414D02*
X138576229Y-42446271D01*
X138576229Y-42446271D02*
X138290514Y-42589128D01*
X138290514Y-42589128D02*
X137290514Y-42589128D01*
X140290514Y-43017700D02*
X142576229Y-43017700D01*
X144576229Y-41160557D02*
X144861943Y-41160557D01*
X144861943Y-41160557D02*
X145147657Y-41303414D01*
X145147657Y-41303414D02*
X145290515Y-41446271D01*
X145290515Y-41446271D02*
X145433372Y-41731985D01*
X145433372Y-41731985D02*
X145576229Y-42303414D01*
X145576229Y-42303414D02*
X145576229Y-43017700D01*
X145576229Y-43017700D02*
X145433372Y-43589128D01*
X145433372Y-43589128D02*
X145290515Y-43874842D01*
X145290515Y-43874842D02*
X145147657Y-44017700D01*
X145147657Y-44017700D02*
X144861943Y-44160557D01*
X144861943Y-44160557D02*
X144576229Y-44160557D01*
X144576229Y-44160557D02*
X144290515Y-44017700D01*
X144290515Y-44017700D02*
X144147657Y-43874842D01*
X144147657Y-43874842D02*
X144004800Y-43589128D01*
X144004800Y-43589128D02*
X143861943Y-43017700D01*
X143861943Y-43017700D02*
X143861943Y-42303414D01*
X143861943Y-42303414D02*
X144004800Y-41731985D01*
X144004800Y-41731985D02*
X144147657Y-41446271D01*
X144147657Y-41446271D02*
X144290515Y-41303414D01*
X144290515Y-41303414D02*
X144576229Y-41160557D01*
X147433372Y-41160557D02*
X147719086Y-41160557D01*
X147719086Y-41160557D02*
X148004800Y-41303414D01*
X148004800Y-41303414D02*
X148147658Y-41446271D01*
X148147658Y-41446271D02*
X148290515Y-41731985D01*
X148290515Y-41731985D02*
X148433372Y-42303414D01*
X148433372Y-42303414D02*
X148433372Y-43017700D01*
X148433372Y-43017700D02*
X148290515Y-43589128D01*
X148290515Y-43589128D02*
X148147658Y-43874842D01*
X148147658Y-43874842D02*
X148004800Y-44017700D01*
X148004800Y-44017700D02*
X147719086Y-44160557D01*
X147719086Y-44160557D02*
X147433372Y-44160557D01*
X147433372Y-44160557D02*
X147147658Y-44017700D01*
X147147658Y-44017700D02*
X147004800Y-43874842D01*
X147004800Y-43874842D02*
X146861943Y-43589128D01*
X146861943Y-43589128D02*
X146719086Y-43017700D01*
X146719086Y-43017700D02*
X146719086Y-42303414D01*
X146719086Y-42303414D02*
X146861943Y-41731985D01*
X146861943Y-41731985D02*
X147004800Y-41446271D01*
X147004800Y-41446271D02*
X147147658Y-41303414D01*
X147147658Y-41303414D02*
X147433372Y-41160557D01*
X150147658Y-42446271D02*
X149861943Y-42303414D01*
X149861943Y-42303414D02*
X149719086Y-42160557D01*
X149719086Y-42160557D02*
X149576229Y-41874842D01*
X149576229Y-41874842D02*
X149576229Y-41731985D01*
X149576229Y-41731985D02*
X149719086Y-41446271D01*
X149719086Y-41446271D02*
X149861943Y-41303414D01*
X149861943Y-41303414D02*
X150147658Y-41160557D01*
X150147658Y-41160557D02*
X150719086Y-41160557D01*
X150719086Y-41160557D02*
X151004801Y-41303414D01*
X151004801Y-41303414D02*
X151147658Y-41446271D01*
X151147658Y-41446271D02*
X151290515Y-41731985D01*
X151290515Y-41731985D02*
X151290515Y-41874842D01*
X151290515Y-41874842D02*
X151147658Y-42160557D01*
X151147658Y-42160557D02*
X151004801Y-42303414D01*
X151004801Y-42303414D02*
X150719086Y-42446271D01*
X150719086Y-42446271D02*
X150147658Y-42446271D01*
X150147658Y-42446271D02*
X149861943Y-42589128D01*
X149861943Y-42589128D02*
X149719086Y-42731985D01*
X149719086Y-42731985D02*
X149576229Y-43017700D01*
X149576229Y-43017700D02*
X149576229Y-43589128D01*
X149576229Y-43589128D02*
X149719086Y-43874842D01*
X149719086Y-43874842D02*
X149861943Y-44017700D01*
X149861943Y-44017700D02*
X150147658Y-44160557D01*
X150147658Y-44160557D02*
X150719086Y-44160557D01*
X150719086Y-44160557D02*
X151004801Y-44017700D01*
X151004801Y-44017700D02*
X151147658Y-43874842D01*
X151147658Y-43874842D02*
X151290515Y-43589128D01*
X151290515Y-43589128D02*
X151290515Y-43017700D01*
X151290515Y-43017700D02*
X151147658Y-42731985D01*
X151147658Y-42731985D02*
X151004801Y-42589128D01*
X151004801Y-42589128D02*
X150719086Y-42446271D01*
X152576229Y-43017700D02*
X154861944Y-43017700D01*
X156290515Y-42589128D02*
X157290515Y-42589128D01*
X157719087Y-44160557D02*
X156290515Y-44160557D01*
X156290515Y-44160557D02*
X156290515Y-41160557D01*
X156290515Y-41160557D02*
X157719087Y-41160557D01*
X159004801Y-42589128D02*
X160004801Y-42589128D01*
X160433373Y-44160557D02*
X159004801Y-44160557D01*
X159004801Y-44160557D02*
X159004801Y-41160557D01*
X159004801Y-41160557D02*
X160433373Y-41160557D01*
D11*
X111824761Y-107086838D02*
X111824761Y-105086838D01*
X111824761Y-105086838D02*
X112586666Y-105086838D01*
X112586666Y-105086838D02*
X112777142Y-105182076D01*
X112777142Y-105182076D02*
X112872380Y-105277314D01*
X112872380Y-105277314D02*
X112967618Y-105467790D01*
X112967618Y-105467790D02*
X112967618Y-105753504D01*
X112967618Y-105753504D02*
X112872380Y-105943980D01*
X112872380Y-105943980D02*
X112777142Y-106039219D01*
X112777142Y-106039219D02*
X112586666Y-106134457D01*
X112586666Y-106134457D02*
X111824761Y-106134457D01*
X114205713Y-105086838D02*
X114586666Y-105086838D01*
X114586666Y-105086838D02*
X114777142Y-105182076D01*
X114777142Y-105182076D02*
X114967618Y-105372552D01*
X114967618Y-105372552D02*
X115062856Y-105753504D01*
X115062856Y-105753504D02*
X115062856Y-106420171D01*
X115062856Y-106420171D02*
X114967618Y-106801123D01*
X114967618Y-106801123D02*
X114777142Y-106991600D01*
X114777142Y-106991600D02*
X114586666Y-107086838D01*
X114586666Y-107086838D02*
X114205713Y-107086838D01*
X114205713Y-107086838D02*
X114015237Y-106991600D01*
X114015237Y-106991600D02*
X113824761Y-106801123D01*
X113824761Y-106801123D02*
X113729523Y-106420171D01*
X113729523Y-106420171D02*
X113729523Y-105753504D01*
X113729523Y-105753504D02*
X113824761Y-105372552D01*
X113824761Y-105372552D02*
X114015237Y-105182076D01*
X114015237Y-105182076D02*
X114205713Y-105086838D01*
X115919999Y-105086838D02*
X115919999Y-106705885D01*
X115919999Y-106705885D02*
X116015237Y-106896361D01*
X116015237Y-106896361D02*
X116110475Y-106991600D01*
X116110475Y-106991600D02*
X116300951Y-107086838D01*
X116300951Y-107086838D02*
X116681904Y-107086838D01*
X116681904Y-107086838D02*
X116872380Y-106991600D01*
X116872380Y-106991600D02*
X116967618Y-106896361D01*
X116967618Y-106896361D02*
X117062856Y-106705885D01*
X117062856Y-106705885D02*
X117062856Y-105086838D01*
X118967618Y-107086838D02*
X118015237Y-107086838D01*
X118015237Y-107086838D02*
X118015237Y-105086838D01*
X119348571Y-105086838D02*
X120491428Y-105086838D01*
X119919999Y-107086838D02*
X119919999Y-105086838D01*
X122300952Y-107086838D02*
X121634285Y-106134457D01*
X121158095Y-107086838D02*
X121158095Y-105086838D01*
X121158095Y-105086838D02*
X121920000Y-105086838D01*
X121920000Y-105086838D02*
X122110476Y-105182076D01*
X122110476Y-105182076D02*
X122205714Y-105277314D01*
X122205714Y-105277314D02*
X122300952Y-105467790D01*
X122300952Y-105467790D02*
X122300952Y-105753504D01*
X122300952Y-105753504D02*
X122205714Y-105943980D01*
X122205714Y-105943980D02*
X122110476Y-106039219D01*
X122110476Y-106039219D02*
X121920000Y-106134457D01*
X121920000Y-106134457D02*
X121158095Y-106134457D01*
X123539047Y-106134457D02*
X123539047Y-107086838D01*
X122872381Y-105086838D02*
X123539047Y-106134457D01*
X123539047Y-106134457D02*
X124205714Y-105086838D01*
X127062858Y-106039219D02*
X127348572Y-106134457D01*
X127348572Y-106134457D02*
X127443810Y-106229695D01*
X127443810Y-106229695D02*
X127539048Y-106420171D01*
X127539048Y-106420171D02*
X127539048Y-106705885D01*
X127539048Y-106705885D02*
X127443810Y-106896361D01*
X127443810Y-106896361D02*
X127348572Y-106991600D01*
X127348572Y-106991600D02*
X127158096Y-107086838D01*
X127158096Y-107086838D02*
X126396191Y-107086838D01*
X126396191Y-107086838D02*
X126396191Y-105086838D01*
X126396191Y-105086838D02*
X127062858Y-105086838D01*
X127062858Y-105086838D02*
X127253334Y-105182076D01*
X127253334Y-105182076D02*
X127348572Y-105277314D01*
X127348572Y-105277314D02*
X127443810Y-105467790D01*
X127443810Y-105467790D02*
X127443810Y-105658266D01*
X127443810Y-105658266D02*
X127348572Y-105848742D01*
X127348572Y-105848742D02*
X127253334Y-105943980D01*
X127253334Y-105943980D02*
X127062858Y-106039219D01*
X127062858Y-106039219D02*
X126396191Y-106039219D01*
X128777143Y-105086838D02*
X129158096Y-105086838D01*
X129158096Y-105086838D02*
X129348572Y-105182076D01*
X129348572Y-105182076D02*
X129539048Y-105372552D01*
X129539048Y-105372552D02*
X129634286Y-105753504D01*
X129634286Y-105753504D02*
X129634286Y-106420171D01*
X129634286Y-106420171D02*
X129539048Y-106801123D01*
X129539048Y-106801123D02*
X129348572Y-106991600D01*
X129348572Y-106991600D02*
X129158096Y-107086838D01*
X129158096Y-107086838D02*
X128777143Y-107086838D01*
X128777143Y-107086838D02*
X128586667Y-106991600D01*
X128586667Y-106991600D02*
X128396191Y-106801123D01*
X128396191Y-106801123D02*
X128300953Y-106420171D01*
X128300953Y-106420171D02*
X128300953Y-105753504D01*
X128300953Y-105753504D02*
X128396191Y-105372552D01*
X128396191Y-105372552D02*
X128586667Y-105182076D01*
X128586667Y-105182076D02*
X128777143Y-105086838D01*
X130205715Y-105086838D02*
X131348572Y-105086838D01*
X130777143Y-107086838D02*
X130777143Y-105086838D01*
X132015239Y-106896361D02*
X132110477Y-106991600D01*
X132110477Y-106991600D02*
X132015239Y-107086838D01*
X132015239Y-107086838D02*
X131920001Y-106991600D01*
X131920001Y-106991600D02*
X132015239Y-106896361D01*
X132015239Y-106896361D02*
X132015239Y-107086838D01*
X132015239Y-105848742D02*
X132110477Y-105943980D01*
X132110477Y-105943980D02*
X132015239Y-106039219D01*
X132015239Y-106039219D02*
X131920001Y-105943980D01*
X131920001Y-105943980D02*
X132015239Y-105848742D01*
X132015239Y-105848742D02*
X132015239Y-106039219D01*
X108539046Y-110306838D02*
X108539046Y-108306838D01*
X108539046Y-108306838D02*
X109205713Y-109735409D01*
X109205713Y-109735409D02*
X109872379Y-108306838D01*
X109872379Y-108306838D02*
X109872379Y-110306838D01*
X111110474Y-110306838D02*
X110919998Y-110211600D01*
X110919998Y-110211600D02*
X110824760Y-110116361D01*
X110824760Y-110116361D02*
X110729522Y-109925885D01*
X110729522Y-109925885D02*
X110729522Y-109354457D01*
X110729522Y-109354457D02*
X110824760Y-109163980D01*
X110824760Y-109163980D02*
X110919998Y-109068742D01*
X110919998Y-109068742D02*
X111110474Y-108973504D01*
X111110474Y-108973504D02*
X111396189Y-108973504D01*
X111396189Y-108973504D02*
X111586665Y-109068742D01*
X111586665Y-109068742D02*
X111681903Y-109163980D01*
X111681903Y-109163980D02*
X111777141Y-109354457D01*
X111777141Y-109354457D02*
X111777141Y-109925885D01*
X111777141Y-109925885D02*
X111681903Y-110116361D01*
X111681903Y-110116361D02*
X111586665Y-110211600D01*
X111586665Y-110211600D02*
X111396189Y-110306838D01*
X111396189Y-110306838D02*
X111110474Y-110306838D01*
X112634284Y-108973504D02*
X112634284Y-110306838D01*
X112634284Y-109163980D02*
X112729522Y-109068742D01*
X112729522Y-109068742D02*
X112919998Y-108973504D01*
X112919998Y-108973504D02*
X113205713Y-108973504D01*
X113205713Y-108973504D02*
X113396189Y-109068742D01*
X113396189Y-109068742D02*
X113491427Y-109259219D01*
X113491427Y-109259219D02*
X113491427Y-110306838D01*
X114443808Y-110306838D02*
X114443808Y-108973504D01*
X114443808Y-108306838D02*
X114348570Y-108402076D01*
X114348570Y-108402076D02*
X114443808Y-108497314D01*
X114443808Y-108497314D02*
X114539046Y-108402076D01*
X114539046Y-108402076D02*
X114443808Y-108306838D01*
X114443808Y-108306838D02*
X114443808Y-108497314D01*
X115110475Y-108973504D02*
X115872379Y-108973504D01*
X115396189Y-108306838D02*
X115396189Y-110021123D01*
X115396189Y-110021123D02*
X115491427Y-110211600D01*
X115491427Y-110211600D02*
X115681903Y-110306838D01*
X115681903Y-110306838D02*
X115872379Y-110306838D01*
X116824760Y-110306838D02*
X116634284Y-110211600D01*
X116634284Y-110211600D02*
X116539046Y-110116361D01*
X116539046Y-110116361D02*
X116443808Y-109925885D01*
X116443808Y-109925885D02*
X116443808Y-109354457D01*
X116443808Y-109354457D02*
X116539046Y-109163980D01*
X116539046Y-109163980D02*
X116634284Y-109068742D01*
X116634284Y-109068742D02*
X116824760Y-108973504D01*
X116824760Y-108973504D02*
X117110475Y-108973504D01*
X117110475Y-108973504D02*
X117300951Y-109068742D01*
X117300951Y-109068742D02*
X117396189Y-109163980D01*
X117396189Y-109163980D02*
X117491427Y-109354457D01*
X117491427Y-109354457D02*
X117491427Y-109925885D01*
X117491427Y-109925885D02*
X117396189Y-110116361D01*
X117396189Y-110116361D02*
X117300951Y-110211600D01*
X117300951Y-110211600D02*
X117110475Y-110306838D01*
X117110475Y-110306838D02*
X116824760Y-110306838D01*
X118348570Y-110306838D02*
X118348570Y-108973504D01*
X118348570Y-109354457D02*
X118443808Y-109163980D01*
X118443808Y-109163980D02*
X118539046Y-109068742D01*
X118539046Y-109068742D02*
X118729522Y-108973504D01*
X118729522Y-108973504D02*
X118919999Y-108973504D01*
X119586665Y-110306838D02*
X119586665Y-108973504D01*
X119586665Y-108306838D02*
X119491427Y-108402076D01*
X119491427Y-108402076D02*
X119586665Y-108497314D01*
X119586665Y-108497314D02*
X119681903Y-108402076D01*
X119681903Y-108402076D02*
X119586665Y-108306838D01*
X119586665Y-108306838D02*
X119586665Y-108497314D01*
X120539046Y-108973504D02*
X120539046Y-110306838D01*
X120539046Y-109163980D02*
X120634284Y-109068742D01*
X120634284Y-109068742D02*
X120824760Y-108973504D01*
X120824760Y-108973504D02*
X121110475Y-108973504D01*
X121110475Y-108973504D02*
X121300951Y-109068742D01*
X121300951Y-109068742D02*
X121396189Y-109259219D01*
X121396189Y-109259219D02*
X121396189Y-110306838D01*
X123205713Y-108973504D02*
X123205713Y-110592552D01*
X123205713Y-110592552D02*
X123110475Y-110783028D01*
X123110475Y-110783028D02*
X123015237Y-110878266D01*
X123015237Y-110878266D02*
X122824760Y-110973504D01*
X122824760Y-110973504D02*
X122539046Y-110973504D01*
X122539046Y-110973504D02*
X122348570Y-110878266D01*
X123205713Y-110211600D02*
X123015237Y-110306838D01*
X123015237Y-110306838D02*
X122634284Y-110306838D01*
X122634284Y-110306838D02*
X122443808Y-110211600D01*
X122443808Y-110211600D02*
X122348570Y-110116361D01*
X122348570Y-110116361D02*
X122253332Y-109925885D01*
X122253332Y-109925885D02*
X122253332Y-109354457D01*
X122253332Y-109354457D02*
X122348570Y-109163980D01*
X122348570Y-109163980D02*
X122443808Y-109068742D01*
X122443808Y-109068742D02*
X122634284Y-108973504D01*
X122634284Y-108973504D02*
X123015237Y-108973504D01*
X123015237Y-108973504D02*
X123205713Y-109068742D01*
X125586666Y-110211600D02*
X125872380Y-110306838D01*
X125872380Y-110306838D02*
X126348571Y-110306838D01*
X126348571Y-110306838D02*
X126539047Y-110211600D01*
X126539047Y-110211600D02*
X126634285Y-110116361D01*
X126634285Y-110116361D02*
X126729523Y-109925885D01*
X126729523Y-109925885D02*
X126729523Y-109735409D01*
X126729523Y-109735409D02*
X126634285Y-109544933D01*
X126634285Y-109544933D02*
X126539047Y-109449695D01*
X126539047Y-109449695D02*
X126348571Y-109354457D01*
X126348571Y-109354457D02*
X125967618Y-109259219D01*
X125967618Y-109259219D02*
X125777142Y-109163980D01*
X125777142Y-109163980D02*
X125681904Y-109068742D01*
X125681904Y-109068742D02*
X125586666Y-108878266D01*
X125586666Y-108878266D02*
X125586666Y-108687790D01*
X125586666Y-108687790D02*
X125681904Y-108497314D01*
X125681904Y-108497314D02*
X125777142Y-108402076D01*
X125777142Y-108402076D02*
X125967618Y-108306838D01*
X125967618Y-108306838D02*
X126443809Y-108306838D01*
X126443809Y-108306838D02*
X126729523Y-108402076D01*
X127396190Y-108973504D02*
X127872380Y-110306838D01*
X128348571Y-108973504D02*
X127872380Y-110306838D01*
X127872380Y-110306838D02*
X127681904Y-110783028D01*
X127681904Y-110783028D02*
X127586666Y-110878266D01*
X127586666Y-110878266D02*
X127396190Y-110973504D01*
X129015238Y-110211600D02*
X129205714Y-110306838D01*
X129205714Y-110306838D02*
X129586666Y-110306838D01*
X129586666Y-110306838D02*
X129777143Y-110211600D01*
X129777143Y-110211600D02*
X129872381Y-110021123D01*
X129872381Y-110021123D02*
X129872381Y-109925885D01*
X129872381Y-109925885D02*
X129777143Y-109735409D01*
X129777143Y-109735409D02*
X129586666Y-109640171D01*
X129586666Y-109640171D02*
X129300952Y-109640171D01*
X129300952Y-109640171D02*
X129110476Y-109544933D01*
X129110476Y-109544933D02*
X129015238Y-109354457D01*
X129015238Y-109354457D02*
X129015238Y-109259219D01*
X129015238Y-109259219D02*
X129110476Y-109068742D01*
X129110476Y-109068742D02*
X129300952Y-108973504D01*
X129300952Y-108973504D02*
X129586666Y-108973504D01*
X129586666Y-108973504D02*
X129777143Y-109068742D01*
X130443810Y-108973504D02*
X131205714Y-108973504D01*
X130729524Y-108306838D02*
X130729524Y-110021123D01*
X130729524Y-110021123D02*
X130824762Y-110211600D01*
X130824762Y-110211600D02*
X131015238Y-110306838D01*
X131015238Y-110306838D02*
X131205714Y-110306838D01*
X132634286Y-110211600D02*
X132443810Y-110306838D01*
X132443810Y-110306838D02*
X132062857Y-110306838D01*
X132062857Y-110306838D02*
X131872381Y-110211600D01*
X131872381Y-110211600D02*
X131777143Y-110021123D01*
X131777143Y-110021123D02*
X131777143Y-109259219D01*
X131777143Y-109259219D02*
X131872381Y-109068742D01*
X131872381Y-109068742D02*
X132062857Y-108973504D01*
X132062857Y-108973504D02*
X132443810Y-108973504D01*
X132443810Y-108973504D02*
X132634286Y-109068742D01*
X132634286Y-109068742D02*
X132729524Y-109259219D01*
X132729524Y-109259219D02*
X132729524Y-109449695D01*
X132729524Y-109449695D02*
X131777143Y-109640171D01*
X133586667Y-110306838D02*
X133586667Y-108973504D01*
X133586667Y-109163980D02*
X133681905Y-109068742D01*
X133681905Y-109068742D02*
X133872381Y-108973504D01*
X133872381Y-108973504D02*
X134158096Y-108973504D01*
X134158096Y-108973504D02*
X134348572Y-109068742D01*
X134348572Y-109068742D02*
X134443810Y-109259219D01*
X134443810Y-109259219D02*
X134443810Y-110306838D01*
X134443810Y-109259219D02*
X134539048Y-109068742D01*
X134539048Y-109068742D02*
X134729524Y-108973504D01*
X134729524Y-108973504D02*
X135015238Y-108973504D01*
X135015238Y-108973504D02*
X135205715Y-109068742D01*
X135205715Y-109068742D02*
X135300953Y-109259219D01*
X135300953Y-109259219D02*
X135300953Y-110306838D01*
D12*
X168868766Y-82893819D02*
X168868766Y-83608104D01*
X168868766Y-83608104D02*
X168821147Y-83750961D01*
X168821147Y-83750961D02*
X168725909Y-83846200D01*
X168725909Y-83846200D02*
X168583052Y-83893819D01*
X168583052Y-83893819D02*
X168487814Y-83893819D01*
X169868766Y-83893819D02*
X169297338Y-83893819D01*
X169583052Y-83893819D02*
X169583052Y-82893819D01*
X169583052Y-82893819D02*
X169487814Y-83036676D01*
X169487814Y-83036676D02*
X169392576Y-83131914D01*
X169392576Y-83131914D02*
X169297338Y-83179533D01*
X170608666Y-99492719D02*
X170608666Y-100207004D01*
X170608666Y-100207004D02*
X170561047Y-100349861D01*
X170561047Y-100349861D02*
X170465809Y-100445100D01*
X170465809Y-100445100D02*
X170322952Y-100492719D01*
X170322952Y-100492719D02*
X170227714Y-100492719D01*
X171037238Y-99587957D02*
X171084857Y-99540338D01*
X171084857Y-99540338D02*
X171180095Y-99492719D01*
X171180095Y-99492719D02*
X171418190Y-99492719D01*
X171418190Y-99492719D02*
X171513428Y-99540338D01*
X171513428Y-99540338D02*
X171561047Y-99587957D01*
X171561047Y-99587957D02*
X171608666Y-99683195D01*
X171608666Y-99683195D02*
X171608666Y-99778433D01*
X171608666Y-99778433D02*
X171561047Y-99921290D01*
X171561047Y-99921290D02*
X170989619Y-100492719D01*
X170989619Y-100492719D02*
X171608666Y-100492719D01*
X172437466Y-52197919D02*
X172437466Y-52912204D01*
X172437466Y-52912204D02*
X172389847Y-53055061D01*
X172389847Y-53055061D02*
X172294609Y-53150300D01*
X172294609Y-53150300D02*
X172151752Y-53197919D01*
X172151752Y-53197919D02*
X172056514Y-53197919D01*
X172818419Y-52197919D02*
X173437466Y-52197919D01*
X173437466Y-52197919D02*
X173104133Y-52578871D01*
X173104133Y-52578871D02*
X173246990Y-52578871D01*
X173246990Y-52578871D02*
X173342228Y-52626490D01*
X173342228Y-52626490D02*
X173389847Y-52674109D01*
X173389847Y-52674109D02*
X173437466Y-52769347D01*
X173437466Y-52769347D02*
X173437466Y-53007442D01*
X173437466Y-53007442D02*
X173389847Y-53102680D01*
X173389847Y-53102680D02*
X173342228Y-53150300D01*
X173342228Y-53150300D02*
X173246990Y-53197919D01*
X173246990Y-53197919D02*
X172961276Y-53197919D01*
X172961276Y-53197919D02*
X172866038Y-53150300D01*
X172866038Y-53150300D02*
X172818419Y-53102680D01*
X168551266Y-65240819D02*
X168551266Y-65955104D01*
X168551266Y-65955104D02*
X168503647Y-66097961D01*
X168503647Y-66097961D02*
X168408409Y-66193200D01*
X168408409Y-66193200D02*
X168265552Y-66240819D01*
X168265552Y-66240819D02*
X168170314Y-66240819D01*
X169456028Y-65574152D02*
X169456028Y-66240819D01*
X169217933Y-65193200D02*
X168979838Y-65907485D01*
X168979838Y-65907485D02*
X169598885Y-65907485D01*
X115389066Y-75997719D02*
X115389066Y-76712004D01*
X115389066Y-76712004D02*
X115341447Y-76854861D01*
X115341447Y-76854861D02*
X115246209Y-76950100D01*
X115246209Y-76950100D02*
X115103352Y-76997719D01*
X115103352Y-76997719D02*
X115008114Y-76997719D01*
X116341447Y-75997719D02*
X115865257Y-75997719D01*
X115865257Y-75997719D02*
X115817638Y-76473909D01*
X115817638Y-76473909D02*
X115865257Y-76426290D01*
X115865257Y-76426290D02*
X115960495Y-76378671D01*
X115960495Y-76378671D02*
X116198590Y-76378671D01*
X116198590Y-76378671D02*
X116293828Y-76426290D01*
X116293828Y-76426290D02*
X116341447Y-76473909D01*
X116341447Y-76473909D02*
X116389066Y-76569147D01*
X116389066Y-76569147D02*
X116389066Y-76807242D01*
X116389066Y-76807242D02*
X116341447Y-76902480D01*
X116341447Y-76902480D02*
X116293828Y-76950100D01*
X116293828Y-76950100D02*
X116198590Y-76997719D01*
X116198590Y-76997719D02*
X115960495Y-76997719D01*
X115960495Y-76997719D02*
X115865257Y-76950100D01*
X115865257Y-76950100D02*
X115817638Y-76902480D01*
X110804366Y-63564419D02*
X110804366Y-64278704D01*
X110804366Y-64278704D02*
X110756747Y-64421561D01*
X110756747Y-64421561D02*
X110661509Y-64516800D01*
X110661509Y-64516800D02*
X110518652Y-64564419D01*
X110518652Y-64564419D02*
X110423414Y-64564419D01*
X111709128Y-63564419D02*
X111518652Y-63564419D01*
X111518652Y-63564419D02*
X111423414Y-63612038D01*
X111423414Y-63612038D02*
X111375795Y-63659657D01*
X111375795Y-63659657D02*
X111280557Y-63802514D01*
X111280557Y-63802514D02*
X111232938Y-63992990D01*
X111232938Y-63992990D02*
X111232938Y-64373942D01*
X111232938Y-64373942D02*
X111280557Y-64469180D01*
X111280557Y-64469180D02*
X111328176Y-64516800D01*
X111328176Y-64516800D02*
X111423414Y-64564419D01*
X111423414Y-64564419D02*
X111613890Y-64564419D01*
X111613890Y-64564419D02*
X111709128Y-64516800D01*
X111709128Y-64516800D02*
X111756747Y-64469180D01*
X111756747Y-64469180D02*
X111804366Y-64373942D01*
X111804366Y-64373942D02*
X111804366Y-64135847D01*
X111804366Y-64135847D02*
X111756747Y-64040609D01*
X111756747Y-64040609D02*
X111709128Y-63992990D01*
X111709128Y-63992990D02*
X111613890Y-63945371D01*
X111613890Y-63945371D02*
X111423414Y-63945371D01*
X111423414Y-63945371D02*
X111328176Y-63992990D01*
X111328176Y-63992990D02*
X111280557Y-64040609D01*
X111280557Y-64040609D02*
X111232938Y-64135847D01*
X114855666Y-90107419D02*
X114855666Y-90821704D01*
X114855666Y-90821704D02*
X114808047Y-90964561D01*
X114808047Y-90964561D02*
X114712809Y-91059800D01*
X114712809Y-91059800D02*
X114569952Y-91107419D01*
X114569952Y-91107419D02*
X114474714Y-91107419D01*
X115236619Y-90107419D02*
X115903285Y-90107419D01*
X115903285Y-90107419D02*
X115474714Y-91107419D01*
X150305795Y-103256119D02*
X150305795Y-104065642D01*
X150305795Y-104065642D02*
X150353414Y-104160880D01*
X150353414Y-104160880D02*
X150401033Y-104208500D01*
X150401033Y-104208500D02*
X150496271Y-104256119D01*
X150496271Y-104256119D02*
X150686747Y-104256119D01*
X150686747Y-104256119D02*
X150781985Y-104208500D01*
X150781985Y-104208500D02*
X150829604Y-104160880D01*
X150829604Y-104160880D02*
X150877223Y-104065642D01*
X150877223Y-104065642D02*
X150877223Y-103256119D01*
X151877223Y-104256119D02*
X151305795Y-104256119D01*
X151591509Y-104256119D02*
X151591509Y-103256119D01*
X151591509Y-103256119D02*
X151496271Y-103398976D01*
X151496271Y-103398976D02*
X151401033Y-103494214D01*
X151401033Y-103494214D02*
X151305795Y-103541833D01*
D13*
%TO.C,J1*%
X165303200Y-88807600D02*
X163973200Y-88807600D01*
X163973200Y-88807600D02*
X163973200Y-87477600D01*
X163973200Y-86207600D02*
X163973200Y-78527600D01*
X166633200Y-78527600D02*
X163973200Y-78527600D01*
X166633200Y-86207600D02*
X166633200Y-78527600D01*
X166633200Y-86207600D02*
X163973200Y-86207600D01*
%TO.C,J2*%
X168843000Y-99733100D02*
X168843000Y-101063100D01*
X168843000Y-101063100D02*
X167513000Y-101063100D01*
X166243000Y-101063100D02*
X161103000Y-101063100D01*
X161103000Y-98403100D02*
X161103000Y-101063100D01*
X166243000Y-98403100D02*
X161103000Y-98403100D01*
X166243000Y-98403100D02*
X166243000Y-101063100D01*
%TO.C,J3*%
X170367000Y-52819300D02*
X170367000Y-54149300D01*
X170367000Y-54149300D02*
X169037000Y-54149300D01*
X167767000Y-54149300D02*
X160087000Y-54149300D01*
X160087000Y-51489300D02*
X160087000Y-54149300D01*
X167767000Y-51489300D02*
X160087000Y-51489300D01*
X167767000Y-51489300D02*
X167767000Y-54149300D01*
%TO.C,J4*%
X166163300Y-68707000D02*
X163503300Y-68707000D01*
X166163300Y-68707000D02*
X166163300Y-61027000D01*
X166163300Y-61027000D02*
X163503300Y-61027000D01*
X163503300Y-68707000D02*
X163503300Y-61027000D01*
X163503300Y-71307000D02*
X163503300Y-69977000D01*
X164833300Y-71307000D02*
X163503300Y-71307000D01*
%TO.C,J5*%
X120557600Y-77863700D02*
X117897600Y-77863700D01*
X120557600Y-77863700D02*
X120557600Y-72723700D01*
X120557600Y-72723700D02*
X117897600Y-72723700D01*
X117897600Y-77863700D02*
X117897600Y-72723700D01*
X117897600Y-80463700D02*
X117897600Y-79133700D01*
X119227600Y-80463700D02*
X117897600Y-80463700D01*
%TO.C,J6*%
X113097000Y-64185800D02*
X113097000Y-62855800D01*
X113097000Y-62855800D02*
X114427000Y-62855800D01*
X115697000Y-62855800D02*
X120837000Y-62855800D01*
X120837000Y-65515800D02*
X120837000Y-62855800D01*
X115697000Y-65515800D02*
X120837000Y-65515800D01*
X115697000Y-65515800D02*
X115697000Y-62855800D01*
%TO.C,J7*%
X120252800Y-93049400D02*
X118922800Y-93049400D01*
X120252800Y-91719400D02*
X120252800Y-93049400D01*
X120252800Y-90449400D02*
X117592800Y-90449400D01*
X117592800Y-90449400D02*
X117592800Y-87849400D01*
X120252800Y-90449400D02*
X120252800Y-87849400D01*
X120252800Y-87849400D02*
X117592800Y-87849400D01*
D14*
%TO.C,U1*%
X130932700Y-50966300D02*
X125482700Y-50966300D01*
X148622700Y-50966300D02*
X130932700Y-50966300D01*
X153992700Y-50966300D02*
X148622700Y-50966300D01*
X125482700Y-101916300D02*
X125482700Y-50966300D01*
X153992700Y-50966300D02*
X153992700Y-101916300D01*
X136212700Y-101916300D02*
X125482700Y-101916300D01*
X142923700Y-101916300D02*
X136212700Y-101916300D01*
X153992700Y-101916300D02*
X142923700Y-101916300D01*
D15*
X154662700Y-91956300D02*
G75*
G03*
X154462700Y-91956300I-100000J0D01*
G01*
X154462700Y-91956300D02*
G75*
G03*
X154662700Y-91956300I100000J0D01*
G01*
D14*
X153992700Y-50966300D02*
X153992700Y-101916300D01*
X153992700Y-101916300D02*
X125482700Y-101916300D01*
X125482700Y-50966300D02*
X153992700Y-50966300D01*
X125482700Y-101916300D02*
X125482700Y-50966300D01*
%TD*%
M02*
