%TF.GenerationSoftware,KiCad,Pcbnew,7.0.10*%
%TF.CreationDate,2024-02-21T12:26:18+05:00*%
%TF.ProjectId,Circuit for 2nd Milestone,43697263-7569-4742-9066-6f7220326e64,rev?*%
%TF.SameCoordinates,Original*%
%TF.FileFunction,Copper,L2,Bot*%
%TF.FilePolarity,Positive*%
%FSLAX46Y46*%
G04 Gerber Fmt 4.6, Leading zero omitted, Abs format (unit mm)*
G04 Created by KiCad (PCBNEW 7.0.10) date 2024-02-21 12:26:18*
%MOMM*%
%LPD*%
G01*
G04 APERTURE LIST*
%ADD10C,0.500000*%
%TA.AperFunction,NonConductor*%
%ADD11C,0.500000*%
%TD*%
%ADD12C,0.750000*%
%TA.AperFunction,NonConductor*%
%ADD13C,0.750000*%
%TD*%
%TA.AperFunction,NonConductor*%
%ADD14C,1.000000*%
%TD*%
%TA.AperFunction,ComponentPad*%
%ADD15R,1.700000X1.700000*%
%TD*%
%TA.AperFunction,ComponentPad*%
%ADD16O,1.700000X1.700000*%
%TD*%
%TA.AperFunction,ComponentPad*%
%ADD17R,2.000000X2.000000*%
%TD*%
%TA.AperFunction,ComponentPad*%
%ADD18C,2.000000*%
%TD*%
%TA.AperFunction,Conductor*%
%ADD19C,1.000000*%
%TD*%
G04 APERTURE END LIST*
D10*
D11*
X132091438Y-106972538D02*
X132091438Y-104972538D01*
X132091438Y-104972538D02*
X131329533Y-104972538D01*
X131329533Y-104972538D02*
X131139057Y-105067776D01*
X131139057Y-105067776D02*
X131043819Y-105163014D01*
X131043819Y-105163014D02*
X130948581Y-105353490D01*
X130948581Y-105353490D02*
X130948581Y-105639204D01*
X130948581Y-105639204D02*
X131043819Y-105829680D01*
X131043819Y-105829680D02*
X131139057Y-105924919D01*
X131139057Y-105924919D02*
X131329533Y-106020157D01*
X131329533Y-106020157D02*
X132091438Y-106020157D01*
X129710486Y-104972538D02*
X129329533Y-104972538D01*
X129329533Y-104972538D02*
X129139057Y-105067776D01*
X129139057Y-105067776D02*
X128948581Y-105258252D01*
X128948581Y-105258252D02*
X128853343Y-105639204D01*
X128853343Y-105639204D02*
X128853343Y-106305871D01*
X128853343Y-106305871D02*
X128948581Y-106686823D01*
X128948581Y-106686823D02*
X129139057Y-106877300D01*
X129139057Y-106877300D02*
X129329533Y-106972538D01*
X129329533Y-106972538D02*
X129710486Y-106972538D01*
X129710486Y-106972538D02*
X129900962Y-106877300D01*
X129900962Y-106877300D02*
X130091438Y-106686823D01*
X130091438Y-106686823D02*
X130186676Y-106305871D01*
X130186676Y-106305871D02*
X130186676Y-105639204D01*
X130186676Y-105639204D02*
X130091438Y-105258252D01*
X130091438Y-105258252D02*
X129900962Y-105067776D01*
X129900962Y-105067776D02*
X129710486Y-104972538D01*
X127996200Y-104972538D02*
X127996200Y-106591585D01*
X127996200Y-106591585D02*
X127900962Y-106782061D01*
X127900962Y-106782061D02*
X127805724Y-106877300D01*
X127805724Y-106877300D02*
X127615248Y-106972538D01*
X127615248Y-106972538D02*
X127234295Y-106972538D01*
X127234295Y-106972538D02*
X127043819Y-106877300D01*
X127043819Y-106877300D02*
X126948581Y-106782061D01*
X126948581Y-106782061D02*
X126853343Y-106591585D01*
X126853343Y-106591585D02*
X126853343Y-104972538D01*
X124948581Y-106972538D02*
X125900962Y-106972538D01*
X125900962Y-106972538D02*
X125900962Y-104972538D01*
X124567628Y-104972538D02*
X123424771Y-104972538D01*
X123996200Y-106972538D02*
X123996200Y-104972538D01*
X121615247Y-106972538D02*
X122281914Y-106020157D01*
X122758104Y-106972538D02*
X122758104Y-104972538D01*
X122758104Y-104972538D02*
X121996199Y-104972538D01*
X121996199Y-104972538D02*
X121805723Y-105067776D01*
X121805723Y-105067776D02*
X121710485Y-105163014D01*
X121710485Y-105163014D02*
X121615247Y-105353490D01*
X121615247Y-105353490D02*
X121615247Y-105639204D01*
X121615247Y-105639204D02*
X121710485Y-105829680D01*
X121710485Y-105829680D02*
X121805723Y-105924919D01*
X121805723Y-105924919D02*
X121996199Y-106020157D01*
X121996199Y-106020157D02*
X122758104Y-106020157D01*
X120377152Y-106020157D02*
X120377152Y-106972538D01*
X121043818Y-104972538D02*
X120377152Y-106020157D01*
X120377152Y-106020157D02*
X119710485Y-104972538D01*
X116853341Y-105924919D02*
X116567627Y-106020157D01*
X116567627Y-106020157D02*
X116472389Y-106115395D01*
X116472389Y-106115395D02*
X116377151Y-106305871D01*
X116377151Y-106305871D02*
X116377151Y-106591585D01*
X116377151Y-106591585D02*
X116472389Y-106782061D01*
X116472389Y-106782061D02*
X116567627Y-106877300D01*
X116567627Y-106877300D02*
X116758103Y-106972538D01*
X116758103Y-106972538D02*
X117520008Y-106972538D01*
X117520008Y-106972538D02*
X117520008Y-104972538D01*
X117520008Y-104972538D02*
X116853341Y-104972538D01*
X116853341Y-104972538D02*
X116662865Y-105067776D01*
X116662865Y-105067776D02*
X116567627Y-105163014D01*
X116567627Y-105163014D02*
X116472389Y-105353490D01*
X116472389Y-105353490D02*
X116472389Y-105543966D01*
X116472389Y-105543966D02*
X116567627Y-105734442D01*
X116567627Y-105734442D02*
X116662865Y-105829680D01*
X116662865Y-105829680D02*
X116853341Y-105924919D01*
X116853341Y-105924919D02*
X117520008Y-105924919D01*
X115139056Y-104972538D02*
X114758103Y-104972538D01*
X114758103Y-104972538D02*
X114567627Y-105067776D01*
X114567627Y-105067776D02*
X114377151Y-105258252D01*
X114377151Y-105258252D02*
X114281913Y-105639204D01*
X114281913Y-105639204D02*
X114281913Y-106305871D01*
X114281913Y-106305871D02*
X114377151Y-106686823D01*
X114377151Y-106686823D02*
X114567627Y-106877300D01*
X114567627Y-106877300D02*
X114758103Y-106972538D01*
X114758103Y-106972538D02*
X115139056Y-106972538D01*
X115139056Y-106972538D02*
X115329532Y-106877300D01*
X115329532Y-106877300D02*
X115520008Y-106686823D01*
X115520008Y-106686823D02*
X115615246Y-106305871D01*
X115615246Y-106305871D02*
X115615246Y-105639204D01*
X115615246Y-105639204D02*
X115520008Y-105258252D01*
X115520008Y-105258252D02*
X115329532Y-105067776D01*
X115329532Y-105067776D02*
X115139056Y-104972538D01*
X113710484Y-104972538D02*
X112567627Y-104972538D01*
X113139056Y-106972538D02*
X113139056Y-104972538D01*
X111900960Y-106782061D02*
X111805722Y-106877300D01*
X111805722Y-106877300D02*
X111900960Y-106972538D01*
X111900960Y-106972538D02*
X111996198Y-106877300D01*
X111996198Y-106877300D02*
X111900960Y-106782061D01*
X111900960Y-106782061D02*
X111900960Y-106972538D01*
X111900960Y-105734442D02*
X111805722Y-105829680D01*
X111805722Y-105829680D02*
X111900960Y-105924919D01*
X111900960Y-105924919D02*
X111996198Y-105829680D01*
X111996198Y-105829680D02*
X111900960Y-105734442D01*
X111900960Y-105734442D02*
X111900960Y-105924919D01*
X135377153Y-110192538D02*
X135377153Y-108192538D01*
X135377153Y-108192538D02*
X134710486Y-109621109D01*
X134710486Y-109621109D02*
X134043820Y-108192538D01*
X134043820Y-108192538D02*
X134043820Y-110192538D01*
X132805725Y-110192538D02*
X132996201Y-110097300D01*
X132996201Y-110097300D02*
X133091439Y-110002061D01*
X133091439Y-110002061D02*
X133186677Y-109811585D01*
X133186677Y-109811585D02*
X133186677Y-109240157D01*
X133186677Y-109240157D02*
X133091439Y-109049680D01*
X133091439Y-109049680D02*
X132996201Y-108954442D01*
X132996201Y-108954442D02*
X132805725Y-108859204D01*
X132805725Y-108859204D02*
X132520010Y-108859204D01*
X132520010Y-108859204D02*
X132329534Y-108954442D01*
X132329534Y-108954442D02*
X132234296Y-109049680D01*
X132234296Y-109049680D02*
X132139058Y-109240157D01*
X132139058Y-109240157D02*
X132139058Y-109811585D01*
X132139058Y-109811585D02*
X132234296Y-110002061D01*
X132234296Y-110002061D02*
X132329534Y-110097300D01*
X132329534Y-110097300D02*
X132520010Y-110192538D01*
X132520010Y-110192538D02*
X132805725Y-110192538D01*
X131281915Y-108859204D02*
X131281915Y-110192538D01*
X131281915Y-109049680D02*
X131186677Y-108954442D01*
X131186677Y-108954442D02*
X130996201Y-108859204D01*
X130996201Y-108859204D02*
X130710486Y-108859204D01*
X130710486Y-108859204D02*
X130520010Y-108954442D01*
X130520010Y-108954442D02*
X130424772Y-109144919D01*
X130424772Y-109144919D02*
X130424772Y-110192538D01*
X129472391Y-110192538D02*
X129472391Y-108859204D01*
X129472391Y-108192538D02*
X129567629Y-108287776D01*
X129567629Y-108287776D02*
X129472391Y-108383014D01*
X129472391Y-108383014D02*
X129377153Y-108287776D01*
X129377153Y-108287776D02*
X129472391Y-108192538D01*
X129472391Y-108192538D02*
X129472391Y-108383014D01*
X128805724Y-108859204D02*
X128043820Y-108859204D01*
X128520010Y-108192538D02*
X128520010Y-109906823D01*
X128520010Y-109906823D02*
X128424772Y-110097300D01*
X128424772Y-110097300D02*
X128234296Y-110192538D01*
X128234296Y-110192538D02*
X128043820Y-110192538D01*
X127091439Y-110192538D02*
X127281915Y-110097300D01*
X127281915Y-110097300D02*
X127377153Y-110002061D01*
X127377153Y-110002061D02*
X127472391Y-109811585D01*
X127472391Y-109811585D02*
X127472391Y-109240157D01*
X127472391Y-109240157D02*
X127377153Y-109049680D01*
X127377153Y-109049680D02*
X127281915Y-108954442D01*
X127281915Y-108954442D02*
X127091439Y-108859204D01*
X127091439Y-108859204D02*
X126805724Y-108859204D01*
X126805724Y-108859204D02*
X126615248Y-108954442D01*
X126615248Y-108954442D02*
X126520010Y-109049680D01*
X126520010Y-109049680D02*
X126424772Y-109240157D01*
X126424772Y-109240157D02*
X126424772Y-109811585D01*
X126424772Y-109811585D02*
X126520010Y-110002061D01*
X126520010Y-110002061D02*
X126615248Y-110097300D01*
X126615248Y-110097300D02*
X126805724Y-110192538D01*
X126805724Y-110192538D02*
X127091439Y-110192538D01*
X125567629Y-110192538D02*
X125567629Y-108859204D01*
X125567629Y-109240157D02*
X125472391Y-109049680D01*
X125472391Y-109049680D02*
X125377153Y-108954442D01*
X125377153Y-108954442D02*
X125186677Y-108859204D01*
X125186677Y-108859204D02*
X124996200Y-108859204D01*
X124329534Y-110192538D02*
X124329534Y-108859204D01*
X124329534Y-108192538D02*
X124424772Y-108287776D01*
X124424772Y-108287776D02*
X124329534Y-108383014D01*
X124329534Y-108383014D02*
X124234296Y-108287776D01*
X124234296Y-108287776D02*
X124329534Y-108192538D01*
X124329534Y-108192538D02*
X124329534Y-108383014D01*
X123377153Y-108859204D02*
X123377153Y-110192538D01*
X123377153Y-109049680D02*
X123281915Y-108954442D01*
X123281915Y-108954442D02*
X123091439Y-108859204D01*
X123091439Y-108859204D02*
X122805724Y-108859204D01*
X122805724Y-108859204D02*
X122615248Y-108954442D01*
X122615248Y-108954442D02*
X122520010Y-109144919D01*
X122520010Y-109144919D02*
X122520010Y-110192538D01*
X120710486Y-108859204D02*
X120710486Y-110478252D01*
X120710486Y-110478252D02*
X120805724Y-110668728D01*
X120805724Y-110668728D02*
X120900962Y-110763966D01*
X120900962Y-110763966D02*
X121091439Y-110859204D01*
X121091439Y-110859204D02*
X121377153Y-110859204D01*
X121377153Y-110859204D02*
X121567629Y-110763966D01*
X120710486Y-110097300D02*
X120900962Y-110192538D01*
X120900962Y-110192538D02*
X121281915Y-110192538D01*
X121281915Y-110192538D02*
X121472391Y-110097300D01*
X121472391Y-110097300D02*
X121567629Y-110002061D01*
X121567629Y-110002061D02*
X121662867Y-109811585D01*
X121662867Y-109811585D02*
X121662867Y-109240157D01*
X121662867Y-109240157D02*
X121567629Y-109049680D01*
X121567629Y-109049680D02*
X121472391Y-108954442D01*
X121472391Y-108954442D02*
X121281915Y-108859204D01*
X121281915Y-108859204D02*
X120900962Y-108859204D01*
X120900962Y-108859204D02*
X120710486Y-108954442D01*
X118329533Y-110097300D02*
X118043819Y-110192538D01*
X118043819Y-110192538D02*
X117567628Y-110192538D01*
X117567628Y-110192538D02*
X117377152Y-110097300D01*
X117377152Y-110097300D02*
X117281914Y-110002061D01*
X117281914Y-110002061D02*
X117186676Y-109811585D01*
X117186676Y-109811585D02*
X117186676Y-109621109D01*
X117186676Y-109621109D02*
X117281914Y-109430633D01*
X117281914Y-109430633D02*
X117377152Y-109335395D01*
X117377152Y-109335395D02*
X117567628Y-109240157D01*
X117567628Y-109240157D02*
X117948581Y-109144919D01*
X117948581Y-109144919D02*
X118139057Y-109049680D01*
X118139057Y-109049680D02*
X118234295Y-108954442D01*
X118234295Y-108954442D02*
X118329533Y-108763966D01*
X118329533Y-108763966D02*
X118329533Y-108573490D01*
X118329533Y-108573490D02*
X118234295Y-108383014D01*
X118234295Y-108383014D02*
X118139057Y-108287776D01*
X118139057Y-108287776D02*
X117948581Y-108192538D01*
X117948581Y-108192538D02*
X117472390Y-108192538D01*
X117472390Y-108192538D02*
X117186676Y-108287776D01*
X116520009Y-108859204D02*
X116043819Y-110192538D01*
X115567628Y-108859204D02*
X116043819Y-110192538D01*
X116043819Y-110192538D02*
X116234295Y-110668728D01*
X116234295Y-110668728D02*
X116329533Y-110763966D01*
X116329533Y-110763966D02*
X116520009Y-110859204D01*
X114900961Y-110097300D02*
X114710485Y-110192538D01*
X114710485Y-110192538D02*
X114329533Y-110192538D01*
X114329533Y-110192538D02*
X114139056Y-110097300D01*
X114139056Y-110097300D02*
X114043818Y-109906823D01*
X114043818Y-109906823D02*
X114043818Y-109811585D01*
X114043818Y-109811585D02*
X114139056Y-109621109D01*
X114139056Y-109621109D02*
X114329533Y-109525871D01*
X114329533Y-109525871D02*
X114615247Y-109525871D01*
X114615247Y-109525871D02*
X114805723Y-109430633D01*
X114805723Y-109430633D02*
X114900961Y-109240157D01*
X114900961Y-109240157D02*
X114900961Y-109144919D01*
X114900961Y-109144919D02*
X114805723Y-108954442D01*
X114805723Y-108954442D02*
X114615247Y-108859204D01*
X114615247Y-108859204D02*
X114329533Y-108859204D01*
X114329533Y-108859204D02*
X114139056Y-108954442D01*
X113472389Y-108859204D02*
X112710485Y-108859204D01*
X113186675Y-108192538D02*
X113186675Y-109906823D01*
X113186675Y-109906823D02*
X113091437Y-110097300D01*
X113091437Y-110097300D02*
X112900961Y-110192538D01*
X112900961Y-110192538D02*
X112710485Y-110192538D01*
X111281913Y-110097300D02*
X111472389Y-110192538D01*
X111472389Y-110192538D02*
X111853342Y-110192538D01*
X111853342Y-110192538D02*
X112043818Y-110097300D01*
X112043818Y-110097300D02*
X112139056Y-109906823D01*
X112139056Y-109906823D02*
X112139056Y-109144919D01*
X112139056Y-109144919D02*
X112043818Y-108954442D01*
X112043818Y-108954442D02*
X111853342Y-108859204D01*
X111853342Y-108859204D02*
X111472389Y-108859204D01*
X111472389Y-108859204D02*
X111281913Y-108954442D01*
X111281913Y-108954442D02*
X111186675Y-109144919D01*
X111186675Y-109144919D02*
X111186675Y-109335395D01*
X111186675Y-109335395D02*
X112139056Y-109525871D01*
X110329532Y-110192538D02*
X110329532Y-108859204D01*
X110329532Y-109049680D02*
X110234294Y-108954442D01*
X110234294Y-108954442D02*
X110043818Y-108859204D01*
X110043818Y-108859204D02*
X109758103Y-108859204D01*
X109758103Y-108859204D02*
X109567627Y-108954442D01*
X109567627Y-108954442D02*
X109472389Y-109144919D01*
X109472389Y-109144919D02*
X109472389Y-110192538D01*
X109472389Y-109144919D02*
X109377151Y-108954442D01*
X109377151Y-108954442D02*
X109186675Y-108859204D01*
X109186675Y-108859204D02*
X108900961Y-108859204D01*
X108900961Y-108859204D02*
X108710484Y-108954442D01*
X108710484Y-108954442D02*
X108615246Y-109144919D01*
X108615246Y-109144919D02*
X108615246Y-110192538D01*
D12*
D13*
X159582615Y-42690728D02*
X160582615Y-42690728D01*
X160582615Y-44262157D02*
X160582615Y-41262157D01*
X160582615Y-41262157D02*
X159154043Y-41262157D01*
X157439757Y-42833585D02*
X157439757Y-44262157D01*
X158439757Y-41262157D02*
X157439757Y-42833585D01*
X157439757Y-42833585D02*
X156439757Y-41262157D01*
X155439757Y-44262157D02*
X155439757Y-41262157D01*
X155439757Y-41262157D02*
X154296900Y-41262157D01*
X154296900Y-41262157D02*
X154011185Y-41405014D01*
X154011185Y-41405014D02*
X153868328Y-41547871D01*
X153868328Y-41547871D02*
X153725471Y-41833585D01*
X153725471Y-41833585D02*
X153725471Y-42262157D01*
X153725471Y-42262157D02*
X153868328Y-42547871D01*
X153868328Y-42547871D02*
X154011185Y-42690728D01*
X154011185Y-42690728D02*
X154296900Y-42833585D01*
X154296900Y-42833585D02*
X155439757Y-42833585D01*
X152439757Y-43119300D02*
X150154043Y-43119300D01*
X147154042Y-44262157D02*
X148868328Y-44262157D01*
X148011185Y-44262157D02*
X148011185Y-41262157D01*
X148011185Y-41262157D02*
X148296899Y-41690728D01*
X148296899Y-41690728D02*
X148582614Y-41976442D01*
X148582614Y-41976442D02*
X148868328Y-42119300D01*
X145725471Y-44262157D02*
X145154042Y-44262157D01*
X145154042Y-44262157D02*
X144868328Y-44119300D01*
X144868328Y-44119300D02*
X144725471Y-43976442D01*
X144725471Y-43976442D02*
X144439756Y-43547871D01*
X144439756Y-43547871D02*
X144296899Y-42976442D01*
X144296899Y-42976442D02*
X144296899Y-41833585D01*
X144296899Y-41833585D02*
X144439756Y-41547871D01*
X144439756Y-41547871D02*
X144582614Y-41405014D01*
X144582614Y-41405014D02*
X144868328Y-41262157D01*
X144868328Y-41262157D02*
X145439756Y-41262157D01*
X145439756Y-41262157D02*
X145725471Y-41405014D01*
X145725471Y-41405014D02*
X145868328Y-41547871D01*
X145868328Y-41547871D02*
X146011185Y-41833585D01*
X146011185Y-41833585D02*
X146011185Y-42547871D01*
X146011185Y-42547871D02*
X145868328Y-42833585D01*
X145868328Y-42833585D02*
X145725471Y-42976442D01*
X145725471Y-42976442D02*
X145439756Y-43119300D01*
X145439756Y-43119300D02*
X144868328Y-43119300D01*
X144868328Y-43119300D02*
X144582614Y-42976442D01*
X144582614Y-42976442D02*
X144439756Y-42833585D01*
X144439756Y-42833585D02*
X144296899Y-42547871D01*
X142011185Y-42690728D02*
X141582613Y-42833585D01*
X141582613Y-42833585D02*
X141439756Y-42976442D01*
X141439756Y-42976442D02*
X141296899Y-43262157D01*
X141296899Y-43262157D02*
X141296899Y-43690728D01*
X141296899Y-43690728D02*
X141439756Y-43976442D01*
X141439756Y-43976442D02*
X141582613Y-44119300D01*
X141582613Y-44119300D02*
X141868328Y-44262157D01*
X141868328Y-44262157D02*
X143011185Y-44262157D01*
X143011185Y-44262157D02*
X143011185Y-41262157D01*
X143011185Y-41262157D02*
X142011185Y-41262157D01*
X142011185Y-41262157D02*
X141725471Y-41405014D01*
X141725471Y-41405014D02*
X141582613Y-41547871D01*
X141582613Y-41547871D02*
X141439756Y-41833585D01*
X141439756Y-41833585D02*
X141439756Y-42119300D01*
X141439756Y-42119300D02*
X141582613Y-42405014D01*
X141582613Y-42405014D02*
X141725471Y-42547871D01*
X141725471Y-42547871D02*
X142011185Y-42690728D01*
X142011185Y-42690728D02*
X143011185Y-42690728D01*
X140011185Y-43119300D02*
X137725471Y-43119300D01*
X135725470Y-41262157D02*
X135439756Y-41262157D01*
X135439756Y-41262157D02*
X135154042Y-41405014D01*
X135154042Y-41405014D02*
X135011185Y-41547871D01*
X135011185Y-41547871D02*
X134868327Y-41833585D01*
X134868327Y-41833585D02*
X134725470Y-42405014D01*
X134725470Y-42405014D02*
X134725470Y-43119300D01*
X134725470Y-43119300D02*
X134868327Y-43690728D01*
X134868327Y-43690728D02*
X135011185Y-43976442D01*
X135011185Y-43976442D02*
X135154042Y-44119300D01*
X135154042Y-44119300D02*
X135439756Y-44262157D01*
X135439756Y-44262157D02*
X135725470Y-44262157D01*
X135725470Y-44262157D02*
X136011185Y-44119300D01*
X136011185Y-44119300D02*
X136154042Y-43976442D01*
X136154042Y-43976442D02*
X136296899Y-43690728D01*
X136296899Y-43690728D02*
X136439756Y-43119300D01*
X136439756Y-43119300D02*
X136439756Y-42405014D01*
X136439756Y-42405014D02*
X136296899Y-41833585D01*
X136296899Y-41833585D02*
X136154042Y-41547871D01*
X136154042Y-41547871D02*
X136011185Y-41405014D01*
X136011185Y-41405014D02*
X135725470Y-41262157D01*
X132868327Y-41262157D02*
X132582613Y-41262157D01*
X132582613Y-41262157D02*
X132296899Y-41405014D01*
X132296899Y-41405014D02*
X132154042Y-41547871D01*
X132154042Y-41547871D02*
X132011184Y-41833585D01*
X132011184Y-41833585D02*
X131868327Y-42405014D01*
X131868327Y-42405014D02*
X131868327Y-43119300D01*
X131868327Y-43119300D02*
X132011184Y-43690728D01*
X132011184Y-43690728D02*
X132154042Y-43976442D01*
X132154042Y-43976442D02*
X132296899Y-44119300D01*
X132296899Y-44119300D02*
X132582613Y-44262157D01*
X132582613Y-44262157D02*
X132868327Y-44262157D01*
X132868327Y-44262157D02*
X133154042Y-44119300D01*
X133154042Y-44119300D02*
X133296899Y-43976442D01*
X133296899Y-43976442D02*
X133439756Y-43690728D01*
X133439756Y-43690728D02*
X133582613Y-43119300D01*
X133582613Y-43119300D02*
X133582613Y-42405014D01*
X133582613Y-42405014D02*
X133439756Y-41833585D01*
X133439756Y-41833585D02*
X133296899Y-41547871D01*
X133296899Y-41547871D02*
X133154042Y-41405014D01*
X133154042Y-41405014D02*
X132868327Y-41262157D01*
X130154041Y-42547871D02*
X130439756Y-42405014D01*
X130439756Y-42405014D02*
X130582613Y-42262157D01*
X130582613Y-42262157D02*
X130725470Y-41976442D01*
X130725470Y-41976442D02*
X130725470Y-41833585D01*
X130725470Y-41833585D02*
X130582613Y-41547871D01*
X130582613Y-41547871D02*
X130439756Y-41405014D01*
X130439756Y-41405014D02*
X130154041Y-41262157D01*
X130154041Y-41262157D02*
X129582613Y-41262157D01*
X129582613Y-41262157D02*
X129296899Y-41405014D01*
X129296899Y-41405014D02*
X129154041Y-41547871D01*
X129154041Y-41547871D02*
X129011184Y-41833585D01*
X129011184Y-41833585D02*
X129011184Y-41976442D01*
X129011184Y-41976442D02*
X129154041Y-42262157D01*
X129154041Y-42262157D02*
X129296899Y-42405014D01*
X129296899Y-42405014D02*
X129582613Y-42547871D01*
X129582613Y-42547871D02*
X130154041Y-42547871D01*
X130154041Y-42547871D02*
X130439756Y-42690728D01*
X130439756Y-42690728D02*
X130582613Y-42833585D01*
X130582613Y-42833585D02*
X130725470Y-43119300D01*
X130725470Y-43119300D02*
X130725470Y-43690728D01*
X130725470Y-43690728D02*
X130582613Y-43976442D01*
X130582613Y-43976442D02*
X130439756Y-44119300D01*
X130439756Y-44119300D02*
X130154041Y-44262157D01*
X130154041Y-44262157D02*
X129582613Y-44262157D01*
X129582613Y-44262157D02*
X129296899Y-44119300D01*
X129296899Y-44119300D02*
X129154041Y-43976442D01*
X129154041Y-43976442D02*
X129011184Y-43690728D01*
X129011184Y-43690728D02*
X129011184Y-43119300D01*
X129011184Y-43119300D02*
X129154041Y-42833585D01*
X129154041Y-42833585D02*
X129296899Y-42690728D01*
X129296899Y-42690728D02*
X129582613Y-42547871D01*
X127725470Y-43119300D02*
X125439756Y-43119300D01*
X124011184Y-42690728D02*
X123011184Y-42690728D01*
X122582612Y-44262157D02*
X124011184Y-44262157D01*
X124011184Y-44262157D02*
X124011184Y-41262157D01*
X124011184Y-41262157D02*
X122582612Y-41262157D01*
X121296898Y-42690728D02*
X120296898Y-42690728D01*
X119868326Y-44262157D02*
X121296898Y-44262157D01*
X121296898Y-44262157D02*
X121296898Y-41262157D01*
X121296898Y-41262157D02*
X119868326Y-41262157D01*
D14*
X108488100Y-113741200D02*
X171488100Y-113741200D01*
X177000000Y-43000000D02*
X177000000Y-108000000D01*
X176911000Y-43370500D02*
G75*
G03*
X171145200Y-37966489I-5765800J-373900D01*
G01*
X171208700Y-113690400D02*
G75*
G03*
X176911000Y-107988100I0J5702300D01*
G01*
X102755700Y-108051600D02*
G75*
G03*
X108497508Y-113804613I5791199J38100D01*
G01*
X108000800Y-37985700D02*
G75*
G03*
X102704900Y-43281600I0J-5295900D01*
G01*
X102730300Y-108167300D02*
X102730300Y-43167300D01*
X108000000Y-38000000D02*
X171000000Y-38000000D01*
D15*
%TO.P,J1,1*%
%TO.N,5V*%
X165303200Y-87477600D03*
D16*
%TO.P,J1,2*%
%TO.N,TX*%
X165303200Y-84937600D03*
%TO.P,J1,3*%
%TO.N,RX*%
X165303200Y-82397600D03*
%TO.P,J1,4*%
%TO.N,GND*%
X165303200Y-79857600D03*
%TD*%
D15*
%TO.P,J2,1*%
%TO.N,5V*%
X167513000Y-99733100D03*
D16*
%TO.P,J2,2*%
%TO.N,DHT22*%
X164973000Y-99733100D03*
%TO.P,J2,3*%
%TO.N,GND*%
X162433000Y-99733100D03*
%TD*%
D15*
%TO.P,J3,1*%
%TO.N,5V*%
X169037000Y-52819300D03*
D16*
%TO.P,J3,2*%
%TO.N,GND*%
X166497000Y-52819300D03*
%TO.P,J3,3*%
%TO.N,Net-(J3-Pad3)*%
X163957000Y-52819300D03*
%TO.P,J3,4*%
%TO.N,MQ135*%
X161417000Y-52819300D03*
%TD*%
%TO.P,J4,4*%
%TO.N,GND*%
X164833300Y-62357000D03*
%TO.P,J4,3*%
%TO.N,Echo*%
X164833300Y-64897000D03*
%TO.P,J4,2*%
%TO.N,Trigger*%
X164833300Y-67437000D03*
D15*
%TO.P,J4,1*%
%TO.N,5V*%
X164833300Y-69977000D03*
%TD*%
D16*
%TO.P,J5,3*%
%TO.N,GND*%
X119227600Y-74053700D03*
%TO.P,J5,2*%
%TO.N,YF-S201*%
X119227600Y-76593700D03*
D15*
%TO.P,J5,1*%
%TO.N,5V*%
X119227600Y-79133700D03*
%TD*%
%TO.P,J6,1*%
%TO.N,5V*%
X114427000Y-64185800D03*
D16*
%TO.P,J6,2*%
%TO.N,GND*%
X116967000Y-64185800D03*
%TO.P,J6,3*%
%TO.N,Relay*%
X119507000Y-64185800D03*
%TD*%
D15*
%TO.P,J7,1*%
%TO.N,5V*%
X118922800Y-91719400D03*
D16*
%TO.P,J7,2*%
%TO.N,GND*%
X118922800Y-89179400D03*
%TD*%
D17*
%TO.P,U1,1*%
%TO.N,Net-(U1-Pad1)*%
X152412700Y-91956300D03*
D18*
%TO.P,U1,2*%
%TO.N,GND*%
X152412700Y-89416300D03*
%TO.P,U1,3*%
%TO.N,Net-(U1-Pad3)*%
X152412700Y-86876300D03*
%TO.P,U1,4*%
%TO.N,DHT22*%
X152412700Y-84336300D03*
%TO.P,U1,5*%
%TO.N,Net-(U1-Pad5)*%
X152412700Y-81796300D03*
%TO.P,U1,6*%
%TO.N,TX*%
X152412700Y-79256300D03*
%TO.P,U1,7*%
%TO.N,RX*%
X152412700Y-76716300D03*
%TO.P,U1,8*%
%TO.N,Trigger*%
X152412700Y-74176300D03*
%TO.P,U1,9*%
%TO.N,Echo*%
X152412700Y-71636300D03*
%TO.P,U1,10*%
%TO.N,Net-(U1-Pad10)*%
X152412700Y-69096300D03*
%TO.P,U1,11*%
%TO.N,Net-(U1-Pad11)*%
X152412700Y-66556300D03*
%TO.P,U1,12*%
%TO.N,Net-(U1-Pad12)*%
X152412700Y-64016300D03*
%TO.P,U1,13*%
%TO.N,Net-(U1-Pad13)*%
X152412700Y-61476300D03*
%TO.P,U1,14*%
%TO.N,Net-(U1-Pad14)*%
X152412700Y-58936300D03*
%TO.P,U1,15*%
%TO.N,MQ135*%
X152412700Y-56396300D03*
%TO.P,U1,30*%
%TO.N,5V*%
X127012700Y-91956300D03*
%TO.P,U1,29*%
%TO.N,GND*%
X127012700Y-89416300D03*
%TO.P,U1,28*%
%TO.N,Net-(U1-Pad28)*%
X127012700Y-86876300D03*
%TO.P,U1,27*%
%TO.N,Net-(U1-Pad27)*%
X127012700Y-84336300D03*
%TO.P,U1,26*%
%TO.N,Net-(U1-Pad26)*%
X127012700Y-81796300D03*
%TO.P,U1,25*%
%TO.N,Net-(U1-Pad25)*%
X127012700Y-79256300D03*
%TO.P,U1,24*%
%TO.N,Net-(U1-Pad24)*%
X127012700Y-76716300D03*
%TO.P,U1,23*%
%TO.N,Net-(U1-Pad23)*%
X127012700Y-74176300D03*
%TO.P,U1,22*%
%TO.N,Net-(U1-Pad22)*%
X127012700Y-71636300D03*
%TO.P,U1,21*%
%TO.N,YF-S201*%
X127012700Y-69096300D03*
%TO.P,U1,20*%
%TO.N,Net-(U1-Pad20)*%
X127012700Y-66556300D03*
%TO.P,U1,19*%
%TO.N,Relay*%
X127012700Y-64016300D03*
%TO.P,U1,18*%
%TO.N,Net-(U1-Pad18)*%
X127012700Y-61476300D03*
%TO.P,U1,17*%
%TO.N,Net-(U1-Pad17)*%
X127012700Y-58936300D03*
%TO.P,U1,16*%
%TO.N,Net-(U1-Pad16)*%
X127012700Y-56396300D03*
%TD*%
D19*
%TO.N,5V*%
X114427000Y-64185800D02*
X114427000Y-77228700D01*
X116332000Y-79133700D02*
X119227600Y-79133700D01*
X119159700Y-91956300D02*
X118922800Y-91719400D01*
X127012700Y-91956300D02*
X119159700Y-91956300D01*
X118922800Y-91719400D02*
X115951000Y-91719400D01*
X115874800Y-91643200D02*
X115874800Y-78676500D01*
X115951000Y-91719400D02*
X115874800Y-91643200D01*
X115874800Y-78676500D02*
X116332000Y-79133700D01*
X114427000Y-77228700D02*
X115874800Y-78676500D01*
X167513000Y-99733100D02*
X167513000Y-102323900D01*
X167513000Y-102323900D02*
X166966900Y-102870000D01*
X166966900Y-102870000D02*
X159346900Y-102870000D01*
X159346900Y-102870000D02*
X155765500Y-99288600D01*
X155765500Y-99288600D02*
X155765500Y-96989900D01*
X155765500Y-96989900D02*
X154546300Y-95770700D01*
X154546300Y-95770700D02*
X138137900Y-95770700D01*
X134323500Y-91956300D02*
X127012700Y-91956300D01*
X138137900Y-95770700D02*
X134323500Y-91956300D01*
X164833300Y-69977000D02*
X167119300Y-69977000D01*
X169037000Y-68059300D02*
X169037000Y-52819300D01*
X165303200Y-87477600D02*
X165303200Y-90233500D01*
X167513000Y-92443300D02*
X167513000Y-99733100D01*
X165303200Y-90233500D02*
X167513000Y-92443300D01*
X167513000Y-92443300D02*
X167513000Y-91782900D01*
X167513000Y-91782900D02*
X170319700Y-88976200D01*
X170319700Y-70091300D02*
X168662350Y-68433950D01*
X170319700Y-88976200D02*
X170319700Y-70091300D01*
X168662350Y-68433950D02*
X169037000Y-68059300D01*
X167119300Y-69977000D02*
X168662350Y-68433950D01*
%TO.N,TX*%
X156523100Y-79256300D02*
X152412700Y-79256300D01*
X162204400Y-84937600D02*
X156523100Y-79256300D01*
X165303200Y-84937600D02*
X162204400Y-84937600D01*
%TO.N,RX*%
X152412700Y-76716300D02*
X158605900Y-76716300D01*
X158605900Y-76716300D02*
X161378900Y-79489300D01*
X161378900Y-79489300D02*
X161378900Y-81064100D01*
X162712400Y-82397600D02*
X165303200Y-82397600D01*
X161378900Y-81064100D02*
X162712400Y-82397600D01*
%TO.N,GND*%
X116967000Y-64185800D02*
X116967000Y-68173600D01*
X119227600Y-70434200D02*
X119227600Y-74053700D01*
X116967000Y-68173600D02*
X119227600Y-70434200D01*
X126775800Y-89179400D02*
X127012700Y-89416300D01*
X118922800Y-89179400D02*
X126775800Y-89179400D01*
X153318281Y-89416300D02*
X152412700Y-89416300D01*
X162433000Y-98531019D02*
X153318281Y-89416300D01*
X162433000Y-99733100D02*
X162433000Y-98531019D01*
X152412700Y-89416300D02*
X145677300Y-89416300D01*
X145677300Y-89416300D02*
X139903200Y-83642200D01*
X131766900Y-89416300D02*
X127012700Y-89416300D01*
X137541000Y-83642200D02*
X131766900Y-89416300D01*
X116967000Y-54787800D02*
X124409200Y-47345600D01*
X124409200Y-47345600D02*
X134404100Y-47345600D01*
X134404100Y-47345600D02*
X138671300Y-51612800D01*
X138671300Y-83642200D02*
X137541000Y-83642200D01*
X139903200Y-83642200D02*
X138671300Y-83642200D01*
X166497000Y-52819300D02*
X166497000Y-50457100D01*
X166497000Y-50457100D02*
X163309300Y-47269400D01*
X166497000Y-52819300D02*
X166497000Y-56426100D01*
X166497000Y-56426100D02*
X164833300Y-58089800D01*
X164833300Y-58089800D02*
X164833300Y-62357000D01*
X144843500Y-47269400D02*
X138671300Y-53441600D01*
X163309300Y-47269400D02*
X144843500Y-47269400D01*
X138671300Y-53441600D02*
X138671300Y-83642200D01*
X138671300Y-51612800D02*
X138671300Y-53441600D01*
X116967000Y-64185800D02*
X116967000Y-54787800D01*
%TO.N,DHT22*%
X152412700Y-84336300D02*
X156015100Y-84336300D01*
X156015100Y-84336300D02*
X158051500Y-86372700D01*
X158051500Y-86372700D02*
X158051500Y-90652600D01*
X164973000Y-97574100D02*
X164973000Y-99733100D01*
X158051500Y-90652600D02*
X164973000Y-97574100D01*
%TO.N,MQ135*%
X152412700Y-56396300D02*
X155414300Y-56396300D01*
X158991300Y-52819300D02*
X161417000Y-52819300D01*
X155414300Y-56396300D02*
X158991300Y-52819300D01*
%TO.N,Echo*%
X152412700Y-71636300D02*
X157132700Y-71636300D01*
X157132700Y-71636300D02*
X159270700Y-69498300D01*
X159270700Y-69498300D02*
X159270700Y-66078100D01*
X160451800Y-64897000D02*
X164833300Y-64897000D01*
X159270700Y-66078100D02*
X160451800Y-64897000D01*
%TO.N,Trigger*%
X152412700Y-74176300D02*
X159202800Y-74176300D01*
X159202800Y-74176300D02*
X161556700Y-71822400D01*
X161556700Y-71822400D02*
X161556700Y-67754500D01*
X164515800Y-67754500D02*
X164833300Y-67437000D01*
X161556700Y-67754500D02*
X164515800Y-67754500D01*
%TO.N,YF-S201*%
X119227600Y-76593700D02*
X121615200Y-76593700D01*
X121615200Y-76593700D02*
X123494800Y-74714100D01*
X123494800Y-74714100D02*
X123494800Y-70129400D01*
X124527900Y-69096300D02*
X127012700Y-69096300D01*
X123494800Y-70129400D02*
X124527900Y-69096300D01*
%TO.N,Relay*%
X119676500Y-64016300D02*
X119507000Y-64185800D01*
X127012700Y-64016300D02*
X119676500Y-64016300D01*
%TD*%
M02*
