M48
; DRILL file {KiCad 7.0.10} date Wed Feb 21 13:04:06 2024
; FORMAT={-:-/ absolute / inch / decimal}
; #@! TF.CreationDate,2024-02-21T13:04:06+05:00
; #@! TF.GenerationSoftware,Kicad,Pcbnew,7.0.10
; #@! TF.FileFunction,Plated,1,2,PTH
FMAT,2
INCH
; #@! TA.AperFunction,Plated,PTH,ComponentDrill
T1C0.0315
; #@! TA.AperFunction,Plated,PTH,ComponentDrill
T2C0.0374
; #@! TA.AperFunction,Plated,PTH,ComponentDrill
T3C0.0394
; #@! TA.AperFunction,Plated,PTH,ComponentDrill
T4C0.0402
%
G90
G05
T1
X5.805Y-3.64
X5.805Y-4.04
X5.94Y-3.755
X5.94Y-4.155
X8.265Y-3.435
X8.265Y-3.835
X8.335Y-4.235
X8.335Y-4.635
T2
X5.555Y-3.6631
X5.555Y-3.7616
X5.555Y-3.86
X5.555Y-3.9584
X5.575Y-5.0016
X5.575Y-5.1
X5.575Y-5.1984
X5.585Y-4.35
X5.585Y-4.4484
X5.585Y-4.5469
X8.6164Y-4.3992
X8.6164Y-4.4976
X8.6164Y-4.5961
X8.6164Y-4.8992
X8.6164Y-4.9976
X8.6164Y-5.0961
X8.6164Y-5.1945
X8.64Y-3.41
X8.64Y-3.5084
X8.64Y-3.6069
X8.64Y-3.7053
T3
X5.295Y-4.6584
X5.295Y-4.7569
X6.29Y-3.6
X6.29Y-3.7
X6.29Y-3.8
X6.3Y-4.2
X6.3Y-4.3
X6.3Y-4.6
X6.3Y-4.7
X6.3Y-4.8
X6.3Y-5.2
X8.0Y-3.86
X8.0Y-3.96
X8.0Y-4.2
X8.0Y-4.3
X8.0Y-4.6
X8.0Y-4.7
X8.0Y-4.8
X8.0Y-5.2
X8.6382Y-3.9976
X8.6382Y-4.0961
T4
X6.6835Y-3.5134
X6.6835Y-3.6134
X6.6835Y-3.7134
X6.6835Y-3.8134
X6.6835Y-3.9134
X6.6835Y-4.0134
X6.6835Y-4.1134
X6.6835Y-4.2134
X6.6835Y-4.3134
X6.6835Y-4.4134
X6.6835Y-4.5134
X6.6835Y-4.6134
X6.6835Y-4.7134
X6.6835Y-4.8134
X6.6835Y-4.9134
X7.6835Y-3.5134
X7.6835Y-3.6134
X7.6835Y-3.7134
X7.6835Y-3.8134
X7.6835Y-3.9134
X7.6835Y-4.0134
X7.6835Y-4.1134
X7.6835Y-4.2134
X7.6835Y-4.3134
X7.6835Y-4.4134
X7.6835Y-4.5134
X7.6835Y-4.6134
X7.6835Y-4.7134
X7.6835Y-4.8134
X7.6835Y-4.9134
M30
