M48
; DRILL file {KiCad 7.0.10} date Wed Feb 21 12:26:13 2024
; FORMAT={-:-/ absolute / inch / decimal}
; #@! TF.CreationDate,2024-02-21T12:26:13+05:00
; #@! TF.GenerationSoftware,Kicad,Pcbnew,7.0.10
; #@! TF.FileFunction,Plated,1,2,PTH
FMAT,2
INCH
; #@! TA.AperFunction,Plated,PTH,ComponentDrill
T1C0.0394
; #@! TA.AperFunction,Plated,PTH,ComponentDrill
T2C0.0402
%
G90
G05
T1
X4.505Y-2.527
X4.605Y-2.527
X4.682Y-3.511
X4.682Y-3.611
X4.694Y-2.9155
X4.694Y-3.0155
X4.694Y-3.1155
X4.705Y-2.527
X6.355Y-2.0795
X6.395Y-3.9265
X6.455Y-2.0795
X6.4895Y-2.455
X6.4895Y-2.555
X6.4895Y-2.655
X6.4895Y-2.755
X6.495Y-3.9265
X6.508Y-3.144
X6.508Y-3.244
X6.508Y-3.344
X6.508Y-3.444
X6.555Y-2.0795
X6.595Y-3.9265
X6.655Y-2.0795
T2
X5.0005Y-2.2203
X5.0005Y-2.3203
X5.0005Y-2.4203
X5.0005Y-2.5203
X5.0005Y-2.6203
X5.0005Y-2.7203
X5.0005Y-2.8203
X5.0005Y-2.9203
X5.0005Y-3.0203
X5.0005Y-3.1203
X5.0005Y-3.2203
X5.0005Y-3.3203
X5.0005Y-3.4203
X5.0005Y-3.5203
X5.0005Y-3.6203
X6.0005Y-2.2203
X6.0005Y-2.3203
X6.0005Y-2.4203
X6.0005Y-2.5203
X6.0005Y-2.6203
X6.0005Y-2.7203
X6.0005Y-2.8203
X6.0005Y-2.9203
X6.0005Y-3.0203
X6.0005Y-3.1203
X6.0005Y-3.2203
X6.0005Y-3.3203
X6.0005Y-3.4203
X6.0005Y-3.5203
X6.0005Y-3.6203
M30
